G04 #@! TF.GenerationSoftware,KiCad,Pcbnew,8.0.8*
G04 #@! TF.CreationDate,2025-03-14T23:10:00+01:00*
G04 #@! TF.ProjectId,epdiy-v7-raw,65706469-792d-4763-972d-7261772e6b69,1.1*
G04 #@! TF.SameCoordinates,Original*
G04 #@! TF.FileFunction,Copper,L1,Top*
G04 #@! TF.FilePolarity,Positive*
%FSLAX46Y46*%
G04 Gerber Fmt 4.6, Leading zero omitted, Abs format (unit mm)*
G04 Created by KiCad (PCBNEW 8.0.8) date 2025-03-14 23:10:00*
%MOMM*%
%LPD*%
G01*
G04 APERTURE LIST*
G04 Aperture macros list*
%AMRoundRect*
0 Rectangle with rounded corners*
0 $1 Rounding radius*
0 $2 $3 $4 $5 $6 $7 $8 $9 X,Y pos of 4 corners*
0 Add a 4 corners polygon primitive as box body*
4,1,4,$2,$3,$4,$5,$6,$7,$8,$9,$2,$3,0*
0 Add four circle primitives for the rounded corners*
1,1,$1+$1,$2,$3*
1,1,$1+$1,$4,$5*
1,1,$1+$1,$6,$7*
1,1,$1+$1,$8,$9*
0 Add four rect primitives between the rounded corners*
20,1,$1+$1,$2,$3,$4,$5,0*
20,1,$1+$1,$4,$5,$6,$7,0*
20,1,$1+$1,$6,$7,$8,$9,0*
20,1,$1+$1,$8,$9,$2,$3,0*%
G04 Aperture macros list end*
G04 #@! TA.AperFunction,SMDPad,CuDef*
%ADD10RoundRect,0.150000X-0.150000X0.512500X-0.150000X-0.512500X0.150000X-0.512500X0.150000X0.512500X0*%
G04 #@! TD*
G04 #@! TA.AperFunction,SMDPad,CuDef*
%ADD11RoundRect,0.225000X-0.375000X0.225000X-0.375000X-0.225000X0.375000X-0.225000X0.375000X0.225000X0*%
G04 #@! TD*
G04 #@! TA.AperFunction,SMDPad,CuDef*
%ADD12RoundRect,0.225000X0.375000X-0.225000X0.375000X0.225000X-0.375000X0.225000X-0.375000X-0.225000X0*%
G04 #@! TD*
G04 #@! TA.AperFunction,SMDPad,CuDef*
%ADD13RoundRect,0.250000X0.250000X0.475000X-0.250000X0.475000X-0.250000X-0.475000X0.250000X-0.475000X0*%
G04 #@! TD*
G04 #@! TA.AperFunction,SMDPad,CuDef*
%ADD14RoundRect,0.249999X-0.325001X-0.650001X0.325001X-0.650001X0.325001X0.650001X-0.325001X0.650001X0*%
G04 #@! TD*
G04 #@! TA.AperFunction,SMDPad,CuDef*
%ADD15RoundRect,0.250000X-0.475000X0.250000X-0.475000X-0.250000X0.475000X-0.250000X0.475000X0.250000X0*%
G04 #@! TD*
G04 #@! TA.AperFunction,SMDPad,CuDef*
%ADD16RoundRect,0.200000X0.275000X-0.200000X0.275000X0.200000X-0.275000X0.200000X-0.275000X-0.200000X0*%
G04 #@! TD*
G04 #@! TA.AperFunction,SMDPad,CuDef*
%ADD17RoundRect,0.200000X-0.200000X-0.275000X0.200000X-0.275000X0.200000X0.275000X-0.200000X0.275000X0*%
G04 #@! TD*
G04 #@! TA.AperFunction,SMDPad,CuDef*
%ADD18RoundRect,0.200000X-0.275000X0.200000X-0.275000X-0.200000X0.275000X-0.200000X0.275000X0.200000X0*%
G04 #@! TD*
G04 #@! TA.AperFunction,SMDPad,CuDef*
%ADD19RoundRect,0.250000X-0.250000X-0.475000X0.250000X-0.475000X0.250000X0.475000X-0.250000X0.475000X0*%
G04 #@! TD*
G04 #@! TA.AperFunction,SMDPad,CuDef*
%ADD20RoundRect,0.200000X0.200000X0.275000X-0.200000X0.275000X-0.200000X-0.275000X0.200000X-0.275000X0*%
G04 #@! TD*
G04 #@! TA.AperFunction,SMDPad,CuDef*
%ADD21R,3.900000X2.200000*%
G04 #@! TD*
G04 #@! TA.AperFunction,SMDPad,CuDef*
%ADD22R,4.200000X2.400000*%
G04 #@! TD*
G04 #@! TA.AperFunction,SMDPad,CuDef*
%ADD23RoundRect,0.250000X0.475000X-0.250000X0.475000X0.250000X-0.475000X0.250000X-0.475000X-0.250000X0*%
G04 #@! TD*
G04 #@! TA.AperFunction,SMDPad,CuDef*
%ADD24R,0.850000X0.200000*%
G04 #@! TD*
G04 #@! TA.AperFunction,SMDPad,CuDef*
%ADD25R,0.200000X0.850000*%
G04 #@! TD*
G04 #@! TA.AperFunction,ComponentPad*
%ADD26C,0.508000*%
G04 #@! TD*
G04 #@! TA.AperFunction,SMDPad,CuDef*
%ADD27R,4.399999X4.399999*%
G04 #@! TD*
G04 #@! TA.AperFunction,SMDPad,CuDef*
%ADD28C,2.500000*%
G04 #@! TD*
G04 #@! TA.AperFunction,SMDPad,CuDef*
%ADD29R,0.838200X0.355600*%
G04 #@! TD*
G04 #@! TA.AperFunction,SMDPad,CuDef*
%ADD30R,0.838200X0.406400*%
G04 #@! TD*
G04 #@! TA.AperFunction,ComponentPad*
%ADD31R,1.700000X1.700000*%
G04 #@! TD*
G04 #@! TA.AperFunction,ComponentPad*
%ADD32O,1.700000X1.700000*%
G04 #@! TD*
G04 #@! TA.AperFunction,SMDPad,CuDef*
%ADD33R,2.800000X1.600000*%
G04 #@! TD*
G04 #@! TA.AperFunction,SMDPad,CuDef*
%ADD34R,1.300000X0.250000*%
G04 #@! TD*
G04 #@! TA.AperFunction,ViaPad*
%ADD35C,0.800000*%
G04 #@! TD*
G04 #@! TA.AperFunction,Conductor*
%ADD36C,0.200000*%
G04 #@! TD*
G04 #@! TA.AperFunction,Conductor*
%ADD37C,1.000000*%
G04 #@! TD*
G04 #@! TA.AperFunction,Conductor*
%ADD38C,0.500000*%
G04 #@! TD*
G04 #@! TA.AperFunction,Conductor*
%ADD39C,0.250000*%
G04 #@! TD*
G04 #@! TA.AperFunction,Conductor*
%ADD40C,0.300000*%
G04 #@! TD*
G04 #@! TA.AperFunction,Conductor*
%ADD41C,0.400000*%
G04 #@! TD*
G04 #@! TA.AperFunction,Conductor*
%ADD42C,0.750000*%
G04 #@! TD*
G04 APERTURE END LIST*
D10*
X114032070Y-100352500D03*
X113082070Y-100352500D03*
X112132070Y-100352500D03*
X112132070Y-102627500D03*
X114032070Y-102627500D03*
D11*
X85082070Y-108764000D03*
X85082070Y-112064000D03*
D12*
X87622070Y-112064000D03*
X87622070Y-108764000D03*
D11*
X85082070Y-99620000D03*
X85082070Y-102920000D03*
D12*
X87622070Y-102920000D03*
X87622070Y-99620000D03*
X98671070Y-114731000D03*
X98671070Y-111431000D03*
D11*
X98544070Y-93778000D03*
X98544070Y-97078000D03*
D13*
X113982070Y-104890000D03*
X112082070Y-104890000D03*
X108892070Y-110160000D03*
X106992070Y-110160000D03*
X117483333Y-112125000D03*
X115583333Y-112125000D03*
D14*
X121575000Y-88925000D03*
X124525000Y-88925000D03*
D15*
X118505000Y-120050000D03*
X118505000Y-121950000D03*
D14*
X115658333Y-115370000D03*
X118608333Y-115370000D03*
D15*
X122432000Y-120047000D03*
X122432000Y-121947000D03*
D16*
X106363270Y-114761600D03*
X106363270Y-113111600D03*
D17*
X121575000Y-86775000D03*
X123225000Y-86775000D03*
D18*
X116575000Y-119997000D03*
X116575000Y-121647000D03*
D17*
X115650000Y-118000000D03*
X117300000Y-118000000D03*
D18*
X120400000Y-119922000D03*
X120400000Y-121572000D03*
X108395270Y-113111600D03*
X108395270Y-114761600D03*
D15*
X105402070Y-94986000D03*
X105402070Y-96886000D03*
D19*
X106992070Y-98730000D03*
X108892070Y-98730000D03*
D20*
X87939070Y-104572000D03*
X86289070Y-104572000D03*
D21*
X94988070Y-115743000D03*
X94988070Y-111943000D03*
D22*
X91940070Y-97424000D03*
X91940070Y-92924000D03*
D20*
X84637070Y-106858000D03*
X82987070Y-106858000D03*
X87939070Y-106858000D03*
X86289070Y-106858000D03*
X84637070Y-104572000D03*
X82987070Y-104572000D03*
D23*
X98544070Y-118349000D03*
X98544070Y-116449000D03*
X103370070Y-113396000D03*
X103370070Y-111496000D03*
D13*
X91620070Y-103556000D03*
X89720070Y-103556000D03*
D19*
X89720070Y-106350000D03*
X91620070Y-106350000D03*
D24*
X102281070Y-106518001D03*
X102281070Y-106117999D03*
X102281070Y-105718000D03*
X102281070Y-105318001D03*
X102281070Y-104917999D03*
X102281070Y-104518000D03*
X102281070Y-104118000D03*
X102281070Y-103718001D03*
X102281070Y-103317999D03*
X102281070Y-102918000D03*
X102281070Y-102518001D03*
X102281070Y-102117999D03*
D25*
X101506071Y-101343000D03*
X101106069Y-101343000D03*
X100706070Y-101343000D03*
X100306071Y-101343000D03*
X99906069Y-101343000D03*
X99506070Y-101343000D03*
X99106070Y-101343000D03*
X98706071Y-101343000D03*
X98306069Y-101343000D03*
X97906070Y-101343000D03*
X97506071Y-101343000D03*
X97106069Y-101343000D03*
D24*
X96331070Y-102117999D03*
X96331070Y-102518001D03*
X96331070Y-102918000D03*
X96331070Y-103317999D03*
X96331070Y-103718001D03*
X96331070Y-104118000D03*
X96331070Y-104518000D03*
X96331070Y-104917999D03*
X96331070Y-105318001D03*
X96331070Y-105718000D03*
X96331070Y-106117999D03*
X96331070Y-106518001D03*
D25*
X97106069Y-107293000D03*
X97506071Y-107293000D03*
X97906070Y-107293000D03*
X98306069Y-107293000D03*
X98706071Y-107293000D03*
X99106070Y-107293000D03*
X99506070Y-107293000D03*
X99906069Y-107293000D03*
X100306071Y-107293000D03*
X100706070Y-107293000D03*
X101106069Y-107293000D03*
X101506071Y-107293000D03*
D26*
X100880870Y-105892800D03*
X100880870Y-105105400D03*
X100880870Y-104318000D03*
X100880870Y-103530600D03*
X100880870Y-102743200D03*
X100093470Y-105892800D03*
X100093470Y-105105400D03*
X100093470Y-104318000D03*
X100093470Y-103530600D03*
X100093470Y-102743200D03*
X99306070Y-105892800D03*
X99306070Y-105105400D03*
X99306070Y-104318000D03*
D27*
X99306070Y-104318000D03*
D26*
X99306070Y-103530600D03*
X99306070Y-102743200D03*
X98518670Y-105892800D03*
X98518670Y-105105400D03*
X98518670Y-104318000D03*
X98518670Y-103530600D03*
X98518670Y-102743200D03*
X97731270Y-105892800D03*
X97731270Y-105105400D03*
X97731270Y-104318000D03*
X97731270Y-103530600D03*
X97731270Y-102743200D03*
D13*
X108892070Y-107874000D03*
X106992070Y-107874000D03*
D23*
X96004070Y-97902000D03*
X96004070Y-96002000D03*
D13*
X108892070Y-101016000D03*
X106992070Y-101016000D03*
D19*
X80830070Y-102540000D03*
X82730070Y-102540000D03*
D23*
X100830070Y-96886000D03*
X100830070Y-94986000D03*
D19*
X106992070Y-105588000D03*
X108892070Y-105588000D03*
X89720070Y-101143000D03*
X91620070Y-101143000D03*
D23*
X103116070Y-96886000D03*
X103116070Y-94986000D03*
D19*
X89720070Y-108763000D03*
X91620070Y-108763000D03*
D13*
X82730070Y-108890000D03*
X80830070Y-108890000D03*
X108892070Y-103314700D03*
X106992070Y-103314700D03*
D23*
X101211070Y-113396000D03*
X101211070Y-111496000D03*
D19*
X112132070Y-97990000D03*
X114032070Y-97990000D03*
D15*
X114696000Y-120097000D03*
X114696000Y-121997000D03*
D18*
X112796000Y-119997000D03*
X112796000Y-121647000D03*
D15*
X86032070Y-93140000D03*
X86032070Y-95040000D03*
D23*
X90924070Y-113396000D03*
X90924070Y-111496000D03*
D28*
X86282070Y-118590000D03*
X78282070Y-118590000D03*
X90282070Y-118590000D03*
X104282070Y-118590000D03*
D17*
X85350000Y-88500000D03*
X87000000Y-88500000D03*
D20*
X87000000Y-86500063D03*
X85350000Y-86500063D03*
D28*
X82282070Y-118590000D03*
D29*
X80117800Y-90500441D03*
X80117800Y-90000315D03*
X80117800Y-89500189D03*
X80117800Y-89000063D03*
X80117800Y-88499937D03*
X80117800Y-87999811D03*
X80117800Y-87499685D03*
X80117800Y-86999559D03*
D30*
X77657800Y-86000000D03*
X77657800Y-91500000D03*
D31*
X75940000Y-83500000D03*
D32*
X78480000Y-83500000D03*
X81020000Y-83500000D03*
X83560000Y-83500000D03*
X86100000Y-83500000D03*
X88640000Y-83500000D03*
X91180000Y-83500000D03*
X93720000Y-83500000D03*
X96260000Y-83500000D03*
X98800000Y-83500000D03*
X101340000Y-83500000D03*
X103880000Y-83500000D03*
X106420000Y-83500000D03*
X108960000Y-83500000D03*
X111500000Y-83500000D03*
X114040000Y-83500000D03*
X116580000Y-83500000D03*
X119120000Y-83500000D03*
X121660000Y-83500000D03*
X124200000Y-83500000D03*
D31*
X76000000Y-95000000D03*
D32*
X76000000Y-97540000D03*
X76000000Y-100080000D03*
X76000000Y-102620000D03*
X76000000Y-105160000D03*
D16*
X82500000Y-89175000D03*
X82500000Y-90825000D03*
D33*
X126275000Y-112350000D03*
X126275000Y-91850000D03*
D34*
X123275000Y-110350000D03*
X123275000Y-109850000D03*
X123275000Y-109350000D03*
X123275000Y-108850000D03*
X123275000Y-108350000D03*
X123275000Y-107850000D03*
X123275000Y-107350000D03*
X123275000Y-106850000D03*
X123275000Y-106350000D03*
X123275000Y-105850000D03*
X123275000Y-105350000D03*
X123275000Y-104850000D03*
X123275000Y-104350000D03*
X123275000Y-103850000D03*
X123275000Y-103350000D03*
X123275000Y-102850000D03*
X123275000Y-102350000D03*
X123275000Y-101850000D03*
X123275000Y-101350000D03*
X123275000Y-100850000D03*
X123275000Y-100350000D03*
X123275000Y-99850000D03*
X123275000Y-99350000D03*
X123275000Y-98850000D03*
X123275000Y-98350000D03*
X123275000Y-97850000D03*
X123275000Y-97350000D03*
X123275000Y-96850000D03*
X123275000Y-96350000D03*
X123275000Y-95850000D03*
X123275000Y-95350000D03*
X123275000Y-94850000D03*
X123275000Y-94350000D03*
X123275000Y-93850000D03*
D35*
X124500000Y-94500000D03*
X102941069Y-114590000D03*
X110282070Y-106840000D03*
X125000000Y-97500000D03*
X95482070Y-91490000D03*
X110528866Y-102093204D03*
X105275070Y-104112000D03*
X102113171Y-94025000D03*
X99782070Y-118340000D03*
X102354070Y-100254000D03*
X109509657Y-104545000D03*
X93082070Y-90090000D03*
X105656070Y-102492000D03*
X102837153Y-93990910D03*
X113082070Y-101190000D03*
X110282070Y-97840000D03*
X88682070Y-90090000D03*
X79682070Y-102590000D03*
X101532070Y-116590000D03*
X88678756Y-103694099D03*
X92082070Y-89490000D03*
X89532070Y-113090000D03*
X91082070Y-90090000D03*
X111444043Y-108001973D03*
X125500000Y-108359521D03*
X102733813Y-107621257D03*
X89720070Y-104902000D03*
X102226070Y-113396000D03*
X115043039Y-104259394D03*
X89749377Y-92700000D03*
X107282070Y-115130000D03*
X92778847Y-105184403D03*
X88682070Y-92490000D03*
X101032070Y-114590000D03*
X110266558Y-104870863D03*
X86532070Y-92090000D03*
X89532070Y-114090000D03*
X111500000Y-121500000D03*
X98649351Y-109674663D03*
X83532070Y-107590000D03*
X79782070Y-108840000D03*
X94882070Y-92690000D03*
X114500000Y-112000000D03*
X102032070Y-115590000D03*
X98282070Y-95840000D03*
X101886070Y-94986000D03*
X105875283Y-95228486D03*
X89882070Y-89490000D03*
X96297604Y-94855534D03*
X115082070Y-98190000D03*
X98136070Y-94986000D03*
X88082070Y-91290000D03*
X118000000Y-117500000D03*
X97032070Y-118340000D03*
X85282070Y-92090000D03*
X109390000Y-106735000D03*
X110282070Y-100090000D03*
X109995331Y-101484669D03*
X83532070Y-105340000D03*
X105582070Y-94090000D03*
X110351505Y-108718325D03*
X79000000Y-90500000D03*
X116000000Y-107000000D03*
X94734070Y-106731000D03*
X87782070Y-107753998D03*
X121500000Y-90500000D03*
X87282070Y-103930002D03*
X94558816Y-103427029D03*
X111186035Y-117186035D03*
X111085184Y-112832862D03*
X120800000Y-112550000D03*
X118000272Y-120877000D03*
X109282070Y-116190000D03*
X119500000Y-119000000D03*
X122158631Y-94495000D03*
X88282070Y-117340000D03*
X99406060Y-99111000D03*
X121500000Y-100000000D03*
X111500000Y-120500000D03*
X105975000Y-97090000D03*
X107000000Y-119500000D03*
X107373605Y-111480500D03*
X116495000Y-111140000D03*
X109730965Y-114340000D03*
X102532070Y-96090000D03*
X105275070Y-105588000D03*
X94608327Y-101649743D03*
X102822070Y-97541000D03*
X88500000Y-88000063D03*
X100109731Y-98317659D03*
X84000000Y-86500063D03*
X101077318Y-98282747D03*
X97268070Y-97900765D03*
X105500000Y-107500000D03*
X106056501Y-104597563D03*
X105500000Y-99000000D03*
X99058070Y-98048002D03*
X106775000Y-95769795D03*
X105670014Y-101016000D03*
X99782070Y-116340000D03*
X95032070Y-97090000D03*
X91282070Y-115090000D03*
X106473219Y-97937557D03*
X93782070Y-117340000D03*
X92532070Y-117090000D03*
X94782070Y-97840000D03*
X92532070Y-115090000D03*
X96532070Y-117340000D03*
X92532070Y-116090000D03*
X97282070Y-116590000D03*
X86282070Y-96090000D03*
X96032070Y-97090000D03*
X87282070Y-95590000D03*
X91282070Y-116090000D03*
X97282070Y-115340000D03*
X95032070Y-117340000D03*
X102227070Y-109423000D03*
X110703536Y-111918534D03*
X84000000Y-90500000D03*
X82000000Y-101000000D03*
X84000000Y-88000063D03*
X92883070Y-104191000D03*
X86911346Y-105137619D03*
X87032070Y-106090000D03*
X93596775Y-105686994D03*
D36*
X124500000Y-94500000D02*
X124525000Y-94475000D01*
X124525000Y-94475000D02*
X124525000Y-88925000D01*
X88500000Y-88000063D02*
X87499937Y-88000063D01*
X87499937Y-88000063D02*
X87000000Y-88500000D01*
X80117800Y-88499937D02*
X82899449Y-88499937D01*
X82899449Y-88499937D02*
X83594512Y-89195000D01*
X83594512Y-89195000D02*
X86305000Y-89195000D01*
X86305000Y-89195000D02*
X87000000Y-88500000D01*
X84000000Y-88000063D02*
X84850063Y-88000063D01*
X84850063Y-88000063D02*
X85350000Y-88500000D01*
X87000000Y-86500063D02*
X85350000Y-88150063D01*
X85350000Y-88150063D02*
X85350000Y-88500000D01*
D37*
X98136070Y-94986000D02*
X101886070Y-94986000D01*
X101886070Y-94986000D02*
X105402070Y-94986000D01*
D38*
X102226070Y-113396000D02*
X103370070Y-113396000D01*
X100830070Y-94275998D02*
X100830070Y-94986000D01*
D39*
X124895000Y-106395000D02*
X125500000Y-107000000D01*
D38*
X114625000Y-112125000D02*
X114500000Y-112000000D01*
D36*
X101570069Y-100254000D02*
X102354070Y-100254000D01*
D38*
X90924070Y-113396000D02*
X90226070Y-113396000D01*
X101211070Y-113396000D02*
X101211070Y-114411000D01*
X118202000Y-121647000D02*
X118505000Y-121950000D01*
D36*
X101106069Y-101343000D02*
X101106069Y-100718000D01*
X101506071Y-107776872D02*
X101730199Y-108001000D01*
D40*
X114032070Y-97990000D02*
X114882070Y-97990000D01*
D38*
X122057000Y-121572000D02*
X122432000Y-121947000D01*
X79832070Y-108890000D02*
X79782070Y-108840000D01*
X106913670Y-114761600D02*
X107282070Y-115130000D01*
D36*
X117500000Y-118000000D02*
X118000000Y-117500000D01*
D38*
X95482070Y-91490000D02*
X95892080Y-91900010D01*
X86032070Y-93140000D02*
X86032070Y-92840000D01*
D36*
X101730199Y-108001000D02*
X102354070Y-108001000D01*
D38*
X98544070Y-118349000D02*
X97041070Y-118349000D01*
D36*
X93045251Y-104917999D02*
X92778847Y-105184403D01*
D38*
X89720070Y-106350000D02*
X89720070Y-104902000D01*
X89720070Y-103556000D02*
X88816855Y-103556000D01*
D36*
X98716079Y-107303008D02*
X98716079Y-109607935D01*
D38*
X103370070Y-114160999D02*
X102941069Y-114590000D01*
X101211070Y-114411000D02*
X101032070Y-114590000D01*
X105402070Y-94270000D02*
X105402070Y-94986000D01*
X88816855Y-103556000D02*
X88678756Y-103694099D01*
D39*
X124525000Y-88925000D02*
X124525000Y-88061148D01*
X124357537Y-107350000D02*
X125475000Y-108467463D01*
X125475000Y-108525000D02*
X124650000Y-109350000D01*
D38*
X107282070Y-115130000D02*
X107335270Y-115130000D01*
D36*
X124650000Y-97850000D02*
X125000000Y-97500000D01*
D38*
X86032070Y-92840000D02*
X85282070Y-92090000D01*
D36*
X105109807Y-102492000D02*
X105656070Y-102492000D01*
D38*
X116575000Y-121647000D02*
X118202000Y-121647000D01*
X107335270Y-115130000D02*
X107703670Y-114761600D01*
X112796000Y-121647000D02*
X114346000Y-121647000D01*
X115583333Y-112125000D02*
X114625000Y-112125000D01*
X118505000Y-121950000D02*
X120022000Y-121950000D01*
X90226070Y-113396000D02*
X89532070Y-114090000D01*
X120022000Y-121950000D02*
X120400000Y-121572000D01*
X120400000Y-121572000D02*
X122057000Y-121572000D01*
X101211070Y-113396000D02*
X102226070Y-113396000D01*
X89720070Y-104902000D02*
X89720070Y-103556000D01*
X96004070Y-95149068D02*
X96297604Y-94855534D01*
X86032070Y-92590000D02*
X86532070Y-92090000D01*
D39*
X125500000Y-108500000D02*
X125475000Y-108525000D01*
X123238852Y-86775000D02*
X124525000Y-88061148D01*
D38*
X115583333Y-112125000D02*
X115583333Y-113058333D01*
X82987070Y-107045000D02*
X83532070Y-107590000D01*
D37*
X96004070Y-96002000D02*
X97020070Y-94986000D01*
D38*
X103370070Y-113396000D02*
X103370070Y-114160999D01*
D37*
X97020070Y-94986000D02*
X98136070Y-94986000D01*
D38*
X101886070Y-94986000D02*
X101886070Y-94252101D01*
D39*
X125500000Y-108359521D02*
X125500000Y-108500000D01*
X111500000Y-121500000D02*
X112649000Y-121500000D01*
X123275000Y-106350000D02*
X123320000Y-106395000D01*
D36*
X102281070Y-103718001D02*
X103883806Y-103718001D01*
D38*
X95892080Y-91900010D02*
X98454082Y-91900010D01*
D36*
X98716079Y-109607935D02*
X98649351Y-109674663D01*
X79000000Y-90500000D02*
X80117359Y-90500000D01*
D38*
X114346000Y-121647000D02*
X114696000Y-121997000D01*
D36*
X98706071Y-107293000D02*
X98716079Y-107303008D01*
D40*
X114882070Y-97990000D02*
X115082070Y-98190000D01*
D38*
X117895000Y-115370000D02*
X118608333Y-115370000D01*
X103116070Y-94269827D02*
X102837153Y-93990910D01*
D36*
X104859062Y-104528008D02*
X105275070Y-104112000D01*
X96331070Y-104917999D02*
X93045251Y-104917999D01*
D38*
X105582070Y-94090000D02*
X105402070Y-94270000D01*
X108395270Y-114761600D02*
X107703670Y-114761600D01*
X86032070Y-93140000D02*
X86032070Y-92590000D01*
X105644556Y-95228486D02*
X105875283Y-95228486D01*
D36*
X101106069Y-100718000D02*
X101570069Y-100254000D01*
X102354070Y-108001000D02*
X102733813Y-107621257D01*
D38*
X114696000Y-121997000D02*
X115103468Y-121589532D01*
X115583333Y-113058333D02*
X117895000Y-115370000D01*
X96004070Y-96002000D02*
X96004070Y-95149068D01*
X115103468Y-121589532D02*
X115282465Y-121589532D01*
D39*
X123275000Y-109350000D02*
X124650000Y-109350000D01*
D36*
X123275000Y-94850000D02*
X124150000Y-94850000D01*
D39*
X125475000Y-108467463D02*
X125475000Y-108525000D01*
D38*
X106363270Y-114761600D02*
X106913670Y-114761600D01*
D41*
X115043039Y-104259394D02*
X114612676Y-104259394D01*
D38*
X90924070Y-113396000D02*
X89838070Y-113396000D01*
X79682070Y-102590000D02*
X79732070Y-102540000D01*
X89838070Y-113396000D02*
X89532070Y-113090000D01*
D36*
X101506071Y-107293000D02*
X101506071Y-107776872D01*
D41*
X114612676Y-104259394D02*
X113982070Y-104890000D01*
D36*
X103883806Y-103718001D02*
X105109807Y-102492000D01*
D38*
X99773070Y-118349000D02*
X99782070Y-118340000D01*
X97041070Y-118349000D02*
X97032070Y-118340000D01*
D40*
X113082070Y-100352500D02*
X113082070Y-101190000D01*
D38*
X103116070Y-94986000D02*
X103116070Y-94269827D01*
X115339933Y-121647000D02*
X115282465Y-121589532D01*
X80830070Y-108890000D02*
X79832070Y-108890000D01*
X89720070Y-104902000D02*
X91844070Y-104902000D01*
X92126473Y-105184403D02*
X92778847Y-105184403D01*
X98454082Y-91900010D02*
X100830070Y-94275998D01*
X91844070Y-104902000D02*
X92126473Y-105184403D01*
X101886070Y-94252101D02*
X102113171Y-94025000D01*
D39*
X123320000Y-106395000D02*
X124895000Y-106395000D01*
D38*
X98544070Y-118349000D02*
X99773070Y-118349000D01*
D39*
X123275000Y-107350000D02*
X124357537Y-107350000D01*
D36*
X123275000Y-97850000D02*
X124650000Y-97850000D01*
D39*
X125500000Y-107000000D02*
X125500000Y-108359521D01*
D36*
X102291078Y-104528008D02*
X104859062Y-104528008D01*
X102281070Y-104518000D02*
X102291078Y-104528008D01*
D38*
X79732070Y-102540000D02*
X80830070Y-102540000D01*
X82987070Y-104795000D02*
X83532070Y-105340000D01*
X116575000Y-121647000D02*
X115339933Y-121647000D01*
D36*
X124150000Y-94850000D02*
X124500000Y-94500000D01*
X102281070Y-104118000D02*
X104078070Y-104118000D01*
D40*
X104894070Y-103302000D02*
X104078070Y-104118000D01*
X105021070Y-103302000D02*
X104894070Y-103302000D01*
D38*
X105021070Y-103302000D02*
X106979370Y-103302000D01*
X121500000Y-90500000D02*
X121500000Y-89000000D01*
X112482070Y-111017930D02*
X116000000Y-107500000D01*
D39*
X120725000Y-93450000D02*
X120725000Y-89775000D01*
D36*
X96331070Y-106117999D02*
X95347071Y-106117999D01*
D39*
X120725000Y-89775000D02*
X121575000Y-88925000D01*
D38*
X86893071Y-107903999D02*
X87244570Y-107552500D01*
X108562070Y-121110000D02*
X112482070Y-117190000D01*
D36*
X95347071Y-106117999D02*
X94734070Y-106731000D01*
D39*
X121575000Y-88925000D02*
X121575000Y-86775000D01*
D38*
X82282070Y-109338000D02*
X82730070Y-108890000D01*
X87244570Y-107552500D02*
X87939070Y-106858000D01*
X112482070Y-117190000D02*
X112482070Y-111017930D01*
D39*
X120725000Y-93450000D02*
X121125000Y-93850000D01*
D38*
X85942071Y-107903999D02*
X86893071Y-107903999D01*
X85082070Y-108764000D02*
X85942071Y-107903999D01*
D40*
X87244570Y-107552500D02*
X87580572Y-107552500D01*
D38*
X84802070Y-121110000D02*
X108562070Y-121110000D01*
X116000000Y-107500000D02*
X116000000Y-107000000D01*
D42*
X82730070Y-108890000D02*
X84956070Y-108890000D01*
D38*
X82282070Y-118590000D02*
X82282070Y-109338000D01*
X82282070Y-118590000D02*
X84802070Y-121110000D01*
D40*
X87580572Y-107552500D02*
X87782070Y-107753998D01*
D42*
X84956070Y-108890000D02*
X85082070Y-108764000D01*
D39*
X121125000Y-93850000D02*
X123275000Y-93850000D01*
D38*
X81000000Y-111146875D02*
X79012070Y-109158945D01*
X79012070Y-106258000D02*
X82730070Y-102540000D01*
D40*
X115658333Y-115370000D02*
X115658333Y-117991667D01*
D38*
X109082070Y-121790000D02*
X112872070Y-118000000D01*
D39*
X124175000Y-109850000D02*
X124180000Y-109855000D01*
D38*
X87626756Y-104572000D02*
X87213413Y-104158657D01*
X78282070Y-118590000D02*
X81000000Y-115872070D01*
D36*
X94849788Y-103718001D02*
X94558816Y-103427029D01*
D38*
X112872070Y-118000000D02*
X115650000Y-118000000D01*
D36*
X94849788Y-103718001D02*
X96331070Y-103718001D01*
D40*
X87213413Y-103998659D02*
X87282070Y-103930002D01*
D39*
X123275000Y-109850000D02*
X124175000Y-109850000D01*
D40*
X87213413Y-104158657D02*
X87213413Y-103998659D01*
D38*
X79012070Y-109158945D02*
X79012070Y-106258000D01*
D39*
X115658333Y-115370000D02*
X116918333Y-116630000D01*
D42*
X84702070Y-102540000D02*
X85082070Y-102920000D01*
D38*
X81000000Y-115872070D02*
X81000000Y-111146875D01*
D39*
X124180000Y-114171740D02*
X121721740Y-116630000D01*
D38*
X85974756Y-102920000D02*
X85082070Y-102920000D01*
X87213413Y-104158657D02*
X85974756Y-102920000D01*
D42*
X82730070Y-102540000D02*
X84702070Y-102540000D01*
D39*
X124180000Y-109855000D02*
X124180000Y-114171740D01*
D38*
X81482070Y-121790000D02*
X109082070Y-121790000D01*
X87939070Y-104572000D02*
X87626756Y-104572000D01*
X78282070Y-118590000D02*
X81482070Y-121790000D01*
D39*
X116918333Y-116630000D02*
X121721740Y-116630000D01*
D36*
X102281070Y-105718000D02*
X103500070Y-105718000D01*
X106588760Y-102329690D02*
X107488682Y-102329690D01*
D38*
X104311166Y-106604000D02*
X103955176Y-106248010D01*
D36*
X103774678Y-103317999D02*
X105260678Y-101831999D01*
D38*
X107922070Y-120450000D02*
X111186035Y-117186035D01*
X88142070Y-120450000D02*
X107922070Y-120450000D01*
D39*
X123275000Y-110350000D02*
X123275000Y-110725000D01*
D38*
X105674069Y-106555999D02*
X106992070Y-107874000D01*
X108361762Y-111295000D02*
X109324413Y-111295000D01*
X111482070Y-116890000D02*
X111482070Y-113229748D01*
X107982070Y-108864000D02*
X107982070Y-110915308D01*
D39*
X107842604Y-102882544D02*
X107842604Y-107023466D01*
X123275000Y-110725000D02*
X121450000Y-112550000D01*
D38*
X103955176Y-106248010D02*
X103883618Y-106176452D01*
X118000272Y-120877000D02*
X118000272Y-120554728D01*
X86282070Y-118590000D02*
X88142070Y-120450000D01*
X109803536Y-112243273D02*
X110378797Y-112818534D01*
X107982070Y-110915308D02*
X108361762Y-111295000D01*
X110378797Y-112818534D02*
X111070856Y-112818534D01*
X104632269Y-106555999D02*
X105674069Y-106555999D01*
D39*
X121450000Y-112550000D02*
X120800000Y-112550000D01*
D38*
X111186035Y-117186035D02*
X111482070Y-116890000D01*
D36*
X105260678Y-101831999D02*
X106091069Y-101831999D01*
X103500070Y-105718000D02*
X103921070Y-106139000D01*
D38*
X111482070Y-113229748D02*
X111085184Y-112832862D01*
X109324413Y-111295000D02*
X109803536Y-111774123D01*
X109803536Y-111774123D02*
X109803536Y-112243273D01*
X118000272Y-120554728D02*
X118505000Y-120050000D01*
D36*
X107488682Y-102329690D02*
X107942070Y-102783078D01*
X102281070Y-103317999D02*
X103774678Y-103317999D01*
D38*
X111070856Y-112818534D02*
X111085184Y-112832862D01*
X104311166Y-106604000D02*
X104584268Y-106604000D01*
D39*
X107942070Y-102783078D02*
X107842604Y-102882544D01*
D36*
X106091069Y-101831999D02*
X106588760Y-102329690D01*
D38*
X106992070Y-107874000D02*
X107982070Y-108864000D01*
D39*
X107842604Y-107023466D02*
X106992070Y-107874000D01*
D38*
X116575000Y-119997000D02*
X118452000Y-119997000D01*
X104584268Y-106604000D02*
X104632269Y-106555999D01*
D36*
X99106070Y-101343000D02*
X99106070Y-99410990D01*
X99906069Y-107293000D02*
X99906069Y-108600999D01*
D38*
X101592070Y-110287000D02*
X102161070Y-110287000D01*
D40*
X100195070Y-108890000D02*
X101592070Y-110287000D01*
D38*
X119500000Y-119000000D02*
X119500000Y-119022000D01*
X99882070Y-119790000D02*
X91482070Y-119790000D01*
X91482070Y-119790000D02*
X90282070Y-118590000D01*
X105962070Y-116190000D02*
X109282070Y-116190000D01*
X104722070Y-114950000D02*
X105962070Y-116190000D01*
X104722070Y-114950000D02*
X99882070Y-119790000D01*
X120400000Y-119922000D02*
X122307000Y-119922000D01*
D40*
X89032070Y-117340000D02*
X90282070Y-118590000D01*
D38*
X100322070Y-109017000D02*
X101592070Y-110287000D01*
D40*
X88282070Y-117340000D02*
X89032070Y-117340000D01*
D38*
X119500000Y-119022000D02*
X120400000Y-119922000D01*
X122158631Y-94495000D02*
X122303631Y-94350000D01*
D36*
X99906069Y-108600999D02*
X100195070Y-108890000D01*
D38*
X103370070Y-111496000D02*
X104722070Y-112848000D01*
X102161070Y-110287000D02*
X103370070Y-111496000D01*
D36*
X99106070Y-99410990D02*
X99406060Y-99111000D01*
X100195070Y-108890000D02*
X100322070Y-109017000D01*
D38*
X104722070Y-112848000D02*
X104722070Y-114950000D01*
X122303631Y-94350000D02*
X123275000Y-94350000D01*
D36*
X90812548Y-87860000D02*
X88117611Y-85165063D01*
X100812548Y-92360000D02*
X96312548Y-87860000D01*
X96312548Y-87860000D02*
X90812548Y-87860000D01*
X121611452Y-105350000D02*
X117030000Y-100768548D01*
X123275000Y-105350000D02*
X121611452Y-105350000D01*
X117030000Y-100768548D02*
X117030000Y-97801096D01*
X117030000Y-97801096D02*
X111588904Y-92360000D01*
X85225063Y-85165063D02*
X83560000Y-83500000D01*
X111588904Y-92360000D02*
X100812548Y-92360000D01*
X88117611Y-85165063D02*
X85225063Y-85165063D01*
D38*
X107000000Y-118590000D02*
X108482070Y-118590000D01*
X107983105Y-112090000D02*
X107373605Y-111480500D01*
D36*
X100706070Y-100608869D02*
X101571939Y-99743000D01*
D39*
X121850000Y-100350000D02*
X123275000Y-100350000D01*
D38*
X109143536Y-112516654D02*
X109143536Y-112372504D01*
D40*
X101909570Y-99555500D02*
X102481070Y-98984000D01*
D36*
X101722070Y-99743000D02*
X101909570Y-99555500D01*
D38*
X112003000Y-119997000D02*
X111500000Y-120500000D01*
X109280270Y-112701442D02*
X109280270Y-112653388D01*
X110582070Y-114003242D02*
X109280270Y-112701442D01*
X110582070Y-116490000D02*
X110582070Y-114003242D01*
D42*
X102703570Y-98761500D02*
X103526570Y-98761500D01*
D38*
X109143536Y-112372504D02*
X108861032Y-112090000D01*
X112003000Y-119997000D02*
X112796000Y-119997000D01*
D36*
X100706070Y-101343000D02*
X100706070Y-100608869D01*
D38*
X108861032Y-112090000D02*
X107983105Y-112090000D01*
X105606070Y-97090000D02*
X105975000Y-97090000D01*
X107000000Y-119500000D02*
X107000000Y-118590000D01*
D42*
X103526570Y-98761500D02*
X105402070Y-96886000D01*
D38*
X109280270Y-112653388D02*
X109143536Y-112516654D01*
D36*
X101909570Y-99555500D02*
X102100070Y-99365000D01*
D38*
X108482070Y-118590000D02*
X110582070Y-116490000D01*
X104282070Y-118590000D02*
X107000000Y-118590000D01*
D39*
X121500000Y-100000000D02*
X121850000Y-100350000D01*
D38*
X114696000Y-120097000D02*
X112896000Y-120097000D01*
X102100070Y-99365000D02*
X102703570Y-98761500D01*
D36*
X101571939Y-99743000D02*
X101722070Y-99743000D01*
X121850000Y-97350000D02*
X108960000Y-84460000D01*
X108960000Y-84460000D02*
X108960000Y-83500000D01*
X123275000Y-97350000D02*
X121850000Y-97350000D01*
D38*
X103243070Y-106985000D02*
X106418070Y-110160000D01*
X106418070Y-110160000D02*
X106992070Y-110160000D01*
D36*
X102776071Y-106518001D02*
X103243070Y-106985000D01*
X102281070Y-106518001D02*
X102776071Y-106518001D01*
D42*
X85082070Y-99620000D02*
X87622070Y-99620000D01*
X87622070Y-99620000D02*
X88197070Y-99620000D01*
X88197070Y-99620000D02*
X89720070Y-101143000D01*
D36*
X101473938Y-108763000D02*
X102606940Y-108763000D01*
X102606940Y-108763000D02*
X103358005Y-109514065D01*
D38*
X105382070Y-113468070D02*
X105382070Y-111538130D01*
X105865600Y-113951600D02*
X105382070Y-113468070D01*
X109730965Y-114340000D02*
X109342565Y-113951600D01*
D36*
X100706070Y-107995132D02*
X101473938Y-108763000D01*
X121975000Y-110814214D02*
X121232045Y-111557169D01*
X122425000Y-107850000D02*
X121975000Y-108300000D01*
X118051164Y-111557169D02*
X121232045Y-111557169D01*
X100706070Y-107293000D02*
X100706070Y-107995132D01*
D38*
X116495000Y-111140000D02*
X116498333Y-111140000D01*
X116498333Y-111140000D02*
X117483333Y-112125000D01*
X105382070Y-111538130D02*
X103358005Y-109514065D01*
D36*
X118051164Y-111557169D02*
X117483333Y-112125000D01*
X123275000Y-107850000D02*
X122425000Y-107850000D01*
X121975000Y-108300000D02*
X121975000Y-110814214D01*
D38*
X109342565Y-113951600D02*
X105865600Y-113951600D01*
D36*
X94875617Y-102767028D02*
X95426588Y-103317999D01*
X94353070Y-102540000D02*
X94580098Y-102767028D01*
D38*
X92956070Y-101143000D02*
X91620070Y-101143000D01*
D36*
X94580098Y-102767028D02*
X94875617Y-102767028D01*
D38*
X94353070Y-102540000D02*
X92956070Y-101143000D01*
D36*
X95426588Y-103317999D02*
X96331070Y-103317999D01*
D42*
X89720070Y-109966000D02*
X87622070Y-112064000D01*
X85082070Y-112064000D02*
X87622070Y-112064000D01*
X89720070Y-108763000D02*
X89720070Y-109966000D01*
D40*
X94880669Y-107600401D02*
X94841471Y-107600401D01*
D38*
X91620070Y-108763000D02*
X93083070Y-108763000D01*
D36*
X95709069Y-106518001D02*
X95394071Y-106832999D01*
X96331070Y-106518001D02*
X95709069Y-106518001D01*
D40*
X95394071Y-107086999D02*
X94880669Y-107600401D01*
D38*
X93083070Y-108763000D02*
X94245669Y-107600401D01*
D40*
X95394071Y-107047801D02*
X95394071Y-107086999D01*
D38*
X94245669Y-107600401D02*
X94841471Y-107600401D01*
D36*
X95394071Y-106832999D02*
X95394071Y-107047801D01*
D38*
X93908570Y-109969500D02*
X94988070Y-108890000D01*
D36*
X101211070Y-110795000D02*
X101211070Y-111496000D01*
X99506070Y-109090000D02*
X101211070Y-110795000D01*
X96979069Y-108340999D02*
X96788569Y-108531499D01*
D38*
X96979069Y-108423001D02*
X96979069Y-108340999D01*
X96512070Y-108890000D02*
X96702570Y-108699500D01*
D37*
X100764070Y-111496000D02*
X101211070Y-111496000D01*
D38*
X90924070Y-110795000D02*
X91749570Y-109969500D01*
D42*
X97783070Y-113843000D02*
X98671070Y-114731000D01*
X98417070Y-113843000D02*
X98671070Y-113589000D01*
D37*
X98671070Y-113589000D02*
X100764070Y-111496000D01*
D36*
X96788569Y-108531499D02*
X96684068Y-108636000D01*
D42*
X92503069Y-113074999D02*
X92503069Y-113471001D01*
D38*
X96702570Y-108699500D02*
X96979069Y-108423001D01*
D42*
X90924070Y-111496000D02*
X92503069Y-113074999D01*
D36*
X97106069Y-107293000D02*
X97106069Y-108213999D01*
D37*
X98671070Y-114731000D02*
X98671070Y-113589000D01*
D38*
X90924070Y-111496000D02*
X90924070Y-110795000D01*
X91749570Y-109969500D02*
X93908570Y-109969500D01*
D36*
X99106070Y-109198000D02*
X101211070Y-111303000D01*
X97106069Y-108213999D02*
X96979069Y-108340999D01*
D42*
X92503069Y-113471001D02*
X92875068Y-113843000D01*
D38*
X94988070Y-108890000D02*
X96512070Y-108890000D01*
D36*
X99506070Y-107293000D02*
X99506070Y-109090000D01*
D42*
X92875068Y-113843000D02*
X97783070Y-113843000D01*
D36*
X99106070Y-107293000D02*
X99106070Y-109198000D01*
D42*
X97783070Y-113843000D02*
X98417070Y-113843000D01*
D38*
X91620070Y-106604000D02*
X93662268Y-106604000D01*
D36*
X96331070Y-105718000D02*
X94731070Y-105718000D01*
D38*
X88060672Y-108764000D02*
X89339662Y-107485010D01*
X87622070Y-108764000D02*
X88060672Y-108764000D01*
D36*
X94731070Y-105718000D02*
X94353070Y-106096000D01*
X94444471Y-106004599D02*
X94731070Y-105718000D01*
D40*
X93845070Y-106604000D02*
X94353070Y-106096000D01*
D38*
X90485060Y-107485010D02*
X91620070Y-106350000D01*
D40*
X91620070Y-106604000D02*
X93845070Y-106604000D01*
D38*
X89339662Y-107485010D02*
X90485060Y-107485010D01*
D36*
X94153070Y-104118000D02*
X93845070Y-103810000D01*
D38*
X88264060Y-102278010D02*
X88121080Y-102420990D01*
X87622070Y-102920000D02*
X88121080Y-102420990D01*
X90342080Y-102278010D02*
X88264060Y-102278010D01*
D36*
X94153070Y-104118000D02*
X96331070Y-104118000D01*
D38*
X93337070Y-103302000D02*
X93845070Y-103810000D01*
X91620070Y-103302000D02*
X93337070Y-103302000D01*
X91620070Y-103556000D02*
X90342080Y-102278010D01*
D40*
X101794071Y-98853839D02*
X101794071Y-97765999D01*
D39*
X98163070Y-100127000D02*
X98163070Y-98984000D01*
D40*
X95331519Y-102518001D02*
X95402230Y-102518001D01*
D38*
X98163070Y-99619000D02*
X98163070Y-98730000D01*
D36*
X97906070Y-101343000D02*
X97906070Y-102918000D01*
X96331070Y-102918000D02*
X95802229Y-102918000D01*
X95802229Y-102918000D02*
X95402230Y-102518001D01*
X104005070Y-105334000D02*
X104259070Y-105588000D01*
D40*
X101084070Y-99563840D02*
X101794071Y-98853839D01*
D37*
X98736070Y-96886000D02*
X98544070Y-97078000D01*
D39*
X97906070Y-100632000D02*
X97906070Y-101343000D01*
D42*
X102822070Y-97541000D02*
X102822070Y-97180000D01*
D36*
X102719071Y-105318001D02*
X102735070Y-105334000D01*
D42*
X98163070Y-98222000D02*
X98163070Y-97459000D01*
D36*
X102281070Y-105318001D02*
X102719071Y-105318001D01*
X98163070Y-98984000D02*
X98163070Y-98730000D01*
D37*
X101653070Y-96886000D02*
X103116070Y-96886000D01*
D36*
X100306071Y-101343000D02*
X100306071Y-100396999D01*
D39*
X97906070Y-100384000D02*
X97906070Y-100632000D01*
D37*
X100830070Y-96886000D02*
X98736070Y-96886000D01*
D40*
X94608327Y-101794809D02*
X95331519Y-102518001D01*
X101794071Y-97027001D02*
X101653070Y-96886000D01*
X101084070Y-99619000D02*
X101084070Y-99563840D01*
D38*
X106992070Y-105588000D02*
X104228561Y-105588000D01*
X101794071Y-97765999D02*
X101794071Y-97027001D01*
D36*
X96331070Y-102518001D02*
X95402230Y-102518001D01*
D40*
X94608327Y-101649743D02*
X94608327Y-101794809D01*
D42*
X103116070Y-96674000D02*
X102532070Y-96090000D01*
D36*
X98163070Y-98730000D02*
X98163070Y-98603000D01*
X98163070Y-99489947D02*
X98163070Y-99111000D01*
X98163070Y-99111000D02*
X98163070Y-98984000D01*
D40*
X98163070Y-99111000D02*
X98163070Y-98222000D01*
D36*
X98163070Y-100127000D02*
X98163070Y-99489947D01*
D38*
X104228561Y-105588000D02*
X105275070Y-105588000D01*
X98163070Y-100127000D02*
X98163070Y-99619000D01*
X98163070Y-98730000D02*
X98163070Y-97459000D01*
D42*
X98163070Y-97459000D02*
X98544070Y-97078000D01*
D39*
X97906070Y-100384000D02*
X98163070Y-100127000D01*
D36*
X102735070Y-105334000D02*
X104005070Y-105334000D01*
D38*
X104228561Y-105588000D02*
X104068570Y-105428009D01*
D36*
X100306071Y-100396999D02*
X101084070Y-99619000D01*
D42*
X103116070Y-96886000D02*
X103116070Y-96674000D01*
X102822070Y-97180000D02*
X103116070Y-96886000D01*
D37*
X100830070Y-96886000D02*
X101653070Y-96886000D01*
X93210070Y-96952000D02*
X93210070Y-96444000D01*
D39*
X96331070Y-102117999D02*
X95582069Y-102117999D01*
D38*
X95369070Y-101270000D02*
X95369070Y-100381000D01*
D42*
X95369070Y-100381000D02*
X92412070Y-97424000D01*
D40*
X95369070Y-101905000D02*
X95369070Y-101270000D01*
D39*
X95582069Y-102117999D02*
X95369070Y-101905000D01*
D37*
X95876070Y-93778000D02*
X98544070Y-93778000D01*
X93210070Y-96444000D02*
X95876070Y-93778000D01*
D40*
X98306069Y-108239001D02*
X98163070Y-108382000D01*
D37*
X96258070Y-110424000D02*
X97664070Y-110424000D01*
D40*
X98306069Y-108112001D02*
X98306069Y-108239001D01*
D42*
X97664070Y-108881000D02*
X97664070Y-109643000D01*
D37*
X98306069Y-111065999D02*
X98671070Y-111431000D01*
D38*
X97417069Y-110176999D02*
X97664070Y-110424000D01*
D42*
X96258070Y-110424000D02*
X96883070Y-110424000D01*
D40*
X98163070Y-108382000D02*
X98036070Y-108509000D01*
D42*
X97664070Y-109643000D02*
X97664070Y-110424000D01*
D38*
X98036070Y-108509000D02*
X97664070Y-108881000D01*
D37*
X94988070Y-111694000D02*
X96258070Y-110424000D01*
X97664070Y-110424000D02*
X98671070Y-111431000D01*
D42*
X96883070Y-110424000D02*
X97664070Y-109643000D01*
D36*
X98306069Y-107293000D02*
X98306069Y-108112001D01*
X99506070Y-100066000D02*
X99506070Y-101343000D01*
X100109731Y-98317659D02*
X100082070Y-98345320D01*
X100082070Y-98345320D02*
X100082070Y-99490000D01*
X80117800Y-88499937D02*
X78999937Y-88499937D01*
X76500000Y-90999874D02*
X76500000Y-94500000D01*
X78999937Y-88499937D02*
X76500000Y-90999874D01*
X100082070Y-99490000D02*
X99506070Y-100066000D01*
X76500000Y-94500000D02*
X76000000Y-95000000D01*
X100543012Y-99650942D02*
X99906069Y-100287885D01*
X82500252Y-87999811D02*
X84000000Y-86500063D01*
X99906069Y-100287885D02*
X99906069Y-101343000D01*
X79000000Y-87340985D02*
X79658826Y-87999811D01*
X79000000Y-86279900D02*
X79000000Y-87340985D01*
X84000000Y-86500063D02*
X85350000Y-86500063D01*
X79658826Y-87999811D02*
X80117800Y-87999811D01*
X80117800Y-87999811D02*
X82500252Y-87999811D01*
X100543012Y-98817053D02*
X100543012Y-99650942D01*
X76220100Y-83500000D02*
X79000000Y-86279900D01*
X101077318Y-98282747D02*
X100543012Y-98817053D01*
X75940000Y-83500000D02*
X76220100Y-83500000D01*
X97506071Y-98177001D02*
X97268070Y-97939000D01*
X97268070Y-97939000D02*
X97268070Y-97900765D01*
X97506071Y-101343000D02*
X97506071Y-98177001D01*
X102281070Y-106117999D02*
X103160485Y-106117999D01*
X104542486Y-107500000D02*
X105500000Y-107500000D01*
X103160485Y-106117999D02*
X104542486Y-107500000D01*
D40*
X122553970Y-96350000D02*
X114040000Y-87836030D01*
X114000000Y-83540000D02*
X114040000Y-83500000D01*
X114040000Y-87836030D02*
X114040000Y-83500000D01*
X123275000Y-96350000D02*
X122553970Y-96350000D01*
D36*
X105736065Y-104917999D02*
X102281070Y-104917999D01*
X106056501Y-104597563D02*
X105736065Y-104917999D01*
X105399069Y-99000000D02*
X105500000Y-99000000D01*
X102281070Y-102117999D02*
X105399069Y-99000000D01*
X98758070Y-100265999D02*
X98758070Y-98348002D01*
X98758070Y-98348002D02*
X99058070Y-98048002D01*
X98306069Y-101343000D02*
X98306069Y-100718000D01*
X98306069Y-100718000D02*
X98758070Y-100265999D01*
D38*
X95282070Y-97840000D02*
X96032070Y-97090000D01*
X86032070Y-95040000D02*
X86032070Y-95840000D01*
D42*
X112132070Y-99140000D02*
X112132070Y-100352500D01*
D38*
X113324030Y-99140000D02*
X112132070Y-99140000D01*
X95032070Y-97090000D02*
X95032070Y-97590000D01*
D42*
X96004070Y-97902000D02*
X96004070Y-99238000D01*
D39*
X103246070Y-102918000D02*
X103497070Y-102667000D01*
D38*
X106992070Y-101016000D02*
X105670014Y-101016000D01*
X94782070Y-97840000D02*
X95282070Y-97840000D01*
X114032070Y-99848040D02*
X113324030Y-99140000D01*
D40*
X97106069Y-100339999D02*
X96766070Y-100000000D01*
D38*
X94844070Y-97902000D02*
X94782070Y-97840000D01*
X96004070Y-97902000D02*
X94844070Y-97902000D01*
D42*
X98544070Y-116449000D02*
X95694070Y-116449000D01*
X106992070Y-98730000D02*
X106992070Y-95986865D01*
D39*
X102281070Y-102918000D02*
X103246070Y-102918000D01*
D38*
X96004070Y-97118000D02*
X96032070Y-97090000D01*
X86032070Y-95840000D02*
X86282070Y-96090000D01*
X114032070Y-100352500D02*
X114032070Y-99848040D01*
D39*
X97106069Y-101343000D02*
X97106069Y-100466999D01*
D42*
X96004070Y-99238000D02*
X96512070Y-99746000D01*
D38*
X105148070Y-101016000D02*
X106992070Y-101016000D01*
X86032070Y-95040000D02*
X86732070Y-95040000D01*
X95032070Y-97090000D02*
X96032070Y-97090000D01*
D42*
X109911865Y-95769795D02*
X106775000Y-95769795D01*
D38*
X106992070Y-98730000D02*
X106473219Y-98211149D01*
D42*
X99673070Y-116449000D02*
X99782070Y-116340000D01*
D38*
X106992070Y-101016000D02*
X106992070Y-98730000D01*
X95844070Y-97902000D02*
X95032070Y-97090000D01*
D42*
X106992070Y-95986865D02*
X106775000Y-95769795D01*
D38*
X103751070Y-102413000D02*
X105148070Y-101016000D01*
D42*
X112132070Y-97990000D02*
X109911865Y-95769795D01*
D38*
X96766070Y-100000000D02*
X96512070Y-99746000D01*
X106473219Y-98211149D02*
X106473219Y-97937557D01*
X96004070Y-97902000D02*
X96004070Y-97118000D01*
X86732070Y-95040000D02*
X87282070Y-95590000D01*
D39*
X97106069Y-100466999D02*
X97106069Y-100339999D01*
D42*
X98544070Y-116449000D02*
X99673070Y-116449000D01*
X112132070Y-97990000D02*
X112132070Y-99140000D01*
D38*
X95032070Y-97590000D02*
X94782070Y-97840000D01*
D39*
X103497070Y-102667000D02*
X103751070Y-102413000D01*
D36*
X87985063Y-85485063D02*
X90680000Y-88180000D01*
X96180000Y-88180000D02*
X100680000Y-92680000D01*
X83005063Y-85485063D02*
X87985063Y-85485063D01*
X111456356Y-92680000D02*
X116710000Y-97933644D01*
X100680000Y-92680000D02*
X111456356Y-92680000D01*
X116710000Y-100901096D02*
X121658904Y-105850000D01*
X90680000Y-88180000D02*
X96180000Y-88180000D01*
X81020000Y-83500000D02*
X83005063Y-85485063D01*
X121658904Y-105850000D02*
X123275000Y-105850000D01*
X116710000Y-97933644D02*
X116710000Y-100901096D01*
D38*
X112582008Y-105389938D02*
X112582008Y-109290062D01*
D36*
X82500000Y-90825000D02*
X81675315Y-90000315D01*
D38*
X76000000Y-100080000D02*
X77460000Y-100080000D01*
X82000000Y-101000000D02*
X81040000Y-100040000D01*
X112082070Y-104577500D02*
X114032070Y-102627500D01*
D36*
X100306071Y-107293000D02*
X100306071Y-108104264D01*
X100306071Y-108104264D02*
X101624807Y-109423000D01*
D38*
X112082070Y-109790000D02*
X112082070Y-110540000D01*
D36*
X82825000Y-90500000D02*
X82500000Y-90825000D01*
D38*
X81040000Y-100040000D02*
X76040000Y-100040000D01*
X76040000Y-100040000D02*
X76000000Y-100080000D01*
X84000000Y-93540000D02*
X84000000Y-90500000D01*
X112582008Y-109290062D02*
X112082070Y-109790000D01*
D36*
X84000000Y-90500000D02*
X82825000Y-90500000D01*
X81675315Y-90000315D02*
X80117800Y-90000315D01*
X101624807Y-109423000D02*
X102227070Y-109423000D01*
D38*
X77460000Y-100080000D02*
X84000000Y-93540000D01*
X112082070Y-110540000D02*
X110703536Y-111918534D01*
X112082070Y-104890000D02*
X112582008Y-105389938D01*
D40*
X111500000Y-85890000D02*
X111500000Y-83500000D01*
X123275000Y-96850000D02*
X122460000Y-96850000D01*
X122460000Y-96850000D02*
X111500000Y-85890000D01*
D36*
X80480000Y-85500000D02*
X80500000Y-85500000D01*
X80805063Y-85805063D02*
X87805063Y-85805063D01*
X100547452Y-93000000D02*
X111323808Y-93000000D01*
X116390000Y-98066192D02*
X116390000Y-101890000D01*
X90500000Y-88500000D02*
X96047452Y-88500000D01*
X116390000Y-101890000D02*
X121350000Y-106850000D01*
X80500000Y-85500000D02*
X80805063Y-85805063D01*
X87805063Y-85805063D02*
X90500000Y-88500000D01*
X121350000Y-106850000D02*
X123275000Y-106850000D01*
X96047452Y-88500000D02*
X100547452Y-93000000D01*
X78480000Y-83500000D02*
X80480000Y-85500000D01*
X111323808Y-93000000D02*
X116390000Y-98066192D01*
X96583356Y-87155000D02*
X92295000Y-87155000D01*
X111874712Y-91670000D02*
X101098356Y-91670000D01*
X123275000Y-104350000D02*
X121587260Y-104350000D01*
X121587260Y-104350000D02*
X117720000Y-100482740D01*
X101098356Y-91670000D02*
X96583356Y-87155000D01*
X92295000Y-87155000D02*
X88640000Y-83500000D01*
X117720000Y-97515288D02*
X111874712Y-91670000D01*
X117720000Y-100482740D02*
X117720000Y-97515288D01*
X112007260Y-91350000D02*
X101230904Y-91350000D01*
X121539808Y-103850000D02*
X118040000Y-100350192D01*
X101230904Y-91350000D02*
X96715904Y-86835000D01*
X118040000Y-100350192D02*
X118040000Y-97382740D01*
X96715904Y-86835000D02*
X94515000Y-86835000D01*
X118040000Y-97382740D02*
X112007260Y-91350000D01*
X94515000Y-86835000D02*
X91180000Y-83500000D01*
X123275000Y-103850000D02*
X121539808Y-103850000D01*
X93720000Y-83500000D02*
X93833452Y-83500000D01*
X118360000Y-97250192D02*
X118360000Y-100217644D01*
X112139808Y-91030000D02*
X118360000Y-97250192D01*
X93833452Y-83500000D02*
X101363452Y-91030000D01*
X101363452Y-91030000D02*
X112139808Y-91030000D01*
X118360000Y-100217644D02*
X121492356Y-103350000D01*
X121492356Y-103350000D02*
X123275000Y-103350000D01*
X112062356Y-90500000D02*
X103260000Y-90500000D01*
X121444904Y-102850000D02*
X118680000Y-100085096D01*
X118680000Y-100085096D02*
X118680000Y-97117644D01*
X123275000Y-102850000D02*
X121444904Y-102850000D01*
X103260000Y-90500000D02*
X96260000Y-83500000D01*
X118680000Y-97117644D02*
X112062356Y-90500000D01*
X112014904Y-90000000D02*
X119000000Y-96985096D01*
X121397452Y-102350000D02*
X123275000Y-102350000D01*
X119000000Y-96985096D02*
X119000000Y-99952548D01*
X105300000Y-90000000D02*
X112014904Y-90000000D01*
X98800000Y-83500000D02*
X105300000Y-90000000D01*
X119000000Y-99952548D02*
X121397452Y-102350000D01*
X107340000Y-89500000D02*
X101340000Y-83500000D01*
X123275000Y-101850000D02*
X121350000Y-101850000D01*
X121350000Y-101850000D02*
X119320000Y-99820000D01*
X119320000Y-99820000D02*
X119320000Y-96852548D01*
X111967452Y-89500000D02*
X107340000Y-89500000D01*
X119320000Y-96852548D02*
X111967452Y-89500000D01*
X111920000Y-89000000D02*
X109380000Y-89000000D01*
X109380000Y-89000000D02*
X103880000Y-83500000D01*
X121350000Y-101350000D02*
X119640000Y-99640000D01*
X123275000Y-101350000D02*
X121350000Y-101350000D01*
X119640000Y-96720000D02*
X111920000Y-89000000D01*
X119640000Y-99640000D02*
X119640000Y-96720000D01*
X119960000Y-96587452D02*
X106872548Y-83500000D01*
X106872548Y-83500000D02*
X106420000Y-83500000D01*
X119960000Y-99460000D02*
X119960000Y-96587452D01*
X123275000Y-100850000D02*
X121350000Y-100850000D01*
X121350000Y-100850000D02*
X119960000Y-99460000D01*
X82325063Y-89000063D02*
X80117800Y-89000063D01*
X79122998Y-89500189D02*
X80117800Y-89500189D01*
X79000000Y-94540000D02*
X79000000Y-91376813D01*
X78380000Y-90756813D02*
X78380000Y-90243187D01*
X76000000Y-97540000D02*
X79000000Y-94540000D01*
X78380000Y-90243187D02*
X79122998Y-89500189D01*
X79000000Y-91376813D02*
X78380000Y-90756813D01*
D39*
X87420063Y-84820063D02*
X86100000Y-83500000D01*
X90940452Y-87500000D02*
X88260515Y-84820063D01*
X123275000Y-104850000D02*
X121599356Y-104850000D01*
X117375000Y-97658192D02*
X111731808Y-92015000D01*
X117375000Y-100625644D02*
X117375000Y-97658192D01*
X111731808Y-92015000D02*
X100955452Y-92015000D01*
X100955452Y-92015000D02*
X96440452Y-87500000D01*
X121599356Y-104850000D02*
X117375000Y-100625644D01*
D36*
X86452548Y-83500000D02*
X86100000Y-83500000D01*
D39*
X88260515Y-84820063D02*
X87420063Y-84820063D01*
X96440452Y-87500000D02*
X90940452Y-87500000D01*
D36*
X101602069Y-108382000D02*
X103240070Y-108382000D01*
X101106069Y-107293000D02*
X101106069Y-107886000D01*
D40*
X103240070Y-108382000D02*
X103324070Y-108382000D01*
D36*
X101106069Y-107886000D02*
X101602069Y-108382000D01*
D40*
X103324070Y-108382000D02*
X106363270Y-111421200D01*
X106363270Y-111421200D02*
X106363270Y-113111600D01*
X108395270Y-113111600D02*
X106363270Y-113111600D01*
D39*
X93469452Y-104191000D02*
X93772070Y-104493618D01*
X92883070Y-104191000D02*
X93469452Y-104191000D01*
D40*
X86289070Y-104572000D02*
X84637070Y-104572000D01*
D36*
X96331070Y-104518000D02*
X93772070Y-104518000D01*
D40*
X86345727Y-104572000D02*
X86911346Y-105137619D01*
X86289070Y-106833000D02*
X87032070Y-106090000D01*
D36*
X96331070Y-105318001D02*
X93965768Y-105318001D01*
D40*
X84637070Y-106858000D02*
X86289070Y-106858000D01*
D36*
X93965768Y-105318001D02*
X93596775Y-105686994D01*
X123500000Y-83500000D02*
X124200000Y-83500000D01*
X123275000Y-95350000D02*
X122136818Y-95350000D01*
X122136818Y-95350000D02*
X120380000Y-93593182D01*
X120380000Y-93593182D02*
X120380000Y-86620000D01*
X120380000Y-86620000D02*
X123500000Y-83500000D01*
G04 #@! TA.AperFunction,Conductor*
G36*
X110292700Y-97110002D02*
G01*
X110313674Y-97126905D01*
X110995165Y-97808396D01*
X111029191Y-97870708D01*
X111032070Y-97897491D01*
X111032070Y-106090000D01*
X111282070Y-106090000D01*
X111495165Y-106303095D01*
X111529191Y-106365407D01*
X111532070Y-106392190D01*
X111532070Y-109705471D01*
X111531570Y-109713101D01*
X111531570Y-110259785D01*
X111511568Y-110327906D01*
X111494669Y-110348875D01*
X111063547Y-110779998D01*
X110652649Y-111190896D01*
X110593708Y-111224139D01*
X110453313Y-111258743D01*
X110453310Y-111258744D01*
X110302681Y-111337801D01*
X110296409Y-111342131D01*
X110294499Y-111339364D01*
X110243826Y-111363100D01*
X110173457Y-111353676D01*
X110135597Y-111327659D01*
X109662428Y-110854490D01*
X109662426Y-110854489D01*
X109662424Y-110854487D01*
X109536900Y-110782016D01*
X109529370Y-110779999D01*
X109529369Y-110779998D01*
X109456242Y-110760404D01*
X109396888Y-110744500D01*
X109396886Y-110744500D01*
X108658570Y-110744500D01*
X108590449Y-110724498D01*
X108543956Y-110670842D01*
X108532570Y-110618500D01*
X108532570Y-108791527D01*
X108532570Y-108791525D01*
X108495054Y-108651515D01*
X108422580Y-108525985D01*
X107975017Y-108078422D01*
X107940994Y-108016112D01*
X107938119Y-107988247D01*
X107941662Y-107577259D01*
X107962249Y-107509318D01*
X107978549Y-107489267D01*
X108183089Y-107284729D01*
X108239107Y-107187703D01*
X108268104Y-107079484D01*
X108268104Y-106967447D01*
X108268104Y-103103132D01*
X108284985Y-103040132D01*
X108328065Y-102965515D01*
X108338573Y-102947315D01*
X108367570Y-102839097D01*
X108367570Y-102727060D01*
X108338573Y-102618841D01*
X108313610Y-102575603D01*
X108282557Y-102521818D01*
X108282549Y-102521808D01*
X108203339Y-102442598D01*
X108203329Y-102442590D01*
X108134046Y-102402590D01*
X108107951Y-102382566D01*
X108024838Y-102299453D01*
X107990812Y-102237141D01*
X107987938Y-102209272D01*
X108027312Y-97641850D01*
X108047900Y-97573907D01*
X108064597Y-97553460D01*
X108495234Y-97126521D01*
X108557692Y-97092765D01*
X108583944Y-97090000D01*
X110224579Y-97090000D01*
X110292700Y-97110002D01*
G37*
G04 #@! TD.AperFunction*
G04 #@! TA.AperFunction,Conductor*
G36*
X103701476Y-112610002D02*
G01*
X103722450Y-112626905D01*
X104134665Y-113039120D01*
X104168691Y-113101432D01*
X104171570Y-113128215D01*
X104171570Y-114581706D01*
X104161979Y-114629925D01*
X104099698Y-114780283D01*
X104072384Y-114821159D01*
X101674841Y-117218702D01*
X101633964Y-117246016D01*
X101480276Y-117309676D01*
X101409687Y-117317265D01*
X101348026Y-117287153D01*
X101026537Y-116999407D01*
X100989118Y-116939072D01*
X100985340Y-116919435D01*
X100837287Y-115586946D01*
X100837284Y-115586932D01*
X100782070Y-115090000D01*
X100231404Y-113254449D01*
X100230989Y-113183456D01*
X100262993Y-113129154D01*
X100765244Y-112626904D01*
X100827556Y-112592879D01*
X100854339Y-112590000D01*
X103633355Y-112590000D01*
X103701476Y-112610002D01*
G37*
G04 #@! TD.AperFunction*
G04 #@! TA.AperFunction,Conductor*
G36*
X92433753Y-114360002D02*
G01*
X92442746Y-114366549D01*
X92514664Y-114414602D01*
X92555099Y-114441620D01*
X92678032Y-114492540D01*
X92808537Y-114518500D01*
X97158380Y-114518500D01*
X97226501Y-114538502D01*
X97247475Y-114555405D01*
X97495165Y-114803095D01*
X97529191Y-114865407D01*
X97532070Y-114892190D01*
X97532070Y-115590000D01*
X99729880Y-115590000D01*
X99798001Y-115610002D01*
X99818975Y-115626905D01*
X100245165Y-116053095D01*
X100279191Y-116115407D01*
X100282070Y-116142190D01*
X100282070Y-117037810D01*
X100262068Y-117105931D01*
X100245165Y-117126905D01*
X99818975Y-117553095D01*
X99756663Y-117587121D01*
X99729880Y-117590000D01*
X99252879Y-117590000D01*
X99206656Y-117581215D01*
X99178211Y-117569998D01*
X99150633Y-117559122D01*
X99062175Y-117548500D01*
X99062172Y-117548500D01*
X98025968Y-117548500D01*
X98025964Y-117548500D01*
X97937506Y-117559122D01*
X97898471Y-117574516D01*
X97881483Y-117581215D01*
X97835261Y-117590000D01*
X91525118Y-117590000D01*
X91456997Y-117569998D01*
X91429307Y-117545830D01*
X91381829Y-117490240D01*
X91196252Y-117331743D01*
X91196250Y-117331742D01*
X91196249Y-117331741D01*
X90988159Y-117204223D01*
X90899397Y-117167457D01*
X90859851Y-117151076D01*
X90804571Y-117106527D01*
X90782150Y-117039164D01*
X90782070Y-117034667D01*
X90782070Y-114892190D01*
X90802072Y-114824069D01*
X90818975Y-114803095D01*
X91245165Y-114376905D01*
X91307477Y-114342879D01*
X91334260Y-114340000D01*
X92365632Y-114340000D01*
X92433753Y-114360002D01*
G37*
G04 #@! TD.AperFunction*
G04 #@! TA.AperFunction,Conductor*
G36*
X93198001Y-89110002D02*
G01*
X93218975Y-89126905D01*
X93645165Y-89553095D01*
X93679191Y-89615407D01*
X93682070Y-89642190D01*
X93682070Y-91090000D01*
X95729880Y-91090000D01*
X95798001Y-91110002D01*
X95818975Y-91126905D01*
X96221338Y-91529268D01*
X96255364Y-91591580D01*
X96250299Y-91662395D01*
X96247739Y-91668727D01*
X95926177Y-92406137D01*
X95896418Y-92448105D01*
X93865945Y-94333544D01*
X93826263Y-94358493D01*
X93004273Y-94681281D01*
X92958218Y-94690000D01*
X88234260Y-94690000D01*
X88166139Y-94669998D01*
X88145165Y-94653095D01*
X87718975Y-94226905D01*
X87684949Y-94164593D01*
X87682070Y-94137810D01*
X87682070Y-89642190D01*
X87702072Y-89574069D01*
X87718975Y-89553095D01*
X88145165Y-89126905D01*
X88207477Y-89092879D01*
X88234260Y-89090000D01*
X93129880Y-89090000D01*
X93198001Y-89110002D01*
G37*
G04 #@! TD.AperFunction*
M02*
