M48
; DRILL file {KiCad 8.0.8} date 2025-03-14T23:09:52+0100
; FORMAT={-:-/ absolute / inch / decimal}
; #@! TF.CreationDate,2025-03-14T23:09:52+01:00
; #@! TF.GenerationSoftware,Kicad,Pcbnew,8.0.8
; #@! TF.FileFunction,Plated,1,4,PTH
FMAT,2
INCH
; #@! TA.AperFunction,Plated,PTH,ComponentDrill
T1C0.0100
; #@! TA.AperFunction,Plated,PTH,ViaDrill
T2C0.0157
; #@! TA.AperFunction,Plated,PTH,ComponentDrill
T3C0.0394
%
G90
G05
T1
X3.8477Y-4.045
X3.8477Y-4.076
X3.8477Y-4.107
X3.8477Y-4.138
X3.8477Y-4.169
X3.8787Y-4.045
X3.8787Y-4.076
X3.8787Y-4.107
X3.8787Y-4.138
X3.8787Y-4.169
X3.9097Y-4.045
X3.9097Y-4.076
X3.9097Y-4.107
X3.9097Y-4.138
X3.9097Y-4.169
X3.9407Y-4.045
X3.9407Y-4.076
X3.9407Y-4.107
X3.9407Y-4.138
X3.9407Y-4.169
X3.9717Y-4.045
X3.9717Y-4.076
X3.9717Y-4.107
X3.9717Y-4.138
X3.9717Y-4.169
T2
X3.1102Y-3.563
X3.1371Y-4.039
X3.141Y-4.285
X3.2283Y-3.9764
X3.2887Y-4.1472
X3.2887Y-4.2358
X3.3071Y-3.4055
X3.3071Y-3.4646
X3.3071Y-3.563
X3.3576Y-3.6256
X3.3969Y-3.7831
X3.4068Y-3.6256
X3.4217Y-4.1393
X3.4265Y-4.1768
X3.4363Y-3.7634
X3.4363Y-4.0917
X3.456Y-4.2423
X3.4678Y-3.5941
X3.4757Y-4.6197
X3.4843Y-3.4646
X3.4913Y-4.0824
X3.4914Y-3.5469
X3.4914Y-3.6413
X3.5249Y-4.4524
X3.5249Y-4.4917
X3.5323Y-4.13
X3.5334Y-3.6496
X3.5387Y-3.5232
X3.5859Y-3.5469
X3.5938Y-4.5311
X3.5938Y-4.5705
X3.6253Y-3.5232
X3.643Y-4.5311
X3.643Y-4.5705
X3.643Y-4.6098
X3.6527Y-4.1411
X3.6568Y-4.102
X3.6646Y-3.5469
X3.6849Y-4.1609
X3.6922Y-4.6197
X3.7228Y-4.0719
X3.7247Y-4.002
X3.7297Y-4.202
X3.7316Y-3.852
X3.7355Y-3.6492
X3.7414Y-3.8224
X3.7414Y-4.6197
X3.7591Y-3.602
X3.7808Y-3.8224
X3.7912Y-3.7345
X3.8005Y-4.6197
X3.8202Y-4.6591
X3.8295Y-3.8544
X3.83Y-4.5409
X3.83Y-4.5902
X3.8636Y-3.7396
X3.8694Y-3.7732
X3.8838Y-4.3179
X3.8999Y-3.8602
X3.9136Y-3.902
X3.9284Y-4.5803
X3.9284Y-4.6591
X3.9413Y-3.8708
X3.9776Y-4.5114
X3.9794Y-3.8694
X3.9973Y-4.5902
X4.0113Y-3.7396
X4.017Y-4.5508
X4.0202Y-3.7018
X4.0246Y-4.4644
X4.0247Y-4.308
X4.0297Y-3.947
X4.0367Y-3.7831
X4.0446Y-4.2371
X4.0481Y-3.8402
X4.0487Y-3.7004
X4.0528Y-4.5114
X4.1447Y-4.0989
X4.1447Y-4.157
X4.1535Y-3.8976
X4.1535Y-4.2323
X4.1568Y-3.7043
X4.1597Y-4.0351
X4.1602Y-3.977
X4.1683Y-3.7492
X4.1722Y-3.8224
X4.1755Y-4.118
X4.1919Y-3.8558
X4.2037Y-3.7705
X4.2126Y-4.7047
X4.2237Y-4.5327
X4.2273Y-4.389
X4.3024Y-4.5744
X4.3067Y-4.2022
X4.3114Y-4.1159
X4.3201Y-4.5016
X4.3305Y-3.9955
X4.3412Y-4.1288
X4.3418Y-3.852
X4.3418Y-3.9406
X4.3418Y-4.2063
X4.3445Y-4.2802
X4.3515Y-4.0194
X4.3584Y-4.4062
X4.3734Y-4.4422
X4.3774Y-4.6136
X4.3876Y-4.252
X4.3898Y-4.7441
X4.3898Y-4.7835
X4.452Y-3.9839
X4.5079Y-4.4094
X4.5293Y-4.1047
X4.5308Y-3.8657
X4.5669Y-4.2126
X4.5864Y-4.3756
X4.6457Y-4.626
X4.6457Y-4.7589
X4.7047Y-4.685
X4.7559Y-4.4311
X4.7835Y-3.563
X4.7835Y-3.937
X4.8094Y-3.7203
X4.9016Y-3.7205
X4.9213Y-3.8386
X4.9409Y-4.2661
T3
X2.9898Y-3.2874
X2.9921Y-3.7402
X2.9921Y-3.8402
X2.9921Y-3.9402
X2.9921Y-4.0402
X2.9921Y-4.1402
X3.0898Y-3.2874
X3.1898Y-3.2874
X3.2898Y-3.2874
X3.3898Y-3.2874
X3.4898Y-3.2874
X3.5898Y-3.2874
X3.6898Y-3.2874
X3.7898Y-3.2874
X3.8898Y-3.2874
X3.9898Y-3.2874
X4.0898Y-3.2874
X4.1898Y-3.2874
X4.2898Y-3.2874
X4.3898Y-3.2874
X4.4898Y-3.2874
X4.5898Y-3.2874
X4.6898Y-3.2874
X4.7898Y-3.2874
X4.8898Y-3.2874
M30
