G04 #@! TF.GenerationSoftware,KiCad,Pcbnew,8.0.8*
G04 #@! TF.CreationDate,2025-03-14T23:10:00+01:00*
G04 #@! TF.ProjectId,epdiy-v7-raw,65706469-792d-4763-972d-7261772e6b69,1.1*
G04 #@! TF.SameCoordinates,Original*
G04 #@! TF.FileFunction,Copper,L3,Inr*
G04 #@! TF.FilePolarity,Positive*
%FSLAX46Y46*%
G04 Gerber Fmt 4.6, Leading zero omitted, Abs format (unit mm)*
G04 Created by KiCad (PCBNEW 8.0.8) date 2025-03-14 23:10:00*
%MOMM*%
%LPD*%
G01*
G04 APERTURE LIST*
G04 #@! TA.AperFunction,ComponentPad*
%ADD10C,0.508000*%
G04 #@! TD*
G04 #@! TA.AperFunction,ComponentPad*
%ADD11R,1.700000X1.700000*%
G04 #@! TD*
G04 #@! TA.AperFunction,ComponentPad*
%ADD12O,1.700000X1.700000*%
G04 #@! TD*
G04 #@! TA.AperFunction,ViaPad*
%ADD13C,0.800000*%
G04 #@! TD*
G04 #@! TA.AperFunction,Conductor*
%ADD14C,0.500000*%
G04 #@! TD*
G04 #@! TA.AperFunction,Conductor*
%ADD15C,1.000000*%
G04 #@! TD*
G04 APERTURE END LIST*
D10*
X100880870Y-105892800D03*
X100880870Y-105105400D03*
X100880870Y-104318000D03*
X100880870Y-103530600D03*
X100880870Y-102743200D03*
X100093470Y-105892800D03*
X100093470Y-105105400D03*
X100093470Y-104318000D03*
X100093470Y-103530600D03*
X100093470Y-102743200D03*
X99306070Y-105892800D03*
X99306070Y-105105400D03*
X99306070Y-104318000D03*
X99306070Y-103530600D03*
X99306070Y-102743200D03*
X98518670Y-105892800D03*
X98518670Y-105105400D03*
X98518670Y-104318000D03*
X98518670Y-103530600D03*
X98518670Y-102743200D03*
X97731270Y-105892800D03*
X97731270Y-105105400D03*
X97731270Y-104318000D03*
X97731270Y-103530600D03*
X97731270Y-102743200D03*
D11*
X75940000Y-83500000D03*
D12*
X78480000Y-83500000D03*
X81020000Y-83500000D03*
X83560000Y-83500000D03*
X86100000Y-83500000D03*
X88640000Y-83500000D03*
X91180000Y-83500000D03*
X93720000Y-83500000D03*
X96260000Y-83500000D03*
X98800000Y-83500000D03*
X101340000Y-83500000D03*
X103880000Y-83500000D03*
X106420000Y-83500000D03*
X108960000Y-83500000D03*
X111500000Y-83500000D03*
X114040000Y-83500000D03*
X116580000Y-83500000D03*
X119120000Y-83500000D03*
X121660000Y-83500000D03*
X124200000Y-83500000D03*
D11*
X76000000Y-95000000D03*
D12*
X76000000Y-97540000D03*
X76000000Y-100080000D03*
X76000000Y-102620000D03*
X76000000Y-105160000D03*
D13*
X124500000Y-94500000D03*
X102941069Y-114590000D03*
X110282070Y-106840000D03*
X125000000Y-97500000D03*
X95482070Y-91490000D03*
X110528866Y-102093204D03*
X105275070Y-104112000D03*
X102113171Y-94025000D03*
X99782070Y-118340000D03*
X102354070Y-100254000D03*
X109509657Y-104545000D03*
X93082070Y-90090000D03*
X105656070Y-102492000D03*
X102837153Y-93990910D03*
X113082070Y-101190000D03*
X110282070Y-97840000D03*
X88682070Y-90090000D03*
X79682070Y-102590000D03*
X101532070Y-116590000D03*
X88678756Y-103694099D03*
X92082070Y-89490000D03*
X89532070Y-113090000D03*
X91082070Y-90090000D03*
X111444043Y-108001973D03*
X125500000Y-108359521D03*
X102733813Y-107621257D03*
X89720070Y-104902000D03*
X102226070Y-113396000D03*
X115043039Y-104259394D03*
X89749377Y-92700000D03*
X107282070Y-115130000D03*
X92778847Y-105184403D03*
X88682070Y-92490000D03*
X101032070Y-114590000D03*
X110266558Y-104870863D03*
X86532070Y-92090000D03*
X89532070Y-114090000D03*
X111500000Y-121500000D03*
X98649351Y-109674663D03*
X83532070Y-107590000D03*
X79782070Y-108840000D03*
X94882070Y-92690000D03*
X114500000Y-112000000D03*
X102032070Y-115590000D03*
X98282070Y-95840000D03*
X101886070Y-94986000D03*
X105875283Y-95228486D03*
X89882070Y-89490000D03*
X96297604Y-94855534D03*
X115082070Y-98190000D03*
X98136070Y-94986000D03*
X88082070Y-91290000D03*
X118000000Y-117500000D03*
X97032070Y-118340000D03*
X85282070Y-92090000D03*
X109390000Y-106735000D03*
X110282070Y-100090000D03*
X109995331Y-101484669D03*
X83532070Y-105340000D03*
X105582070Y-94090000D03*
X110351505Y-108718325D03*
X79000000Y-90500000D03*
X116000000Y-107000000D03*
X94734070Y-106731000D03*
X87782070Y-107753998D03*
X121500000Y-90500000D03*
X87282070Y-103930002D03*
X94558816Y-103427029D03*
X111186035Y-117186035D03*
X111085184Y-112832862D03*
X120800000Y-112550000D03*
X118000272Y-120877000D03*
X109282070Y-116190000D03*
X119500000Y-119000000D03*
X122158631Y-94495000D03*
X88282070Y-117340000D03*
X99406060Y-99111000D03*
X121500000Y-100000000D03*
X111500000Y-120500000D03*
X105975000Y-97090000D03*
X107000000Y-119500000D03*
X107373605Y-111480500D03*
X116495000Y-111140000D03*
X109730965Y-114340000D03*
X102532070Y-96090000D03*
X105275070Y-105588000D03*
X94608327Y-101649743D03*
X102822070Y-97541000D03*
X88500000Y-88000063D03*
X100109731Y-98317659D03*
X84000000Y-86500063D03*
X101077318Y-98282747D03*
X97268070Y-97900765D03*
X105500000Y-107500000D03*
X106056501Y-104597563D03*
X105500000Y-99000000D03*
X99058070Y-98048002D03*
X106775000Y-95769795D03*
X105670014Y-101016000D03*
X99782070Y-116340000D03*
X95032070Y-97090000D03*
X91282070Y-115090000D03*
X106473219Y-97937557D03*
X93782070Y-117340000D03*
X92532070Y-117090000D03*
X94782070Y-97840000D03*
X92532070Y-115090000D03*
X96532070Y-117340000D03*
X92532070Y-116090000D03*
X97282070Y-116590000D03*
X86282070Y-96090000D03*
X96032070Y-97090000D03*
X87282070Y-95590000D03*
X91282070Y-116090000D03*
X97282070Y-115340000D03*
X95032070Y-117340000D03*
X102227070Y-109423000D03*
X110703536Y-111918534D03*
X84000000Y-90500000D03*
X82000000Y-101000000D03*
X84000000Y-88000063D03*
X92883070Y-104191000D03*
X86911346Y-105137619D03*
X87032070Y-106090000D03*
X93596775Y-105686994D03*
D14*
X120460000Y-98960000D02*
X107833605Y-98960000D01*
X105975000Y-97090000D02*
X106840000Y-97090000D01*
X106840000Y-97090000D02*
X107373605Y-97623605D01*
X107373605Y-98500000D02*
X107373605Y-97623605D01*
X107373605Y-111480500D02*
X107373605Y-98500000D01*
X107833605Y-98960000D02*
X107373605Y-98500000D01*
X121500000Y-100000000D02*
X120460000Y-98960000D01*
D15*
X86282070Y-96090000D02*
X87782070Y-96090000D01*
X87282070Y-95590000D02*
X89532070Y-97840000D01*
X88532070Y-95590000D02*
X87282070Y-95590000D01*
X89532070Y-97840000D02*
X94782070Y-97840000D01*
X90032070Y-97090000D02*
X88532070Y-95590000D01*
X95032070Y-97090000D02*
X90032070Y-97090000D01*
X87782070Y-96090000D02*
X89532070Y-97840000D01*
G04 #@! TA.AperFunction,Conductor*
G36*
X97532677Y-95610002D02*
G01*
X97579170Y-95663658D01*
X97589637Y-95731188D01*
X97576425Y-95839997D01*
X97576425Y-95840002D01*
X97596929Y-96008871D01*
X97657249Y-96167925D01*
X97657251Y-96167929D01*
X97753886Y-96307928D01*
X97753888Y-96307930D01*
X97878051Y-96417929D01*
X97881218Y-96420734D01*
X98031845Y-96499790D01*
X98031846Y-96499790D01*
X98031848Y-96499791D01*
X98111804Y-96519498D01*
X98197014Y-96540500D01*
X98197017Y-96540500D01*
X98367123Y-96540500D01*
X98367126Y-96540500D01*
X98532295Y-96499790D01*
X98682922Y-96420734D01*
X98810253Y-96307929D01*
X98906888Y-96167930D01*
X98967210Y-96008872D01*
X98981853Y-95888275D01*
X98987715Y-95840002D01*
X98987715Y-95839997D01*
X98974503Y-95731188D01*
X98986148Y-95661153D01*
X99033808Y-95608531D01*
X99099584Y-95590000D01*
X101498491Y-95590000D01*
X101557046Y-95604432D01*
X101635845Y-95645790D01*
X101635846Y-95645790D01*
X101635848Y-95645791D01*
X101698176Y-95661153D01*
X101786287Y-95682870D01*
X101847642Y-95718593D01*
X101879943Y-95781816D01*
X101873947Y-95849888D01*
X101846928Y-95921130D01*
X101826425Y-96089997D01*
X101826425Y-96090002D01*
X101846929Y-96258871D01*
X101907249Y-96417925D01*
X101907251Y-96417929D01*
X102003886Y-96557928D01*
X102076288Y-96622071D01*
X102131218Y-96670734D01*
X102281845Y-96749790D01*
X102343651Y-96765023D01*
X102405005Y-96800745D01*
X102437307Y-96863968D01*
X102430301Y-96934618D01*
X102397052Y-96981674D01*
X102293886Y-97073072D01*
X102197251Y-97213070D01*
X102197249Y-97213074D01*
X102136929Y-97372128D01*
X102116425Y-97540997D01*
X102116425Y-97541002D01*
X102136929Y-97709871D01*
X102197249Y-97868925D01*
X102197251Y-97868929D01*
X102256539Y-97954821D01*
X102293887Y-98008929D01*
X102421218Y-98121734D01*
X102571845Y-98200790D01*
X102571846Y-98200790D01*
X102571848Y-98200791D01*
X102685041Y-98228690D01*
X102737014Y-98241500D01*
X102737017Y-98241500D01*
X102907123Y-98241500D01*
X102907126Y-98241500D01*
X103072295Y-98200790D01*
X103222922Y-98121734D01*
X103350253Y-98008929D01*
X103446888Y-97868930D01*
X103507210Y-97709872D01*
X103523849Y-97572839D01*
X103527715Y-97541002D01*
X103527715Y-97540997D01*
X103507210Y-97372128D01*
X103446890Y-97213074D01*
X103446888Y-97213070D01*
X103350253Y-97073071D01*
X103350251Y-97073069D01*
X103222927Y-96960270D01*
X103222921Y-96960265D01*
X103072295Y-96881210D01*
X103072291Y-96881208D01*
X103010488Y-96865976D01*
X102949133Y-96830253D01*
X102916832Y-96767030D01*
X102923839Y-96696380D01*
X102957086Y-96649326D01*
X103060253Y-96557929D01*
X103156888Y-96417930D01*
X103217210Y-96258872D01*
X103224045Y-96202581D01*
X103237715Y-96090002D01*
X103237715Y-96089997D01*
X103217210Y-95921128D01*
X103156361Y-95760680D01*
X103150907Y-95689893D01*
X103184590Y-95627395D01*
X103246714Y-95593028D01*
X103274173Y-95590000D01*
X105207517Y-95590000D01*
X105275638Y-95610002D01*
X105311213Y-95644424D01*
X105329645Y-95671128D01*
X105347100Y-95696415D01*
X105474431Y-95809220D01*
X105625058Y-95888276D01*
X105625059Y-95888276D01*
X105625061Y-95888277D01*
X105781744Y-95926895D01*
X105790227Y-95928986D01*
X105790230Y-95928986D01*
X105960336Y-95928986D01*
X105960339Y-95928986D01*
X106125508Y-95888276D01*
X106276135Y-95809220D01*
X106403466Y-95696415D01*
X106439353Y-95644423D01*
X106494512Y-95599724D01*
X106543049Y-95590000D01*
X107729880Y-95590000D01*
X107798001Y-95610002D01*
X107818975Y-95626905D01*
X108245165Y-96053095D01*
X108279191Y-96115407D01*
X108282070Y-96142190D01*
X108282070Y-98283500D01*
X108262068Y-98351621D01*
X108208412Y-98398114D01*
X108156070Y-98409500D01*
X108113820Y-98409500D01*
X108045699Y-98389498D01*
X108024725Y-98372595D01*
X107961010Y-98308880D01*
X107926984Y-98246568D01*
X107924105Y-98219785D01*
X107924105Y-97551131D01*
X107921391Y-97541002D01*
X107886589Y-97411120D01*
X107864077Y-97372128D01*
X107814115Y-97285590D01*
X107814112Y-97285587D01*
X107814109Y-97285583D01*
X107178021Y-96649495D01*
X107178011Y-96649487D01*
X107052486Y-96577016D01*
X106981253Y-96557928D01*
X106981253Y-96557929D01*
X106958326Y-96551786D01*
X106912475Y-96539500D01*
X106912473Y-96539500D01*
X106457765Y-96539500D01*
X106389644Y-96519498D01*
X106379011Y-96511446D01*
X106375851Y-96509265D01*
X106225225Y-96430210D01*
X106225221Y-96430208D01*
X106060059Y-96389500D01*
X106060056Y-96389500D01*
X105889944Y-96389500D01*
X105889940Y-96389500D01*
X105724778Y-96430208D01*
X105724774Y-96430210D01*
X105574148Y-96509265D01*
X105574142Y-96509270D01*
X105446818Y-96622069D01*
X105446816Y-96622071D01*
X105350181Y-96762070D01*
X105350179Y-96762074D01*
X105289859Y-96921128D01*
X105269355Y-97089997D01*
X105269355Y-97090002D01*
X105289859Y-97258871D01*
X105350179Y-97417925D01*
X105350181Y-97417929D01*
X105446816Y-97557928D01*
X105446818Y-97557930D01*
X105571016Y-97667960D01*
X105574148Y-97670734D01*
X105724775Y-97749790D01*
X105724776Y-97749790D01*
X105724778Y-97749791D01*
X105881461Y-97788409D01*
X105889944Y-97790500D01*
X105889947Y-97790500D01*
X106060053Y-97790500D01*
X106060056Y-97790500D01*
X106225225Y-97749790D01*
X106375852Y-97670734D01*
X106375858Y-97670729D01*
X106382126Y-97666403D01*
X106383201Y-97667960D01*
X106438471Y-97641986D01*
X106457765Y-97640500D01*
X106559785Y-97640500D01*
X106627906Y-97660502D01*
X106648880Y-97677405D01*
X106786200Y-97814725D01*
X106820226Y-97877037D01*
X106823105Y-97903820D01*
X106823105Y-104070698D01*
X106803103Y-104138819D01*
X106749447Y-104185312D01*
X106679173Y-104195416D01*
X106614593Y-104165922D01*
X106593410Y-104142275D01*
X106584686Y-104129636D01*
X106584682Y-104129632D01*
X106457358Y-104016833D01*
X106457352Y-104016828D01*
X106306726Y-103937773D01*
X106306722Y-103937771D01*
X106141560Y-103897063D01*
X106141557Y-103897063D01*
X106029712Y-103897063D01*
X105961591Y-103877061D01*
X105915098Y-103823405D01*
X105911899Y-103815742D01*
X105909813Y-103810241D01*
X105899888Y-103784070D01*
X105899886Y-103784068D01*
X105899886Y-103784066D01*
X105803255Y-103644073D01*
X105803251Y-103644069D01*
X105675927Y-103531270D01*
X105675921Y-103531265D01*
X105525295Y-103452210D01*
X105525291Y-103452208D01*
X105360129Y-103411500D01*
X105360126Y-103411500D01*
X105190014Y-103411500D01*
X105190010Y-103411500D01*
X105024848Y-103452208D01*
X105024844Y-103452210D01*
X104874218Y-103531265D01*
X104874212Y-103531270D01*
X104746888Y-103644069D01*
X104746886Y-103644071D01*
X104650251Y-103784070D01*
X104650249Y-103784074D01*
X104589929Y-103943128D01*
X104569425Y-104111997D01*
X104569425Y-104112002D01*
X104589929Y-104280871D01*
X104650249Y-104439925D01*
X104650251Y-104439929D01*
X104746886Y-104579928D01*
X104746888Y-104579930D01*
X104874212Y-104692729D01*
X104874218Y-104692734D01*
X104961289Y-104738433D01*
X105012311Y-104787802D01*
X105028543Y-104856918D01*
X105004831Y-104923838D01*
X104961289Y-104961567D01*
X104874218Y-105007265D01*
X104874212Y-105007270D01*
X104746888Y-105120069D01*
X104746886Y-105120071D01*
X104650251Y-105260070D01*
X104650249Y-105260074D01*
X104589929Y-105419128D01*
X104569425Y-105587997D01*
X104569425Y-105588002D01*
X104589929Y-105756871D01*
X104650249Y-105915925D01*
X104650251Y-105915929D01*
X104746886Y-106055928D01*
X104746888Y-106055930D01*
X104858629Y-106154924D01*
X104874218Y-106168734D01*
X105024845Y-106247790D01*
X105024846Y-106247790D01*
X105024848Y-106247791D01*
X105181531Y-106286409D01*
X105190014Y-106288500D01*
X105190017Y-106288500D01*
X105360123Y-106288500D01*
X105360126Y-106288500D01*
X105525295Y-106247790D01*
X105675922Y-106168734D01*
X105803253Y-106055929D01*
X105899888Y-105915930D01*
X105960210Y-105756872D01*
X105968695Y-105686991D01*
X105980715Y-105588002D01*
X105980715Y-105587997D01*
X105962654Y-105439251D01*
X105974299Y-105369216D01*
X106021959Y-105316594D01*
X106087735Y-105298063D01*
X106141554Y-105298063D01*
X106141557Y-105298063D01*
X106306726Y-105257353D01*
X106457353Y-105178297D01*
X106584684Y-105065492D01*
X106593409Y-105052850D01*
X106648566Y-105008152D01*
X106719134Y-105000368D01*
X106782709Y-105031972D01*
X106819105Y-105092930D01*
X106823105Y-105124427D01*
X106823105Y-111005638D01*
X106803103Y-111073759D01*
X106800801Y-111077214D01*
X106748786Y-111152569D01*
X106688464Y-111311628D01*
X106667960Y-111480497D01*
X106667960Y-111480502D01*
X106688464Y-111649371D01*
X106748784Y-111808425D01*
X106748786Y-111808429D01*
X106748787Y-111808430D01*
X106845422Y-111948429D01*
X106972753Y-112061234D01*
X107123380Y-112140290D01*
X107123381Y-112140290D01*
X107123383Y-112140291D01*
X107280066Y-112178909D01*
X107288549Y-112181000D01*
X107288552Y-112181000D01*
X107458658Y-112181000D01*
X107458661Y-112181000D01*
X107623830Y-112140290D01*
X107774457Y-112061234D01*
X107901788Y-111948429D01*
X107998423Y-111808430D01*
X107998426Y-111808423D01*
X108038258Y-111703394D01*
X108081116Y-111646792D01*
X108147771Y-111622347D01*
X108217061Y-111637818D01*
X108266987Y-111688295D01*
X108282070Y-111748073D01*
X108282070Y-117287810D01*
X108262068Y-117355931D01*
X108245165Y-117376905D01*
X107818975Y-117803095D01*
X107756663Y-117837121D01*
X107729880Y-117840000D01*
X100321837Y-117840000D01*
X100253716Y-117819998D01*
X100238287Y-117808315D01*
X100182922Y-117759266D01*
X100182921Y-117759265D01*
X100032295Y-117680210D01*
X100032291Y-117680208D01*
X99867129Y-117639500D01*
X99867126Y-117639500D01*
X99697014Y-117639500D01*
X99697010Y-117639500D01*
X99531848Y-117680208D01*
X99531844Y-117680210D01*
X99381218Y-117759265D01*
X99381216Y-117759267D01*
X99350460Y-117786514D01*
X99325855Y-117808312D01*
X99261604Y-117838513D01*
X99242303Y-117840000D01*
X97571837Y-117840000D01*
X97503716Y-117819998D01*
X97488287Y-117808315D01*
X97432922Y-117759266D01*
X97432921Y-117759265D01*
X97282295Y-117680210D01*
X97282291Y-117680208D01*
X97117129Y-117639500D01*
X97117126Y-117639500D01*
X96947014Y-117639500D01*
X96947010Y-117639500D01*
X96781848Y-117680208D01*
X96781844Y-117680210D01*
X96631218Y-117759265D01*
X96631216Y-117759267D01*
X96600460Y-117786514D01*
X96575855Y-117808312D01*
X96511604Y-117838513D01*
X96492303Y-117840000D01*
X90584260Y-117840000D01*
X90516139Y-117819998D01*
X90495165Y-117803095D01*
X90068975Y-117376905D01*
X90034949Y-117314593D01*
X90032070Y-117287810D01*
X90032070Y-114637526D01*
X90046026Y-114589997D01*
X100326425Y-114589997D01*
X100326425Y-114590002D01*
X100346929Y-114758871D01*
X100407249Y-114917925D01*
X100407251Y-114917929D01*
X100503886Y-115057928D01*
X100503888Y-115057930D01*
X100585238Y-115130000D01*
X100631218Y-115170734D01*
X100781845Y-115249790D01*
X100781846Y-115249790D01*
X100781848Y-115249791D01*
X100938531Y-115288409D01*
X100947014Y-115290500D01*
X100947017Y-115290500D01*
X101117123Y-115290500D01*
X101117126Y-115290500D01*
X101193701Y-115271626D01*
X101264627Y-115274745D01*
X101322610Y-115315715D01*
X101349238Y-115381528D01*
X101346956Y-115413453D01*
X101347848Y-115413562D01*
X101326425Y-115589997D01*
X101326425Y-115590002D01*
X101346928Y-115758867D01*
X101346930Y-115758874D01*
X101350875Y-115769276D01*
X101356327Y-115840063D01*
X101322643Y-115902560D01*
X101287829Y-115925211D01*
X101288594Y-115926668D01*
X101131218Y-116009265D01*
X101131212Y-116009270D01*
X101003888Y-116122069D01*
X101003886Y-116122071D01*
X100907251Y-116262070D01*
X100907249Y-116262074D01*
X100846929Y-116421128D01*
X100826425Y-116589997D01*
X100826425Y-116590002D01*
X100846929Y-116758871D01*
X100907249Y-116917925D01*
X100907251Y-116917929D01*
X100907252Y-116917930D01*
X101003887Y-117057929D01*
X101131218Y-117170734D01*
X101281845Y-117249790D01*
X101281846Y-117249790D01*
X101281848Y-117249791D01*
X101436100Y-117287810D01*
X101447014Y-117290500D01*
X101447017Y-117290500D01*
X101617123Y-117290500D01*
X101617126Y-117290500D01*
X101782295Y-117249790D01*
X101932922Y-117170734D01*
X102060253Y-117057929D01*
X102156888Y-116917930D01*
X102217210Y-116758872D01*
X102237715Y-116590000D01*
X102217210Y-116421128D01*
X102213265Y-116410728D01*
X102207811Y-116339943D01*
X102241491Y-116277443D01*
X102276313Y-116254794D01*
X102275546Y-116253332D01*
X102282295Y-116249790D01*
X102432922Y-116170734D01*
X102560253Y-116057929D01*
X102656888Y-115917930D01*
X102717210Y-115758872D01*
X102736752Y-115597929D01*
X102737715Y-115590002D01*
X102737715Y-115589997D01*
X102718420Y-115431094D01*
X102730065Y-115361059D01*
X102777725Y-115308437D01*
X102846268Y-115289936D01*
X102854152Y-115290500D01*
X102856013Y-115290500D01*
X103026122Y-115290500D01*
X103026125Y-115290500D01*
X103191294Y-115249790D01*
X103341921Y-115170734D01*
X103387904Y-115129997D01*
X106576425Y-115129997D01*
X106576425Y-115130002D01*
X106596929Y-115298871D01*
X106657249Y-115457925D01*
X106657251Y-115457929D01*
X106657252Y-115457930D01*
X106753887Y-115597929D01*
X106881218Y-115710734D01*
X107031845Y-115789790D01*
X107031846Y-115789790D01*
X107031848Y-115789791D01*
X107188531Y-115828409D01*
X107197014Y-115830500D01*
X107197017Y-115830500D01*
X107367123Y-115830500D01*
X107367126Y-115830500D01*
X107532295Y-115789790D01*
X107682922Y-115710734D01*
X107810253Y-115597929D01*
X107906888Y-115457930D01*
X107967210Y-115298872D01*
X107987715Y-115130000D01*
X107986752Y-115122071D01*
X107967210Y-114961128D01*
X107906890Y-114802074D01*
X107906888Y-114802070D01*
X107810253Y-114662071D01*
X107810251Y-114662069D01*
X107682927Y-114549270D01*
X107682921Y-114549265D01*
X107532295Y-114470210D01*
X107532291Y-114470208D01*
X107367129Y-114429500D01*
X107367126Y-114429500D01*
X107197014Y-114429500D01*
X107197010Y-114429500D01*
X107031848Y-114470208D01*
X107031844Y-114470210D01*
X106881218Y-114549265D01*
X106881212Y-114549270D01*
X106753888Y-114662069D01*
X106753886Y-114662071D01*
X106657251Y-114802070D01*
X106657249Y-114802074D01*
X106596929Y-114961128D01*
X106576425Y-115129997D01*
X103387904Y-115129997D01*
X103469252Y-115057929D01*
X103565887Y-114917930D01*
X103569512Y-114908373D01*
X103614214Y-114790500D01*
X103626209Y-114758872D01*
X103646714Y-114590000D01*
X103644213Y-114569405D01*
X103626209Y-114421128D01*
X103565889Y-114262074D01*
X103565887Y-114262070D01*
X103469252Y-114122071D01*
X103469250Y-114122069D01*
X103341926Y-114009270D01*
X103341920Y-114009265D01*
X103191294Y-113930210D01*
X103191290Y-113930208D01*
X103026128Y-113889500D01*
X103026125Y-113889500D01*
X102970638Y-113889500D01*
X102902517Y-113869498D01*
X102856024Y-113815842D01*
X102845920Y-113745568D01*
X102852826Y-113718820D01*
X102874535Y-113661577D01*
X102911210Y-113564872D01*
X102931715Y-113396000D01*
X102915064Y-113258872D01*
X102911210Y-113227128D01*
X102850890Y-113068074D01*
X102850888Y-113068070D01*
X102754253Y-112928071D01*
X102754251Y-112928069D01*
X102626927Y-112815270D01*
X102626921Y-112815265D01*
X102476295Y-112736210D01*
X102476291Y-112736208D01*
X102311129Y-112695500D01*
X102311126Y-112695500D01*
X102141014Y-112695500D01*
X102141010Y-112695500D01*
X101975848Y-112736208D01*
X101975844Y-112736210D01*
X101825218Y-112815265D01*
X101825212Y-112815270D01*
X101697888Y-112928069D01*
X101697886Y-112928071D01*
X101601251Y-113068070D01*
X101601249Y-113068074D01*
X101540929Y-113227128D01*
X101520425Y-113395997D01*
X101520425Y-113396002D01*
X101540929Y-113564871D01*
X101601249Y-113723925D01*
X101601251Y-113723929D01*
X101697886Y-113863928D01*
X101697888Y-113863930D01*
X101789283Y-113944899D01*
X101825218Y-113976734D01*
X101975845Y-114055790D01*
X101975846Y-114055790D01*
X101975848Y-114055791D01*
X102114630Y-114089997D01*
X102141014Y-114096500D01*
X102141017Y-114096500D01*
X102196501Y-114096500D01*
X102264622Y-114116502D01*
X102311115Y-114170158D01*
X102321219Y-114240432D01*
X102314313Y-114267180D01*
X102255928Y-114421128D01*
X102235424Y-114589997D01*
X102235424Y-114590003D01*
X102254718Y-114748906D01*
X102243073Y-114818941D01*
X102195413Y-114871562D01*
X102126869Y-114890063D01*
X102118996Y-114889500D01*
X102117126Y-114889500D01*
X101947014Y-114889500D01*
X101947011Y-114889500D01*
X101947008Y-114889501D01*
X101870438Y-114908373D01*
X101799510Y-114905254D01*
X101741528Y-114864283D01*
X101714901Y-114798469D01*
X101717186Y-114766546D01*
X101716292Y-114766438D01*
X101737715Y-114590002D01*
X101737715Y-114589997D01*
X101717210Y-114421128D01*
X101656890Y-114262074D01*
X101656888Y-114262070D01*
X101560253Y-114122071D01*
X101560251Y-114122069D01*
X101432927Y-114009270D01*
X101432921Y-114009265D01*
X101282295Y-113930210D01*
X101282291Y-113930208D01*
X101117129Y-113889500D01*
X101117126Y-113889500D01*
X100947014Y-113889500D01*
X100947010Y-113889500D01*
X100781848Y-113930208D01*
X100781844Y-113930210D01*
X100631218Y-114009265D01*
X100631212Y-114009270D01*
X100503888Y-114122069D01*
X100503886Y-114122071D01*
X100407251Y-114262070D01*
X100407249Y-114262074D01*
X100346929Y-114421128D01*
X100326425Y-114589997D01*
X90046026Y-114589997D01*
X90052072Y-114569405D01*
X90055981Y-114564242D01*
X90055923Y-114564202D01*
X90120801Y-114470210D01*
X90156888Y-114417930D01*
X90217210Y-114258872D01*
X90237715Y-114090000D01*
X90233561Y-114055791D01*
X90217210Y-113921128D01*
X90156890Y-113762074D01*
X90156888Y-113762072D01*
X90156888Y-113762070D01*
X90087519Y-113661573D01*
X90065285Y-113594152D01*
X90083032Y-113525409D01*
X90087504Y-113518448D01*
X90156888Y-113417930D01*
X90217210Y-113258872D01*
X90237715Y-113090000D01*
X90235052Y-113068070D01*
X90217210Y-112921128D01*
X90156890Y-112762074D01*
X90156888Y-112762070D01*
X90055923Y-112615798D01*
X90058205Y-112614222D01*
X90033554Y-112561754D01*
X90032070Y-112542473D01*
X90032070Y-109674660D01*
X97943706Y-109674660D01*
X97943706Y-109674665D01*
X97964210Y-109843534D01*
X98024530Y-110002588D01*
X98024532Y-110002592D01*
X98107990Y-110123500D01*
X98121168Y-110142592D01*
X98248499Y-110255397D01*
X98399126Y-110334453D01*
X98399127Y-110334453D01*
X98399129Y-110334454D01*
X98555812Y-110373072D01*
X98564295Y-110375163D01*
X98564298Y-110375163D01*
X98734404Y-110375163D01*
X98734407Y-110375163D01*
X98899576Y-110334453D01*
X99050203Y-110255397D01*
X99177534Y-110142592D01*
X99274169Y-110002593D01*
X99334491Y-109843535D01*
X99354996Y-109674663D01*
X99334491Y-109505791D01*
X99303092Y-109422997D01*
X101521425Y-109422997D01*
X101521425Y-109423002D01*
X101541929Y-109591871D01*
X101602249Y-109750925D01*
X101602251Y-109750929D01*
X101602252Y-109750930D01*
X101698887Y-109890929D01*
X101826218Y-110003734D01*
X101976845Y-110082790D01*
X101976846Y-110082790D01*
X101976848Y-110082791D01*
X102133531Y-110121409D01*
X102142014Y-110123500D01*
X102142017Y-110123500D01*
X102312123Y-110123500D01*
X102312126Y-110123500D01*
X102477295Y-110082790D01*
X102627922Y-110003734D01*
X102755253Y-109890929D01*
X102851888Y-109750930D01*
X102912210Y-109591872D01*
X102932715Y-109423000D01*
X102923454Y-109346733D01*
X102912210Y-109254128D01*
X102851890Y-109095074D01*
X102851888Y-109095070D01*
X102755253Y-108955071D01*
X102755251Y-108955069D01*
X102627927Y-108842270D01*
X102627921Y-108842265D01*
X102477295Y-108763210D01*
X102477291Y-108763208D01*
X102312129Y-108722500D01*
X102312126Y-108722500D01*
X102142014Y-108722500D01*
X102142010Y-108722500D01*
X101976848Y-108763208D01*
X101976844Y-108763210D01*
X101826218Y-108842265D01*
X101826212Y-108842270D01*
X101698888Y-108955069D01*
X101698886Y-108955071D01*
X101602251Y-109095070D01*
X101602249Y-109095074D01*
X101541929Y-109254128D01*
X101521425Y-109422997D01*
X99303092Y-109422997D01*
X99274169Y-109346733D01*
X99177534Y-109206734D01*
X99177532Y-109206732D01*
X99050208Y-109093933D01*
X99050202Y-109093928D01*
X98899576Y-109014873D01*
X98899572Y-109014871D01*
X98734410Y-108974163D01*
X98734407Y-108974163D01*
X98564295Y-108974163D01*
X98564291Y-108974163D01*
X98399129Y-109014871D01*
X98399125Y-109014873D01*
X98248499Y-109093928D01*
X98248493Y-109093933D01*
X98121169Y-109206732D01*
X98121167Y-109206734D01*
X98024532Y-109346733D01*
X98024530Y-109346737D01*
X97964210Y-109505791D01*
X97943706Y-109674660D01*
X90032070Y-109674660D01*
X90032070Y-107621254D01*
X102028168Y-107621254D01*
X102028168Y-107621259D01*
X102048672Y-107790128D01*
X102108992Y-107949182D01*
X102108994Y-107949186D01*
X102205629Y-108089185D01*
X102205631Y-108089187D01*
X102285325Y-108159790D01*
X102332961Y-108201991D01*
X102483588Y-108281047D01*
X102483589Y-108281047D01*
X102483591Y-108281048D01*
X102640274Y-108319666D01*
X102648757Y-108321757D01*
X102648760Y-108321757D01*
X102818866Y-108321757D01*
X102818869Y-108321757D01*
X102984038Y-108281047D01*
X103134665Y-108201991D01*
X103261996Y-108089186D01*
X103358631Y-107949187D01*
X103418953Y-107790129D01*
X103425788Y-107733838D01*
X103439458Y-107621259D01*
X103439458Y-107621254D01*
X103424734Y-107499997D01*
X104794355Y-107499997D01*
X104794355Y-107500002D01*
X104814859Y-107668871D01*
X104875179Y-107827925D01*
X104875181Y-107827929D01*
X104958880Y-107949186D01*
X104971817Y-107967929D01*
X105099148Y-108080734D01*
X105249775Y-108159790D01*
X105249776Y-108159790D01*
X105249778Y-108159791D01*
X105406461Y-108198409D01*
X105414944Y-108200500D01*
X105414947Y-108200500D01*
X105585053Y-108200500D01*
X105585056Y-108200500D01*
X105750225Y-108159790D01*
X105900852Y-108080734D01*
X106028183Y-107967929D01*
X106124818Y-107827930D01*
X106185140Y-107668872D01*
X106205645Y-107500000D01*
X106199863Y-107452385D01*
X106185140Y-107331128D01*
X106124820Y-107172074D01*
X106124818Y-107172070D01*
X106028183Y-107032071D01*
X106028181Y-107032069D01*
X105900857Y-106919270D01*
X105900851Y-106919265D01*
X105750225Y-106840210D01*
X105750221Y-106840208D01*
X105585059Y-106799500D01*
X105585056Y-106799500D01*
X105414944Y-106799500D01*
X105414940Y-106799500D01*
X105249778Y-106840208D01*
X105249774Y-106840210D01*
X105099148Y-106919265D01*
X105099142Y-106919270D01*
X104971818Y-107032069D01*
X104971816Y-107032071D01*
X104875181Y-107172070D01*
X104875179Y-107172074D01*
X104814859Y-107331128D01*
X104794355Y-107499997D01*
X103424734Y-107499997D01*
X103418953Y-107452385D01*
X103358633Y-107293331D01*
X103358631Y-107293327D01*
X103261996Y-107153328D01*
X103261994Y-107153326D01*
X103134670Y-107040527D01*
X103134664Y-107040522D01*
X102984038Y-106961467D01*
X102984034Y-106961465D01*
X102818872Y-106920757D01*
X102818869Y-106920757D01*
X102648757Y-106920757D01*
X102648753Y-106920757D01*
X102483591Y-106961465D01*
X102483587Y-106961467D01*
X102332961Y-107040522D01*
X102332955Y-107040527D01*
X102205631Y-107153326D01*
X102205629Y-107153328D01*
X102108994Y-107293327D01*
X102108992Y-107293331D01*
X102048672Y-107452385D01*
X102028168Y-107621254D01*
X90032070Y-107621254D01*
X90032070Y-105605537D01*
X90052072Y-105537416D01*
X90099516Y-105493969D01*
X90120920Y-105482735D01*
X90120919Y-105482735D01*
X90120922Y-105482734D01*
X90248253Y-105369929D01*
X90344888Y-105229930D01*
X90362155Y-105184400D01*
X92073202Y-105184400D01*
X92073202Y-105184405D01*
X92093706Y-105353274D01*
X92154026Y-105512328D01*
X92154028Y-105512332D01*
X92250663Y-105652331D01*
X92250665Y-105652333D01*
X92368665Y-105756872D01*
X92377995Y-105765137D01*
X92528622Y-105844193D01*
X92528623Y-105844193D01*
X92528625Y-105844194D01*
X92640065Y-105871661D01*
X92693791Y-105884903D01*
X92693794Y-105884903D01*
X92835676Y-105884903D01*
X92903797Y-105904905D01*
X92950290Y-105958561D01*
X92953488Y-105966224D01*
X92971956Y-106014923D01*
X93068591Y-106154922D01*
X93068593Y-106154924D01*
X93173418Y-106247791D01*
X93195923Y-106267728D01*
X93346550Y-106346784D01*
X93346551Y-106346784D01*
X93346553Y-106346785D01*
X93500911Y-106384830D01*
X93511719Y-106387494D01*
X93511722Y-106387494D01*
X93681828Y-106387494D01*
X93681831Y-106387494D01*
X93847000Y-106346784D01*
X93906896Y-106315347D01*
X93976507Y-106301400D01*
X94042610Y-106327302D01*
X94084215Y-106384830D01*
X94088114Y-106455720D01*
X94083264Y-106471593D01*
X94048928Y-106562130D01*
X94028425Y-106730997D01*
X94028425Y-106731002D01*
X94048929Y-106899871D01*
X94109249Y-107058925D01*
X94109251Y-107058929D01*
X94205886Y-107198928D01*
X94205888Y-107198930D01*
X94312440Y-107293327D01*
X94333218Y-107311734D01*
X94483845Y-107390790D01*
X94483846Y-107390790D01*
X94483848Y-107390791D01*
X94640531Y-107429409D01*
X94649014Y-107431500D01*
X94649017Y-107431500D01*
X94819123Y-107431500D01*
X94819126Y-107431500D01*
X94984295Y-107390790D01*
X95134922Y-107311734D01*
X95262253Y-107198929D01*
X95358888Y-107058930D01*
X95419210Y-106899872D01*
X95439715Y-106731000D01*
X95419210Y-106562128D01*
X95384875Y-106471593D01*
X95358890Y-106403074D01*
X95358888Y-106403070D01*
X95262253Y-106263071D01*
X95262251Y-106263069D01*
X95134927Y-106150270D01*
X95134921Y-106150265D01*
X94984295Y-106071210D01*
X94984291Y-106071208D01*
X94819129Y-106030500D01*
X94819126Y-106030500D01*
X94649014Y-106030500D01*
X94649010Y-106030500D01*
X94483848Y-106071208D01*
X94483840Y-106071212D01*
X94423948Y-106102646D01*
X94354335Y-106116593D01*
X94288232Y-106090689D01*
X94246628Y-106033160D01*
X94242730Y-105962271D01*
X94247581Y-105946399D01*
X94281915Y-105855865D01*
X94302420Y-105686996D01*
X94302420Y-105686991D01*
X94281915Y-105518122D01*
X94221595Y-105359068D01*
X94221593Y-105359064D01*
X94124958Y-105219065D01*
X94124956Y-105219063D01*
X93997632Y-105106264D01*
X93997626Y-105106259D01*
X93847000Y-105027204D01*
X93846996Y-105027202D01*
X93681834Y-104986494D01*
X93681831Y-104986494D01*
X93539947Y-104986494D01*
X93471826Y-104966492D01*
X93425333Y-104912836D01*
X93422135Y-104905173D01*
X93403668Y-104856479D01*
X93403665Y-104856474D01*
X93403665Y-104856473D01*
X93385341Y-104829926D01*
X93363106Y-104762501D01*
X93380854Y-104693758D01*
X93405488Y-104664035D01*
X93411253Y-104658929D01*
X93507888Y-104518930D01*
X93568210Y-104359872D01*
X93588715Y-104191000D01*
X93588024Y-104185312D01*
X93568210Y-104022128D01*
X93507890Y-103863074D01*
X93507888Y-103863070D01*
X93411253Y-103723071D01*
X93411251Y-103723069D01*
X93283927Y-103610270D01*
X93283921Y-103610265D01*
X93133295Y-103531210D01*
X93133291Y-103531208D01*
X92968129Y-103490500D01*
X92968126Y-103490500D01*
X92798014Y-103490500D01*
X92798010Y-103490500D01*
X92632848Y-103531208D01*
X92632844Y-103531210D01*
X92482218Y-103610265D01*
X92482212Y-103610270D01*
X92354888Y-103723069D01*
X92354886Y-103723071D01*
X92258251Y-103863070D01*
X92258249Y-103863074D01*
X92197929Y-104022128D01*
X92177425Y-104190997D01*
X92177425Y-104191002D01*
X92197929Y-104359871D01*
X92258249Y-104518925D01*
X92258251Y-104518929D01*
X92276575Y-104545475D01*
X92298811Y-104612899D01*
X92281064Y-104681642D01*
X92256436Y-104711360D01*
X92250665Y-104716472D01*
X92250663Y-104716474D01*
X92154028Y-104856473D01*
X92154026Y-104856477D01*
X92093706Y-105015531D01*
X92073202Y-105184400D01*
X90362155Y-105184400D01*
X90405210Y-105070872D01*
X90413848Y-104999735D01*
X90425715Y-104902002D01*
X90425715Y-104901997D01*
X90405210Y-104733128D01*
X90344890Y-104574074D01*
X90344888Y-104574070D01*
X90248253Y-104434071D01*
X90248251Y-104434069D01*
X90120927Y-104321270D01*
X90120924Y-104321268D01*
X90120922Y-104321266D01*
X90120919Y-104321264D01*
X90120917Y-104321263D01*
X90099513Y-104310029D01*
X90048491Y-104260660D01*
X90032070Y-104198463D01*
X90032070Y-103427026D01*
X93853171Y-103427026D01*
X93853171Y-103427031D01*
X93873675Y-103595900D01*
X93933995Y-103754954D01*
X93933997Y-103754958D01*
X94030632Y-103894957D01*
X94030634Y-103894959D01*
X94150335Y-104001005D01*
X94157964Y-104007763D01*
X94308591Y-104086819D01*
X94308592Y-104086819D01*
X94308594Y-104086820D01*
X94465277Y-104125438D01*
X94473760Y-104127529D01*
X94473763Y-104127529D01*
X94643869Y-104127529D01*
X94643872Y-104127529D01*
X94809041Y-104086819D01*
X94959668Y-104007763D01*
X95086999Y-103894958D01*
X95183634Y-103754959D01*
X95243956Y-103595901D01*
X95256754Y-103490500D01*
X95264461Y-103427031D01*
X95264461Y-103427026D01*
X95243956Y-103258157D01*
X95183636Y-103099103D01*
X95183634Y-103099099D01*
X95086999Y-102959100D01*
X95086997Y-102959098D01*
X94959673Y-102846299D01*
X94959667Y-102846294D01*
X94809041Y-102767239D01*
X94809037Y-102767237D01*
X94711509Y-102743199D01*
X97171985Y-102743199D01*
X97171985Y-102743200D01*
X97191041Y-102887952D01*
X97246914Y-103022841D01*
X97246919Y-103022849D01*
X97275577Y-103060197D01*
X97301177Y-103126417D01*
X97286912Y-103195966D01*
X97275578Y-103213602D01*
X97246919Y-103250952D01*
X97246916Y-103250955D01*
X97246915Y-103250958D01*
X97218978Y-103318402D01*
X97191041Y-103385847D01*
X97171985Y-103530599D01*
X97171985Y-103530600D01*
X97191041Y-103675352D01*
X97246914Y-103810241D01*
X97246919Y-103810249D01*
X97275577Y-103847597D01*
X97301177Y-103913817D01*
X97286912Y-103983366D01*
X97275578Y-104001002D01*
X97246919Y-104038352D01*
X97246916Y-104038355D01*
X97246915Y-104038358D01*
X97226842Y-104086818D01*
X97191041Y-104173247D01*
X97171985Y-104317999D01*
X97171985Y-104318000D01*
X97191041Y-104462752D01*
X97246914Y-104597641D01*
X97246919Y-104597649D01*
X97275577Y-104634997D01*
X97301177Y-104701217D01*
X97286912Y-104770766D01*
X97275578Y-104788402D01*
X97246919Y-104825752D01*
X97246916Y-104825755D01*
X97246915Y-104825758D01*
X97234192Y-104856474D01*
X97191041Y-104960647D01*
X97171985Y-105105399D01*
X97171985Y-105105400D01*
X97191041Y-105250152D01*
X97246914Y-105385041D01*
X97246919Y-105385049D01*
X97275577Y-105422397D01*
X97301177Y-105488617D01*
X97286912Y-105558166D01*
X97275578Y-105575802D01*
X97246919Y-105613152D01*
X97246916Y-105613155D01*
X97246915Y-105613158D01*
X97230688Y-105652333D01*
X97191041Y-105748047D01*
X97171985Y-105892799D01*
X97171985Y-105892800D01*
X97191041Y-106037552D01*
X97246914Y-106172441D01*
X97246919Y-106172449D01*
X97335795Y-106288274D01*
X97451620Y-106377150D01*
X97451627Y-106377155D01*
X97586516Y-106433028D01*
X97731270Y-106452085D01*
X97876024Y-106433028D01*
X98010913Y-106377155D01*
X98048264Y-106348493D01*
X98114484Y-106322892D01*
X98184033Y-106337156D01*
X98201674Y-106348492D01*
X98239027Y-106377155D01*
X98373916Y-106433028D01*
X98518670Y-106452085D01*
X98663424Y-106433028D01*
X98798313Y-106377155D01*
X98835664Y-106348493D01*
X98901884Y-106322892D01*
X98971433Y-106337156D01*
X98989074Y-106348492D01*
X99026427Y-106377155D01*
X99161316Y-106433028D01*
X99306070Y-106452085D01*
X99450824Y-106433028D01*
X99585713Y-106377155D01*
X99623064Y-106348493D01*
X99689284Y-106322892D01*
X99758833Y-106337156D01*
X99776474Y-106348492D01*
X99813827Y-106377155D01*
X99948716Y-106433028D01*
X100093470Y-106452085D01*
X100238224Y-106433028D01*
X100373113Y-106377155D01*
X100410464Y-106348493D01*
X100476684Y-106322892D01*
X100546233Y-106337156D01*
X100563874Y-106348492D01*
X100601227Y-106377155D01*
X100736116Y-106433028D01*
X100880870Y-106452085D01*
X101025624Y-106433028D01*
X101160513Y-106377155D01*
X101276344Y-106288274D01*
X101365225Y-106172443D01*
X101421098Y-106037554D01*
X101440155Y-105892800D01*
X101435292Y-105855865D01*
X101421098Y-105748047D01*
X101421098Y-105748046D01*
X101365225Y-105613158D01*
X101336561Y-105575802D01*
X101310961Y-105509585D01*
X101325225Y-105440036D01*
X101336558Y-105422401D01*
X101358647Y-105393615D01*
X101365223Y-105385046D01*
X101365223Y-105385045D01*
X101365225Y-105385043D01*
X101421098Y-105250154D01*
X101440155Y-105105400D01*
X101421098Y-104960646D01*
X101365225Y-104825758D01*
X101336561Y-104788402D01*
X101310961Y-104722185D01*
X101325225Y-104652636D01*
X101336558Y-104635001D01*
X101358647Y-104606215D01*
X101365223Y-104597646D01*
X101365223Y-104597645D01*
X101365225Y-104597643D01*
X101421098Y-104462754D01*
X101440155Y-104318000D01*
X101421098Y-104173246D01*
X101365225Y-104038358D01*
X101336561Y-104001002D01*
X101310961Y-103934785D01*
X101325225Y-103865236D01*
X101336558Y-103847601D01*
X101358647Y-103818815D01*
X101365223Y-103810246D01*
X101365223Y-103810245D01*
X101365225Y-103810243D01*
X101421098Y-103675354D01*
X101440155Y-103530600D01*
X101421098Y-103385846D01*
X101365225Y-103250958D01*
X101336561Y-103213602D01*
X101310961Y-103147385D01*
X101325225Y-103077836D01*
X101336558Y-103060201D01*
X101358647Y-103031415D01*
X101365223Y-103022846D01*
X101365223Y-103022845D01*
X101365225Y-103022843D01*
X101421098Y-102887954D01*
X101440155Y-102743200D01*
X101421098Y-102598446D01*
X101377005Y-102491997D01*
X104950425Y-102491997D01*
X104950425Y-102492002D01*
X104970929Y-102660871D01*
X105031249Y-102819925D01*
X105031251Y-102819929D01*
X105127886Y-102959928D01*
X105127888Y-102959930D01*
X105241066Y-103060197D01*
X105255218Y-103072734D01*
X105405845Y-103151790D01*
X105405846Y-103151790D01*
X105405848Y-103151791D01*
X105562531Y-103190409D01*
X105571014Y-103192500D01*
X105571017Y-103192500D01*
X105741123Y-103192500D01*
X105741126Y-103192500D01*
X105906295Y-103151790D01*
X106056922Y-103072734D01*
X106184253Y-102959929D01*
X106280888Y-102819930D01*
X106341210Y-102660872D01*
X106361715Y-102492000D01*
X106358261Y-102463558D01*
X106341210Y-102323128D01*
X106280890Y-102164074D01*
X106280888Y-102164070D01*
X106184253Y-102024071D01*
X106184251Y-102024069D01*
X106056927Y-101911270D01*
X106056921Y-101911265D01*
X105906295Y-101832210D01*
X105906291Y-101832208D01*
X105741129Y-101791500D01*
X105741126Y-101791500D01*
X105571014Y-101791500D01*
X105571010Y-101791500D01*
X105405848Y-101832208D01*
X105405844Y-101832210D01*
X105255218Y-101911265D01*
X105255212Y-101911270D01*
X105127888Y-102024069D01*
X105127886Y-102024071D01*
X105031251Y-102164070D01*
X105031249Y-102164074D01*
X104970929Y-102323128D01*
X104950425Y-102491997D01*
X101377005Y-102491997D01*
X101365225Y-102463558D01*
X101276344Y-102347726D01*
X101276342Y-102347724D01*
X101276341Y-102347723D01*
X101160519Y-102258849D01*
X101160511Y-102258844D01*
X101025622Y-102202971D01*
X100880870Y-102183915D01*
X100736117Y-102202971D01*
X100669726Y-102230472D01*
X100601228Y-102258845D01*
X100601227Y-102258846D01*
X100601222Y-102258849D01*
X100563872Y-102287508D01*
X100497651Y-102313107D01*
X100428103Y-102298841D01*
X100410467Y-102287507D01*
X100373119Y-102258849D01*
X100373111Y-102258844D01*
X100238222Y-102202971D01*
X100093470Y-102183915D01*
X99948717Y-102202971D01*
X99882326Y-102230472D01*
X99813828Y-102258845D01*
X99813827Y-102258846D01*
X99813822Y-102258849D01*
X99776472Y-102287508D01*
X99710251Y-102313107D01*
X99640703Y-102298841D01*
X99623067Y-102287507D01*
X99585719Y-102258849D01*
X99585711Y-102258844D01*
X99450822Y-102202971D01*
X99306070Y-102183915D01*
X99161317Y-102202971D01*
X99094926Y-102230472D01*
X99026428Y-102258845D01*
X99026427Y-102258846D01*
X99026422Y-102258849D01*
X98989072Y-102287508D01*
X98922851Y-102313107D01*
X98853303Y-102298841D01*
X98835667Y-102287507D01*
X98798319Y-102258849D01*
X98798311Y-102258844D01*
X98663422Y-102202971D01*
X98518670Y-102183915D01*
X98373917Y-102202971D01*
X98307526Y-102230472D01*
X98239028Y-102258845D01*
X98239027Y-102258846D01*
X98239022Y-102258849D01*
X98201672Y-102287508D01*
X98135451Y-102313107D01*
X98065903Y-102298841D01*
X98048267Y-102287507D01*
X98010919Y-102258849D01*
X98010911Y-102258844D01*
X97876022Y-102202971D01*
X97731270Y-102183915D01*
X97586517Y-102202971D01*
X97520126Y-102230472D01*
X97451628Y-102258845D01*
X97451627Y-102258846D01*
X97451626Y-102258846D01*
X97335796Y-102347726D01*
X97246916Y-102463556D01*
X97246915Y-102463558D01*
X97235135Y-102491997D01*
X97191041Y-102598447D01*
X97171985Y-102743199D01*
X94711509Y-102743199D01*
X94643875Y-102726529D01*
X94643872Y-102726529D01*
X94473760Y-102726529D01*
X94473756Y-102726529D01*
X94308594Y-102767237D01*
X94308590Y-102767239D01*
X94157964Y-102846294D01*
X94157958Y-102846299D01*
X94030634Y-102959098D01*
X94030632Y-102959100D01*
X93933997Y-103099099D01*
X93933995Y-103099103D01*
X93873675Y-103258157D01*
X93853171Y-103427026D01*
X90032070Y-103427026D01*
X90032070Y-101649740D01*
X93902682Y-101649740D01*
X93902682Y-101649745D01*
X93923186Y-101818614D01*
X93983506Y-101977668D01*
X93983508Y-101977672D01*
X94080143Y-102117671D01*
X94080145Y-102117673D01*
X94132516Y-102164070D01*
X94207475Y-102230477D01*
X94358102Y-102309533D01*
X94358103Y-102309533D01*
X94358105Y-102309534D01*
X94507533Y-102346364D01*
X94523271Y-102350243D01*
X94523274Y-102350243D01*
X94693380Y-102350243D01*
X94693383Y-102350243D01*
X94858552Y-102309533D01*
X95009179Y-102230477D01*
X95136510Y-102117672D01*
X95233145Y-101977673D01*
X95293467Y-101818615D01*
X95313972Y-101649743D01*
X95293467Y-101480871D01*
X95233145Y-101321813D01*
X95136510Y-101181814D01*
X95009179Y-101069009D01*
X95009178Y-101069008D01*
X94858552Y-100989953D01*
X94858548Y-100989951D01*
X94693386Y-100949243D01*
X94693383Y-100949243D01*
X94523271Y-100949243D01*
X94523267Y-100949243D01*
X94358105Y-100989951D01*
X94358101Y-100989953D01*
X94207475Y-101069008D01*
X94207469Y-101069013D01*
X94080145Y-101181812D01*
X94080143Y-101181814D01*
X93983508Y-101321813D01*
X93983506Y-101321817D01*
X93923186Y-101480871D01*
X93902682Y-101649740D01*
X90032070Y-101649740D01*
X90032070Y-100253997D01*
X101648425Y-100253997D01*
X101648425Y-100254002D01*
X101668929Y-100422871D01*
X101729249Y-100581925D01*
X101729251Y-100581929D01*
X101729252Y-100581930D01*
X101825887Y-100721929D01*
X101953218Y-100834734D01*
X102103845Y-100913790D01*
X102103846Y-100913790D01*
X102103848Y-100913791D01*
X102247685Y-100949243D01*
X102269014Y-100954500D01*
X102269017Y-100954500D01*
X102439123Y-100954500D01*
X102439126Y-100954500D01*
X102604295Y-100913790D01*
X102754922Y-100834734D01*
X102882253Y-100721929D01*
X102978888Y-100581930D01*
X103039210Y-100422872D01*
X103059715Y-100254000D01*
X103039210Y-100085128D01*
X102978888Y-99926070D01*
X102882253Y-99786071D01*
X102882251Y-99786069D01*
X102754927Y-99673270D01*
X102754921Y-99673265D01*
X102604295Y-99594210D01*
X102604291Y-99594208D01*
X102439129Y-99553500D01*
X102439126Y-99553500D01*
X102269014Y-99553500D01*
X102269010Y-99553500D01*
X102103848Y-99594208D01*
X102103844Y-99594210D01*
X101953218Y-99673265D01*
X101953212Y-99673270D01*
X101825888Y-99786069D01*
X101825886Y-99786071D01*
X101729251Y-99926070D01*
X101729249Y-99926074D01*
X101668929Y-100085128D01*
X101648425Y-100253997D01*
X90032070Y-100253997D01*
X90032070Y-97900762D01*
X96562425Y-97900762D01*
X96562425Y-97900767D01*
X96582929Y-98069636D01*
X96643249Y-98228690D01*
X96643251Y-98228694D01*
X96739886Y-98368693D01*
X96739888Y-98368695D01*
X96828294Y-98447016D01*
X96867218Y-98481499D01*
X97017845Y-98560555D01*
X97017846Y-98560555D01*
X97017848Y-98560556D01*
X97174531Y-98599174D01*
X97183014Y-98601265D01*
X97183017Y-98601265D01*
X97353123Y-98601265D01*
X97353126Y-98601265D01*
X97518295Y-98560555D01*
X97668922Y-98481499D01*
X97796253Y-98368694D01*
X97892888Y-98228695D01*
X97897372Y-98216873D01*
X97953210Y-98069636D01*
X97955837Y-98047999D01*
X98352425Y-98047999D01*
X98352425Y-98048004D01*
X98372929Y-98216873D01*
X98433249Y-98375927D01*
X98433251Y-98375931D01*
X98529886Y-98515930D01*
X98529888Y-98515932D01*
X98657212Y-98628731D01*
X98657218Y-98628736D01*
X98710628Y-98656768D01*
X98761650Y-98706137D01*
X98777882Y-98775253D01*
X98769885Y-98813014D01*
X98720918Y-98942130D01*
X98700415Y-99110997D01*
X98700415Y-99111002D01*
X98720919Y-99279871D01*
X98781239Y-99438925D01*
X98781241Y-99438929D01*
X98877876Y-99578928D01*
X98877878Y-99578930D01*
X98984360Y-99673265D01*
X99005208Y-99691734D01*
X99155835Y-99770790D01*
X99155836Y-99770790D01*
X99155838Y-99770791D01*
X99217833Y-99786071D01*
X99321004Y-99811500D01*
X99321007Y-99811500D01*
X99491113Y-99811500D01*
X99491116Y-99811500D01*
X99656285Y-99770790D01*
X99806912Y-99691734D01*
X99934243Y-99578929D01*
X100030878Y-99438930D01*
X100091200Y-99279872D01*
X100110279Y-99122741D01*
X100138346Y-99057529D01*
X100197214Y-99017842D01*
X100205186Y-99015595D01*
X100268472Y-98999997D01*
X104794355Y-98999997D01*
X104794355Y-99000002D01*
X104814859Y-99168871D01*
X104875179Y-99327925D01*
X104875181Y-99327929D01*
X104971816Y-99467928D01*
X104971818Y-99467930D01*
X105097111Y-99578930D01*
X105099148Y-99580734D01*
X105249775Y-99659790D01*
X105249776Y-99659790D01*
X105249778Y-99659791D01*
X105406461Y-99698409D01*
X105414944Y-99700500D01*
X105414947Y-99700500D01*
X105585053Y-99700500D01*
X105585056Y-99700500D01*
X105750225Y-99659790D01*
X105900852Y-99580734D01*
X106028183Y-99467929D01*
X106124818Y-99327930D01*
X106185140Y-99168872D01*
X106205645Y-99000000D01*
X106185140Y-98831128D01*
X106163950Y-98775253D01*
X106124820Y-98672074D01*
X106124818Y-98672070D01*
X106028183Y-98532071D01*
X106028181Y-98532069D01*
X105900857Y-98419270D01*
X105900851Y-98419265D01*
X105750225Y-98340210D01*
X105750221Y-98340208D01*
X105585059Y-98299500D01*
X105585056Y-98299500D01*
X105414944Y-98299500D01*
X105414940Y-98299500D01*
X105249778Y-98340208D01*
X105249774Y-98340210D01*
X105099148Y-98419265D01*
X105099142Y-98419270D01*
X104971818Y-98532069D01*
X104971816Y-98532071D01*
X104875181Y-98672070D01*
X104875179Y-98672074D01*
X104814859Y-98831128D01*
X104794355Y-98999997D01*
X100268472Y-98999997D01*
X100359956Y-98977449D01*
X100510583Y-98898393D01*
X100531943Y-98879470D01*
X100596195Y-98849268D01*
X100666576Y-98858599D01*
X100674053Y-98862214D01*
X100676464Y-98863479D01*
X100676466Y-98863481D01*
X100827093Y-98942537D01*
X100827094Y-98942537D01*
X100827096Y-98942538D01*
X100968734Y-98977448D01*
X100992262Y-98983247D01*
X100992265Y-98983247D01*
X101162371Y-98983247D01*
X101162374Y-98983247D01*
X101327543Y-98942537D01*
X101478170Y-98863481D01*
X101605501Y-98750676D01*
X101702136Y-98610677D01*
X101705706Y-98601265D01*
X101721144Y-98560556D01*
X101762458Y-98451619D01*
X101782963Y-98282747D01*
X101774964Y-98216874D01*
X101762458Y-98113875D01*
X101702138Y-97954821D01*
X101702136Y-97954817D01*
X101605501Y-97814818D01*
X101605499Y-97814816D01*
X101478175Y-97702017D01*
X101478169Y-97702012D01*
X101327543Y-97622957D01*
X101327539Y-97622955D01*
X101162377Y-97582247D01*
X101162374Y-97582247D01*
X100992262Y-97582247D01*
X100992258Y-97582247D01*
X100827096Y-97622955D01*
X100827092Y-97622957D01*
X100676465Y-97702013D01*
X100655102Y-97720939D01*
X100590848Y-97751138D01*
X100520468Y-97741804D01*
X100512995Y-97738191D01*
X100359957Y-97657869D01*
X100359952Y-97657867D01*
X100194790Y-97617159D01*
X100194787Y-97617159D01*
X100024675Y-97617159D01*
X100024671Y-97617159D01*
X99859509Y-97657867D01*
X99859503Y-97657870D01*
X99797177Y-97690581D01*
X99727564Y-97704527D01*
X99661461Y-97678623D01*
X99634929Y-97650592D01*
X99586253Y-97580073D01*
X99586250Y-97580070D01*
X99458927Y-97467272D01*
X99458921Y-97467267D01*
X99308295Y-97388212D01*
X99308291Y-97388210D01*
X99143129Y-97347502D01*
X99143126Y-97347502D01*
X98973014Y-97347502D01*
X98973010Y-97347502D01*
X98807848Y-97388210D01*
X98807844Y-97388212D01*
X98657218Y-97467267D01*
X98657212Y-97467272D01*
X98529888Y-97580071D01*
X98529886Y-97580073D01*
X98433251Y-97720072D01*
X98433249Y-97720076D01*
X98372929Y-97879130D01*
X98352425Y-98047999D01*
X97955837Y-98047999D01*
X97973715Y-97900767D01*
X97973715Y-97900762D01*
X97953210Y-97731893D01*
X97892890Y-97572839D01*
X97892888Y-97572835D01*
X97796253Y-97432836D01*
X97796251Y-97432834D01*
X97668927Y-97320035D01*
X97668921Y-97320030D01*
X97518295Y-97240975D01*
X97518291Y-97240973D01*
X97353129Y-97200265D01*
X97353126Y-97200265D01*
X97183014Y-97200265D01*
X97183010Y-97200265D01*
X97017848Y-97240973D01*
X97017844Y-97240975D01*
X96867218Y-97320030D01*
X96867212Y-97320035D01*
X96739888Y-97432834D01*
X96739886Y-97432836D01*
X96643251Y-97572835D01*
X96643249Y-97572839D01*
X96582929Y-97731893D01*
X96562425Y-97900762D01*
X90032070Y-97900762D01*
X90032070Y-96142190D01*
X90052072Y-96074069D01*
X90068975Y-96053095D01*
X90495165Y-95626905D01*
X90557477Y-95592879D01*
X90584260Y-95590000D01*
X97464556Y-95590000D01*
X97532677Y-95610002D01*
G37*
G04 #@! TD.AperFunction*
M02*
