G04 #@! TF.GenerationSoftware,KiCad,Pcbnew,8.0.8*
G04 #@! TF.CreationDate,2025-03-14T23:10:00+01:00*
G04 #@! TF.ProjectId,epdiy-v7-raw,65706469-792d-4763-972d-7261772e6b69,1.1*
G04 #@! TF.SameCoordinates,Original*
G04 #@! TF.FileFunction,Paste,Top*
G04 #@! TF.FilePolarity,Positive*
%FSLAX46Y46*%
G04 Gerber Fmt 4.6, Leading zero omitted, Abs format (unit mm)*
G04 Created by KiCad (PCBNEW 8.0.8) date 2025-03-14 23:10:00*
%MOMM*%
%LPD*%
G01*
G04 APERTURE LIST*
G04 Aperture macros list*
%AMRoundRect*
0 Rectangle with rounded corners*
0 $1 Rounding radius*
0 $2 $3 $4 $5 $6 $7 $8 $9 X,Y pos of 4 corners*
0 Add a 4 corners polygon primitive as box body*
4,1,4,$2,$3,$4,$5,$6,$7,$8,$9,$2,$3,0*
0 Add four circle primitives for the rounded corners*
1,1,$1+$1,$2,$3*
1,1,$1+$1,$4,$5*
1,1,$1+$1,$6,$7*
1,1,$1+$1,$8,$9*
0 Add four rect primitives between the rounded corners*
20,1,$1+$1,$2,$3,$4,$5,0*
20,1,$1+$1,$4,$5,$6,$7,0*
20,1,$1+$1,$6,$7,$8,$9,0*
20,1,$1+$1,$8,$9,$2,$3,0*%
G04 Aperture macros list end*
%ADD10C,0.152400*%
%ADD11RoundRect,0.150000X-0.150000X0.512500X-0.150000X-0.512500X0.150000X-0.512500X0.150000X0.512500X0*%
%ADD12RoundRect,0.225000X-0.375000X0.225000X-0.375000X-0.225000X0.375000X-0.225000X0.375000X0.225000X0*%
%ADD13RoundRect,0.225000X0.375000X-0.225000X0.375000X0.225000X-0.375000X0.225000X-0.375000X-0.225000X0*%
%ADD14RoundRect,0.250000X0.250000X0.475000X-0.250000X0.475000X-0.250000X-0.475000X0.250000X-0.475000X0*%
%ADD15RoundRect,0.249999X-0.325001X-0.650001X0.325001X-0.650001X0.325001X0.650001X-0.325001X0.650001X0*%
%ADD16RoundRect,0.250000X-0.475000X0.250000X-0.475000X-0.250000X0.475000X-0.250000X0.475000X0.250000X0*%
%ADD17RoundRect,0.200000X0.275000X-0.200000X0.275000X0.200000X-0.275000X0.200000X-0.275000X-0.200000X0*%
%ADD18RoundRect,0.200000X-0.200000X-0.275000X0.200000X-0.275000X0.200000X0.275000X-0.200000X0.275000X0*%
%ADD19RoundRect,0.200000X-0.275000X0.200000X-0.275000X-0.200000X0.275000X-0.200000X0.275000X0.200000X0*%
%ADD20RoundRect,0.250000X-0.250000X-0.475000X0.250000X-0.475000X0.250000X0.475000X-0.250000X0.475000X0*%
%ADD21RoundRect,0.200000X0.200000X0.275000X-0.200000X0.275000X-0.200000X-0.275000X0.200000X-0.275000X0*%
%ADD22R,3.900000X2.200000*%
%ADD23R,4.200000X2.400000*%
%ADD24RoundRect,0.250000X0.475000X-0.250000X0.475000X0.250000X-0.475000X0.250000X-0.475000X-0.250000X0*%
%ADD25R,0.850000X0.200000*%
%ADD26R,0.200000X0.850000*%
%ADD27R,4.399999X4.399999*%
%ADD28R,0.838200X0.355600*%
%ADD29R,0.838200X0.406400*%
%ADD30R,2.800000X1.600000*%
%ADD31R,1.300000X0.250000*%
G04 APERTURE END LIST*
D10*
X95931070Y-102043001D02*
X95931070Y-102193000D01*
X95931070Y-102193000D02*
X96731069Y-102193000D01*
X95931070Y-102443000D02*
X95931070Y-102593000D01*
X95931070Y-102593000D02*
X96731069Y-102593000D01*
X95931070Y-102842999D02*
X95931070Y-102992999D01*
X95931070Y-102992999D02*
X96731069Y-102992999D01*
X95931070Y-103243001D02*
X95931070Y-103393001D01*
X95931070Y-103393001D02*
X96731069Y-103393001D01*
X95931070Y-103643000D02*
X95931070Y-103793000D01*
X95931070Y-103793000D02*
X96731069Y-103793000D01*
X95931070Y-104042999D02*
X95931070Y-104192999D01*
X95931070Y-104192999D02*
X96731069Y-104192999D01*
X95931070Y-104443001D02*
X95931070Y-104593001D01*
X95931070Y-104593001D02*
X96731069Y-104593001D01*
X95931070Y-104843000D02*
X95931070Y-104993000D01*
X95931070Y-104993000D02*
X96731069Y-104993000D01*
X95931070Y-105242999D02*
X95931070Y-105392999D01*
X95931070Y-105392999D02*
X96731069Y-105392999D01*
X95931070Y-105642999D02*
X95931070Y-105793001D01*
X95931070Y-105793001D02*
X96731069Y-105793001D01*
X95931070Y-106043000D02*
X95931070Y-106193000D01*
X95931070Y-106193000D02*
X96731069Y-106193000D01*
X95931070Y-106443000D02*
X95931070Y-106592999D01*
X95931070Y-106592999D02*
X96731069Y-106592999D01*
X96731069Y-102043001D02*
X95931070Y-102043001D01*
X96731069Y-102193000D02*
X96731069Y-102043001D01*
X96731069Y-102443000D02*
X95931070Y-102443000D01*
X96731069Y-102593000D02*
X96731069Y-102443000D01*
X96731069Y-102842999D02*
X95931070Y-102842999D01*
X96731069Y-102992999D02*
X96731069Y-102842999D01*
X96731069Y-103243001D02*
X95931070Y-103243001D01*
X96731069Y-103393001D02*
X96731069Y-103243001D01*
X96731069Y-103643000D02*
X95931070Y-103643000D01*
X96731069Y-103793000D02*
X96731069Y-103643000D01*
X96731069Y-104042999D02*
X95931070Y-104042999D01*
X96731069Y-104192999D02*
X96731069Y-104042999D01*
X96731069Y-104443001D02*
X95931070Y-104443001D01*
X96731069Y-104593001D02*
X96731069Y-104443001D01*
X96731069Y-104843000D02*
X95931070Y-104843000D01*
X96731069Y-104993000D02*
X96731069Y-104843000D01*
X96731069Y-105242999D02*
X95931070Y-105242999D01*
X96731069Y-105392999D02*
X96731069Y-105242999D01*
X96731069Y-105642999D02*
X95931070Y-105642999D01*
X96731069Y-105793001D02*
X96731069Y-105642999D01*
X96731069Y-106043000D02*
X95931070Y-106043000D01*
X96731069Y-106193000D02*
X96731069Y-106043000D01*
X96731069Y-106443000D02*
X95931070Y-106443000D01*
X96731069Y-106592999D02*
X96731069Y-106443000D01*
X97031071Y-100943000D02*
X97031071Y-101742999D01*
X97031071Y-101742999D02*
X97181070Y-101742999D01*
X97031071Y-106893001D02*
X97031071Y-107693000D01*
X97031071Y-107693000D02*
X97181070Y-107693000D01*
X97181001Y-102192931D02*
X97181001Y-102643200D01*
X97181001Y-102643200D02*
X97489849Y-102643200D01*
X97181001Y-102843200D02*
X97181001Y-103430600D01*
X97181001Y-103430600D02*
X97489849Y-103430600D01*
X97181001Y-103630600D02*
X97181001Y-104218000D01*
X97181001Y-104218000D02*
X97489849Y-104218000D01*
X97181001Y-104418000D02*
X97181001Y-105005400D01*
X97181001Y-105005400D02*
X97489849Y-105005400D01*
X97181001Y-105205400D02*
X97181001Y-105792800D01*
X97181001Y-105792800D02*
X97489849Y-105792800D01*
X97181001Y-105992800D02*
X97181001Y-106443069D01*
X97181001Y-106443069D02*
X97631270Y-106443069D01*
X97181070Y-100943000D02*
X97031071Y-100943000D01*
X97181070Y-101742999D02*
X97181070Y-100943000D01*
X97181070Y-106893001D02*
X97031071Y-106893001D01*
X97181070Y-107693000D02*
X97181070Y-106893001D01*
X97431070Y-100943000D02*
X97431070Y-101742999D01*
X97431070Y-101742999D02*
X97581070Y-101742999D01*
X97431070Y-106893001D02*
X97431070Y-107693000D01*
X97431070Y-107693000D02*
X97581070Y-107693000D01*
X97489849Y-102643200D02*
X97489849Y-102643200D01*
X97489849Y-102643200D02*
X97631270Y-102501779D01*
X97489849Y-102843200D02*
X97181001Y-102843200D01*
X97489849Y-102843200D02*
X97489849Y-102843200D01*
X97489849Y-103430600D02*
X97489849Y-103430600D01*
X97489849Y-103430600D02*
X97631270Y-103289179D01*
X97489849Y-103630600D02*
X97181001Y-103630600D01*
X97489849Y-103630600D02*
X97489849Y-103630600D01*
X97489849Y-104218000D02*
X97489849Y-104218000D01*
X97489849Y-104218000D02*
X97631270Y-104076579D01*
X97489849Y-104418000D02*
X97181001Y-104418000D01*
X97489849Y-104418000D02*
X97489849Y-104418000D01*
X97489849Y-105005400D02*
X97489849Y-105005400D01*
X97489849Y-105005400D02*
X97631270Y-104863979D01*
X97489849Y-105205400D02*
X97181001Y-105205400D01*
X97489849Y-105205400D02*
X97489849Y-105205400D01*
X97489849Y-105792800D02*
X97489849Y-105792800D01*
X97489849Y-105792800D02*
X97631270Y-105651379D01*
X97489849Y-105992800D02*
X97181001Y-105992800D01*
X97489849Y-105992800D02*
X97489849Y-105992800D01*
X97581070Y-100943000D02*
X97431070Y-100943000D01*
X97581070Y-101742999D02*
X97581070Y-100943000D01*
X97581070Y-106893001D02*
X97431070Y-106893001D01*
X97581070Y-107693000D02*
X97581070Y-106893001D01*
X97631270Y-102192931D02*
X97181001Y-102192931D01*
X97631270Y-102501779D02*
X97631270Y-102192931D01*
X97631270Y-102501779D02*
X97631270Y-102501779D01*
X97631270Y-102984621D02*
X97489849Y-102843200D01*
X97631270Y-102984621D02*
X97631270Y-102984621D01*
X97631270Y-103289179D02*
X97631270Y-102984621D01*
X97631270Y-103289179D02*
X97631270Y-103289179D01*
X97631270Y-103772021D02*
X97489849Y-103630600D01*
X97631270Y-103772021D02*
X97631270Y-103772021D01*
X97631270Y-104076579D02*
X97631270Y-103772021D01*
X97631270Y-104076579D02*
X97631270Y-104076579D01*
X97631270Y-104559421D02*
X97489849Y-104418000D01*
X97631270Y-104559421D02*
X97631270Y-104559421D01*
X97631270Y-104863979D02*
X97631270Y-104559421D01*
X97631270Y-104863979D02*
X97631270Y-104863979D01*
X97631270Y-105346821D02*
X97489849Y-105205400D01*
X97631270Y-105346821D02*
X97631270Y-105346821D01*
X97631270Y-105651379D02*
X97631270Y-105346821D01*
X97631270Y-105651379D02*
X97631270Y-105651379D01*
X97631270Y-106134221D02*
X97489849Y-105992800D01*
X97631270Y-106134221D02*
X97631270Y-106134221D01*
X97631270Y-106443069D02*
X97631270Y-106134221D01*
X97831069Y-100943000D02*
X97831069Y-101742999D01*
X97831069Y-101742999D02*
X97981071Y-101742999D01*
X97831069Y-106893001D02*
X97831069Y-107693000D01*
X97831069Y-107693000D02*
X97981069Y-107693000D01*
X97831270Y-102192931D02*
X97831270Y-102501779D01*
X97831270Y-102501779D02*
X97831270Y-102501779D01*
X97831270Y-102501779D02*
X97972691Y-102643200D01*
X97831270Y-102984621D02*
X97831270Y-102984621D01*
X97831270Y-102984621D02*
X97831270Y-103289179D01*
X97831270Y-103289179D02*
X97831270Y-103289179D01*
X97831270Y-103289179D02*
X97972691Y-103430600D01*
X97831270Y-103772021D02*
X97831270Y-103772021D01*
X97831270Y-103772021D02*
X97831270Y-104076579D01*
X97831270Y-104076579D02*
X97831270Y-104076579D01*
X97831270Y-104076579D02*
X97972691Y-104218000D01*
X97831270Y-104559421D02*
X97831270Y-104559421D01*
X97831270Y-104559421D02*
X97831270Y-104863979D01*
X97831270Y-104863979D02*
X97831270Y-104863979D01*
X97831270Y-104863979D02*
X97972691Y-105005400D01*
X97831270Y-105346821D02*
X97831270Y-105346821D01*
X97831270Y-105346821D02*
X97831270Y-105651379D01*
X97831270Y-105651379D02*
X97831270Y-105651379D01*
X97831270Y-105651379D02*
X97972691Y-105792800D01*
X97831270Y-106134221D02*
X97831270Y-106134221D01*
X97831270Y-106134221D02*
X97831270Y-106443069D01*
X97831270Y-106443069D02*
X98418670Y-106443069D01*
X97972691Y-102643200D02*
X97972691Y-102643200D01*
X97972691Y-102643200D02*
X98277249Y-102643200D01*
X97972691Y-102843200D02*
X97831270Y-102984621D01*
X97972691Y-102843200D02*
X97972691Y-102843200D01*
X97972691Y-103430600D02*
X97972691Y-103430600D01*
X97972691Y-103430600D02*
X98277249Y-103430600D01*
X97972691Y-103630600D02*
X97831270Y-103772021D01*
X97972691Y-103630600D02*
X97972691Y-103630600D01*
X97972691Y-104218000D02*
X97972691Y-104218000D01*
X97972691Y-104218000D02*
X98277249Y-104218000D01*
X97972691Y-104418000D02*
X97831270Y-104559421D01*
X97972691Y-104418000D02*
X97972691Y-104418000D01*
X97972691Y-105005400D02*
X97972691Y-105005400D01*
X97972691Y-105005400D02*
X98277249Y-105005400D01*
X97972691Y-105205400D02*
X97831270Y-105346821D01*
X97972691Y-105205400D02*
X97972691Y-105205400D01*
X97972691Y-105792800D02*
X97972691Y-105792800D01*
X97972691Y-105792800D02*
X98277249Y-105792800D01*
X97972691Y-105992800D02*
X97831270Y-106134221D01*
X97972691Y-105992800D02*
X97972691Y-105992800D01*
X97981069Y-106893001D02*
X97831069Y-106893001D01*
X97981069Y-107693000D02*
X97981069Y-106893001D01*
X97981071Y-100943000D02*
X97831069Y-100943000D01*
X97981071Y-101742999D02*
X97981071Y-100943000D01*
X98231071Y-100943000D02*
X98231071Y-101742999D01*
X98231071Y-101742999D02*
X98381071Y-101742999D01*
X98231071Y-106893001D02*
X98231071Y-107693000D01*
X98231071Y-107693000D02*
X98381071Y-107693000D01*
X98277249Y-102643200D02*
X98277249Y-102643200D01*
X98277249Y-102643200D02*
X98418670Y-102501779D01*
X98277249Y-102843200D02*
X97972691Y-102843200D01*
X98277249Y-102843200D02*
X98277249Y-102843200D01*
X98277249Y-103430600D02*
X98277249Y-103430600D01*
X98277249Y-103430600D02*
X98418670Y-103289179D01*
X98277249Y-103630600D02*
X97972691Y-103630600D01*
X98277249Y-103630600D02*
X98277249Y-103630600D01*
X98277249Y-104218000D02*
X98277249Y-104218000D01*
X98277249Y-104218000D02*
X98418670Y-104076579D01*
X98277249Y-104418000D02*
X97972691Y-104418000D01*
X98277249Y-104418000D02*
X98277249Y-104418000D01*
X98277249Y-105005400D02*
X98277249Y-105005400D01*
X98277249Y-105005400D02*
X98418670Y-104863979D01*
X98277249Y-105205400D02*
X97972691Y-105205400D01*
X98277249Y-105205400D02*
X98277249Y-105205400D01*
X98277249Y-105792800D02*
X98277249Y-105792800D01*
X98277249Y-105792800D02*
X98418670Y-105651379D01*
X98277249Y-105992800D02*
X97972691Y-105992800D01*
X98277249Y-105992800D02*
X98277249Y-105992800D01*
X98381071Y-100943000D02*
X98231071Y-100943000D01*
X98381071Y-101742999D02*
X98381071Y-100943000D01*
X98381071Y-106893001D02*
X98231071Y-106893001D01*
X98381071Y-107693000D02*
X98381071Y-106893001D01*
X98418670Y-102192931D02*
X97831270Y-102192931D01*
X98418670Y-102501779D02*
X98418670Y-102192931D01*
X98418670Y-102501779D02*
X98418670Y-102501779D01*
X98418670Y-102984621D02*
X98277249Y-102843200D01*
X98418670Y-102984621D02*
X98418670Y-102984621D01*
X98418670Y-103289179D02*
X98418670Y-102984621D01*
X98418670Y-103289179D02*
X98418670Y-103289179D01*
X98418670Y-103772021D02*
X98277249Y-103630600D01*
X98418670Y-103772021D02*
X98418670Y-103772021D01*
X98418670Y-104076579D02*
X98418670Y-103772021D01*
X98418670Y-104076579D02*
X98418670Y-104076579D01*
X98418670Y-104559421D02*
X98277249Y-104418000D01*
X98418670Y-104559421D02*
X98418670Y-104559421D01*
X98418670Y-104863979D02*
X98418670Y-104559421D01*
X98418670Y-104863979D02*
X98418670Y-104863979D01*
X98418670Y-105346821D02*
X98277249Y-105205400D01*
X98418670Y-105346821D02*
X98418670Y-105346821D01*
X98418670Y-105651379D02*
X98418670Y-105346821D01*
X98418670Y-105651379D02*
X98418670Y-105651379D01*
X98418670Y-106134221D02*
X98277249Y-105992800D01*
X98418670Y-106134221D02*
X98418670Y-106134221D01*
X98418670Y-106443069D02*
X98418670Y-106134221D01*
X98618670Y-102192931D02*
X98618670Y-102501779D01*
X98618670Y-102501779D02*
X98618670Y-102501779D01*
X98618670Y-102501779D02*
X98760091Y-102643200D01*
X98618670Y-102984621D02*
X98618670Y-102984621D01*
X98618670Y-102984621D02*
X98618670Y-103289179D01*
X98618670Y-103289179D02*
X98618670Y-103289179D01*
X98618670Y-103289179D02*
X98760091Y-103430600D01*
X98618670Y-103772021D02*
X98618670Y-103772021D01*
X98618670Y-103772021D02*
X98618670Y-104076579D01*
X98618670Y-104076579D02*
X98618670Y-104076579D01*
X98618670Y-104076579D02*
X98760091Y-104218000D01*
X98618670Y-104559421D02*
X98618670Y-104559421D01*
X98618670Y-104559421D02*
X98618670Y-104863979D01*
X98618670Y-104863979D02*
X98618670Y-104863979D01*
X98618670Y-104863979D02*
X98760091Y-105005400D01*
X98618670Y-105346821D02*
X98618670Y-105346821D01*
X98618670Y-105346821D02*
X98618670Y-105651379D01*
X98618670Y-105651379D02*
X98618670Y-105651379D01*
X98618670Y-105651379D02*
X98760091Y-105792800D01*
X98618670Y-106134221D02*
X98618670Y-106134221D01*
X98618670Y-106134221D02*
X98618670Y-106443069D01*
X98618670Y-106443069D02*
X99206070Y-106443069D01*
X98631070Y-100943000D02*
X98631070Y-101742999D01*
X98631070Y-101742999D02*
X98781070Y-101742999D01*
X98631070Y-106893001D02*
X98631070Y-107693000D01*
X98631070Y-107693000D02*
X98781070Y-107693000D01*
X98760091Y-102643200D02*
X98760091Y-102643200D01*
X98760091Y-102643200D02*
X99064649Y-102643200D01*
X98760091Y-102843200D02*
X98618670Y-102984621D01*
X98760091Y-102843200D02*
X98760091Y-102843200D01*
X98760091Y-103430600D02*
X98760091Y-103430600D01*
X98760091Y-103430600D02*
X99064649Y-103430600D01*
X98760091Y-103630600D02*
X98618670Y-103772021D01*
X98760091Y-103630600D02*
X98760091Y-103630600D01*
X98760091Y-104218000D02*
X98760091Y-104218000D01*
X98760091Y-104218000D02*
X99064649Y-104218000D01*
X98760091Y-104418000D02*
X98618670Y-104559421D01*
X98760091Y-104418000D02*
X98760091Y-104418000D01*
X98760091Y-105005400D02*
X98760091Y-105005400D01*
X98760091Y-105005400D02*
X99064649Y-105005400D01*
X98760091Y-105205400D02*
X98618670Y-105346821D01*
X98760091Y-105205400D02*
X98760091Y-105205400D01*
X98760091Y-105792800D02*
X98760091Y-105792800D01*
X98760091Y-105792800D02*
X99064649Y-105792800D01*
X98760091Y-105992800D02*
X98618670Y-106134221D01*
X98760091Y-105992800D02*
X98760091Y-105992800D01*
X98781070Y-100943000D02*
X98631070Y-100943000D01*
X98781070Y-101742999D02*
X98781070Y-100943000D01*
X98781070Y-106893001D02*
X98631070Y-106893001D01*
X98781070Y-107693000D02*
X98781070Y-106893001D01*
X99031069Y-100943000D02*
X99031069Y-101742999D01*
X99031069Y-101742999D02*
X99181069Y-101742999D01*
X99031069Y-106893001D02*
X99031069Y-107693000D01*
X99031069Y-107693000D02*
X99181069Y-107693000D01*
X99064649Y-102643200D02*
X99064649Y-102643200D01*
X99064649Y-102643200D02*
X99206070Y-102501779D01*
X99064649Y-102843200D02*
X98760091Y-102843200D01*
X99064649Y-102843200D02*
X99064649Y-102843200D01*
X99064649Y-103430600D02*
X99064649Y-103430600D01*
X99064649Y-103430600D02*
X99206070Y-103289179D01*
X99064649Y-103630600D02*
X98760091Y-103630600D01*
X99064649Y-103630600D02*
X99064649Y-103630600D01*
X99064649Y-104218000D02*
X99064649Y-104218000D01*
X99064649Y-104218000D02*
X99206070Y-104076579D01*
X99064649Y-104418000D02*
X98760091Y-104418000D01*
X99064649Y-104418000D02*
X99064649Y-104418000D01*
X99064649Y-105005400D02*
X99064649Y-105005400D01*
X99064649Y-105005400D02*
X99206070Y-104863979D01*
X99064649Y-105205400D02*
X98760091Y-105205400D01*
X99064649Y-105205400D02*
X99064649Y-105205400D01*
X99064649Y-105792800D02*
X99064649Y-105792800D01*
X99064649Y-105792800D02*
X99206070Y-105651379D01*
X99064649Y-105992800D02*
X98760091Y-105992800D01*
X99064649Y-105992800D02*
X99064649Y-105992800D01*
X99181069Y-100943000D02*
X99031069Y-100943000D01*
X99181069Y-101742999D02*
X99181069Y-100943000D01*
X99181069Y-106893001D02*
X99031069Y-106893001D01*
X99181069Y-107693000D02*
X99181069Y-106893001D01*
X99206070Y-102192931D02*
X98618670Y-102192931D01*
X99206070Y-102501779D02*
X99206070Y-102192931D01*
X99206070Y-102501779D02*
X99206070Y-102501779D01*
X99206070Y-102984621D02*
X99064649Y-102843200D01*
X99206070Y-102984621D02*
X99206070Y-102984621D01*
X99206070Y-103289179D02*
X99206070Y-102984621D01*
X99206070Y-103289179D02*
X99206070Y-103289179D01*
X99206070Y-103772021D02*
X99064649Y-103630600D01*
X99206070Y-103772021D02*
X99206070Y-103772021D01*
X99206070Y-104076579D02*
X99206070Y-103772021D01*
X99206070Y-104076579D02*
X99206070Y-104076579D01*
X99206070Y-104559421D02*
X99064649Y-104418000D01*
X99206070Y-104559421D02*
X99206070Y-104559421D01*
X99206070Y-104863979D02*
X99206070Y-104559421D01*
X99206070Y-104863979D02*
X99206070Y-104863979D01*
X99206070Y-105346821D02*
X99064649Y-105205400D01*
X99206070Y-105346821D02*
X99206070Y-105346821D01*
X99206070Y-105651379D02*
X99206070Y-105346821D01*
X99206070Y-105651379D02*
X99206070Y-105651379D01*
X99206070Y-106134221D02*
X99064649Y-105992800D01*
X99206070Y-106134221D02*
X99206070Y-106134221D01*
X99206070Y-106443069D02*
X99206070Y-106134221D01*
X99406070Y-102192931D02*
X99406070Y-102501779D01*
X99406070Y-102501779D02*
X99406070Y-102501779D01*
X99406070Y-102501779D02*
X99547491Y-102643200D01*
X99406070Y-102984621D02*
X99406070Y-102984621D01*
X99406070Y-102984621D02*
X99406070Y-103289179D01*
X99406070Y-103289179D02*
X99406070Y-103289179D01*
X99406070Y-103289179D02*
X99547491Y-103430600D01*
X99406070Y-103772021D02*
X99406070Y-103772021D01*
X99406070Y-103772021D02*
X99406070Y-104076579D01*
X99406070Y-104076579D02*
X99406070Y-104076579D01*
X99406070Y-104076579D02*
X99547491Y-104218000D01*
X99406070Y-104559421D02*
X99406070Y-104559421D01*
X99406070Y-104559421D02*
X99406070Y-104863979D01*
X99406070Y-104863979D02*
X99406070Y-104863979D01*
X99406070Y-104863979D02*
X99547491Y-105005400D01*
X99406070Y-105346821D02*
X99406070Y-105346821D01*
X99406070Y-105346821D02*
X99406070Y-105651379D01*
X99406070Y-105651379D02*
X99406070Y-105651379D01*
X99406070Y-105651379D02*
X99547491Y-105792800D01*
X99406070Y-106134221D02*
X99406070Y-106134221D01*
X99406070Y-106134221D02*
X99406070Y-106443069D01*
X99406070Y-106443069D02*
X99993470Y-106443069D01*
X99431071Y-100943000D02*
X99431071Y-101742999D01*
X99431071Y-101742999D02*
X99581071Y-101742999D01*
X99431071Y-106893001D02*
X99431071Y-107693000D01*
X99431071Y-107693000D02*
X99581071Y-107693000D01*
X99547491Y-102643200D02*
X99547491Y-102643200D01*
X99547491Y-102643200D02*
X99852049Y-102643200D01*
X99547491Y-102843200D02*
X99406070Y-102984621D01*
X99547491Y-102843200D02*
X99547491Y-102843200D01*
X99547491Y-103430600D02*
X99547491Y-103430600D01*
X99547491Y-103430600D02*
X99852049Y-103430600D01*
X99547491Y-103630600D02*
X99406070Y-103772021D01*
X99547491Y-103630600D02*
X99547491Y-103630600D01*
X99547491Y-104218000D02*
X99547491Y-104218000D01*
X99547491Y-104218000D02*
X99852049Y-104218000D01*
X99547491Y-104418000D02*
X99406070Y-104559421D01*
X99547491Y-104418000D02*
X99547491Y-104418000D01*
X99547491Y-105005400D02*
X99547491Y-105005400D01*
X99547491Y-105005400D02*
X99852049Y-105005400D01*
X99547491Y-105205400D02*
X99406070Y-105346821D01*
X99547491Y-105205400D02*
X99547491Y-105205400D01*
X99547491Y-105792800D02*
X99547491Y-105792800D01*
X99547491Y-105792800D02*
X99852049Y-105792800D01*
X99547491Y-105992800D02*
X99406070Y-106134221D01*
X99547491Y-105992800D02*
X99547491Y-105992800D01*
X99581071Y-100943000D02*
X99431071Y-100943000D01*
X99581071Y-101742999D02*
X99581071Y-100943000D01*
X99581071Y-106893001D02*
X99431071Y-106893001D01*
X99581071Y-107693000D02*
X99581071Y-106893001D01*
X99831070Y-100943000D02*
X99831070Y-101742999D01*
X99831070Y-101742999D02*
X99981070Y-101742999D01*
X99831070Y-106893001D02*
X99831070Y-107693000D01*
X99831070Y-107693000D02*
X99981070Y-107693000D01*
X99852049Y-102643200D02*
X99852049Y-102643200D01*
X99852049Y-102643200D02*
X99993470Y-102501779D01*
X99852049Y-102843200D02*
X99547491Y-102843200D01*
X99852049Y-102843200D02*
X99852049Y-102843200D01*
X99852049Y-103430600D02*
X99852049Y-103430600D01*
X99852049Y-103430600D02*
X99993470Y-103289179D01*
X99852049Y-103630600D02*
X99547491Y-103630600D01*
X99852049Y-103630600D02*
X99852049Y-103630600D01*
X99852049Y-104218000D02*
X99852049Y-104218000D01*
X99852049Y-104218000D02*
X99993470Y-104076579D01*
X99852049Y-104418000D02*
X99547491Y-104418000D01*
X99852049Y-104418000D02*
X99852049Y-104418000D01*
X99852049Y-105005400D02*
X99852049Y-105005400D01*
X99852049Y-105005400D02*
X99993470Y-104863979D01*
X99852049Y-105205400D02*
X99547491Y-105205400D01*
X99852049Y-105205400D02*
X99852049Y-105205400D01*
X99852049Y-105792800D02*
X99852049Y-105792800D01*
X99852049Y-105792800D02*
X99993470Y-105651379D01*
X99852049Y-105992800D02*
X99547491Y-105992800D01*
X99852049Y-105992800D02*
X99852049Y-105992800D01*
X99981070Y-100943000D02*
X99831070Y-100943000D01*
X99981070Y-101742999D02*
X99981070Y-100943000D01*
X99981070Y-106893001D02*
X99831070Y-106893001D01*
X99981070Y-107693000D02*
X99981070Y-106893001D01*
X99993470Y-102192931D02*
X99406070Y-102192931D01*
X99993470Y-102501779D02*
X99993470Y-102192931D01*
X99993470Y-102501779D02*
X99993470Y-102501779D01*
X99993470Y-102984621D02*
X99852049Y-102843200D01*
X99993470Y-102984621D02*
X99993470Y-102984621D01*
X99993470Y-103289179D02*
X99993470Y-102984621D01*
X99993470Y-103289179D02*
X99993470Y-103289179D01*
X99993470Y-103772021D02*
X99852049Y-103630600D01*
X99993470Y-103772021D02*
X99993470Y-103772021D01*
X99993470Y-104076579D02*
X99993470Y-103772021D01*
X99993470Y-104076579D02*
X99993470Y-104076579D01*
X99993470Y-104559421D02*
X99852049Y-104418000D01*
X99993470Y-104559421D02*
X99993470Y-104559421D01*
X99993470Y-104863979D02*
X99993470Y-104559421D01*
X99993470Y-104863979D02*
X99993470Y-104863979D01*
X99993470Y-105346821D02*
X99852049Y-105205400D01*
X99993470Y-105346821D02*
X99993470Y-105346821D01*
X99993470Y-105651379D02*
X99993470Y-105346821D01*
X99993470Y-105651379D02*
X99993470Y-105651379D01*
X99993470Y-106134221D02*
X99852049Y-105992800D01*
X99993470Y-106134221D02*
X99993470Y-106134221D01*
X99993470Y-106443069D02*
X99993470Y-106134221D01*
X100193470Y-102192931D02*
X100193470Y-102501779D01*
X100193470Y-102501779D02*
X100193470Y-102501779D01*
X100193470Y-102501779D02*
X100334891Y-102643200D01*
X100193470Y-102984621D02*
X100193470Y-102984621D01*
X100193470Y-102984621D02*
X100193470Y-103289179D01*
X100193470Y-103289179D02*
X100193470Y-103289179D01*
X100193470Y-103289179D02*
X100334891Y-103430600D01*
X100193470Y-103772021D02*
X100193470Y-103772021D01*
X100193470Y-103772021D02*
X100193470Y-104076579D01*
X100193470Y-104076579D02*
X100193470Y-104076579D01*
X100193470Y-104076579D02*
X100334891Y-104218000D01*
X100193470Y-104559421D02*
X100193470Y-104559421D01*
X100193470Y-104559421D02*
X100193470Y-104863979D01*
X100193470Y-104863979D02*
X100193470Y-104863979D01*
X100193470Y-104863979D02*
X100334891Y-105005400D01*
X100193470Y-105346821D02*
X100193470Y-105346821D01*
X100193470Y-105346821D02*
X100193470Y-105651379D01*
X100193470Y-105651379D02*
X100193470Y-105651379D01*
X100193470Y-105651379D02*
X100334891Y-105792800D01*
X100193470Y-106134221D02*
X100193470Y-106134221D01*
X100193470Y-106134221D02*
X100193470Y-106443069D01*
X100193470Y-106443069D02*
X100780870Y-106443069D01*
X100231069Y-100943000D02*
X100231069Y-101742999D01*
X100231069Y-101742999D02*
X100381069Y-101742999D01*
X100231069Y-106893001D02*
X100231069Y-107693000D01*
X100231069Y-107693000D02*
X100381069Y-107693000D01*
X100334891Y-102643200D02*
X100334891Y-102643200D01*
X100334891Y-102643200D02*
X100639449Y-102643200D01*
X100334891Y-102843200D02*
X100193470Y-102984621D01*
X100334891Y-102843200D02*
X100334891Y-102843200D01*
X100334891Y-103430600D02*
X100334891Y-103430600D01*
X100334891Y-103430600D02*
X100639449Y-103430600D01*
X100334891Y-103630600D02*
X100193470Y-103772021D01*
X100334891Y-103630600D02*
X100334891Y-103630600D01*
X100334891Y-104218000D02*
X100334891Y-104218000D01*
X100334891Y-104218000D02*
X100639449Y-104218000D01*
X100334891Y-104418000D02*
X100193470Y-104559421D01*
X100334891Y-104418000D02*
X100334891Y-104418000D01*
X100334891Y-105005400D02*
X100334891Y-105005400D01*
X100334891Y-105005400D02*
X100639449Y-105005400D01*
X100334891Y-105205400D02*
X100193470Y-105346821D01*
X100334891Y-105205400D02*
X100334891Y-105205400D01*
X100334891Y-105792800D02*
X100334891Y-105792800D01*
X100334891Y-105792800D02*
X100639449Y-105792800D01*
X100334891Y-105992800D02*
X100193470Y-106134221D01*
X100334891Y-105992800D02*
X100334891Y-105992800D01*
X100381069Y-100943000D02*
X100231069Y-100943000D01*
X100381069Y-101742999D02*
X100381069Y-100943000D01*
X100381069Y-106893001D02*
X100231069Y-106893001D01*
X100381069Y-107693000D02*
X100381069Y-106893001D01*
X100631069Y-106893001D02*
X100631069Y-107693000D01*
X100631069Y-107693000D02*
X100781071Y-107693000D01*
X100631071Y-100943000D02*
X100631071Y-101742999D01*
X100631071Y-101742999D02*
X100781071Y-101742999D01*
X100639449Y-102643200D02*
X100639449Y-102643200D01*
X100639449Y-102643200D02*
X100780870Y-102501779D01*
X100639449Y-102843200D02*
X100334891Y-102843200D01*
X100639449Y-102843200D02*
X100639449Y-102843200D01*
X100639449Y-103430600D02*
X100639449Y-103430600D01*
X100639449Y-103430600D02*
X100780870Y-103289179D01*
X100639449Y-103630600D02*
X100334891Y-103630600D01*
X100639449Y-103630600D02*
X100639449Y-103630600D01*
X100639449Y-104218000D02*
X100639449Y-104218000D01*
X100639449Y-104218000D02*
X100780870Y-104076579D01*
X100639449Y-104418000D02*
X100334891Y-104418000D01*
X100639449Y-104418000D02*
X100639449Y-104418000D01*
X100639449Y-105005400D02*
X100639449Y-105005400D01*
X100639449Y-105005400D02*
X100780870Y-104863979D01*
X100639449Y-105205400D02*
X100334891Y-105205400D01*
X100639449Y-105205400D02*
X100639449Y-105205400D01*
X100639449Y-105792800D02*
X100639449Y-105792800D01*
X100639449Y-105792800D02*
X100780870Y-105651379D01*
X100639449Y-105992800D02*
X100334891Y-105992800D01*
X100639449Y-105992800D02*
X100639449Y-105992800D01*
X100780870Y-102192931D02*
X100193470Y-102192931D01*
X100780870Y-102501779D02*
X100780870Y-102192931D01*
X100780870Y-102501779D02*
X100780870Y-102501779D01*
X100780870Y-102984621D02*
X100639449Y-102843200D01*
X100780870Y-102984621D02*
X100780870Y-102984621D01*
X100780870Y-103289179D02*
X100780870Y-102984621D01*
X100780870Y-103289179D02*
X100780870Y-103289179D01*
X100780870Y-103772021D02*
X100639449Y-103630600D01*
X100780870Y-103772021D02*
X100780870Y-103772021D01*
X100780870Y-104076579D02*
X100780870Y-103772021D01*
X100780870Y-104076579D02*
X100780870Y-104076579D01*
X100780870Y-104559421D02*
X100639449Y-104418000D01*
X100780870Y-104559421D02*
X100780870Y-104559421D01*
X100780870Y-104863979D02*
X100780870Y-104559421D01*
X100780870Y-104863979D02*
X100780870Y-104863979D01*
X100780870Y-105346821D02*
X100639449Y-105205400D01*
X100780870Y-105346821D02*
X100780870Y-105346821D01*
X100780870Y-105651379D02*
X100780870Y-105346821D01*
X100780870Y-105651379D02*
X100780870Y-105651379D01*
X100780870Y-106134221D02*
X100639449Y-105992800D01*
X100780870Y-106134221D02*
X100780870Y-106134221D01*
X100780870Y-106443069D02*
X100780870Y-106134221D01*
X100781071Y-100943000D02*
X100631071Y-100943000D01*
X100781071Y-101742999D02*
X100781071Y-100943000D01*
X100781071Y-106893001D02*
X100631069Y-106893001D01*
X100781071Y-107693000D02*
X100781071Y-106893001D01*
X100980870Y-102192931D02*
X100980870Y-102501779D01*
X100980870Y-102501779D02*
X100980870Y-102501779D01*
X100980870Y-102501779D02*
X101122291Y-102643200D01*
X100980870Y-102984621D02*
X100980870Y-102984621D01*
X100980870Y-102984621D02*
X100980870Y-103289179D01*
X100980870Y-103289179D02*
X100980870Y-103289179D01*
X100980870Y-103289179D02*
X101122291Y-103430600D01*
X100980870Y-103772021D02*
X100980870Y-103772021D01*
X100980870Y-103772021D02*
X100980870Y-104076579D01*
X100980870Y-104076579D02*
X100980870Y-104076579D01*
X100980870Y-104076579D02*
X101122291Y-104218000D01*
X100980870Y-104559421D02*
X100980870Y-104559421D01*
X100980870Y-104559421D02*
X100980870Y-104863979D01*
X100980870Y-104863979D02*
X100980870Y-104863979D01*
X100980870Y-104863979D02*
X101122291Y-105005400D01*
X100980870Y-105346821D02*
X100980870Y-105346821D01*
X100980870Y-105346821D02*
X100980870Y-105651379D01*
X100980870Y-105651379D02*
X100980870Y-105651379D01*
X100980870Y-105651379D02*
X101122291Y-105792800D01*
X100980870Y-106134221D02*
X100980870Y-106134221D01*
X100980870Y-106134221D02*
X100980870Y-106443069D01*
X100980870Y-106443069D02*
X101431139Y-106443069D01*
X101031070Y-100943000D02*
X101031070Y-101742999D01*
X101031070Y-101742999D02*
X101181070Y-101742999D01*
X101031070Y-106893001D02*
X101031070Y-107693000D01*
X101031070Y-107693000D02*
X101181070Y-107693000D01*
X101122291Y-102643200D02*
X101122291Y-102643200D01*
X101122291Y-102643200D02*
X101431139Y-102643200D01*
X101122291Y-102843200D02*
X100980870Y-102984621D01*
X101122291Y-102843200D02*
X101122291Y-102843200D01*
X101122291Y-103430600D02*
X101122291Y-103430600D01*
X101122291Y-103430600D02*
X101431139Y-103430600D01*
X101122291Y-103630600D02*
X100980870Y-103772021D01*
X101122291Y-103630600D02*
X101122291Y-103630600D01*
X101122291Y-104218000D02*
X101122291Y-104218000D01*
X101122291Y-104218000D02*
X101431139Y-104218000D01*
X101122291Y-104418000D02*
X100980870Y-104559421D01*
X101122291Y-104418000D02*
X101122291Y-104418000D01*
X101122291Y-105005400D02*
X101122291Y-105005400D01*
X101122291Y-105005400D02*
X101431139Y-105005400D01*
X101122291Y-105205400D02*
X100980870Y-105346821D01*
X101122291Y-105205400D02*
X101122291Y-105205400D01*
X101122291Y-105792800D02*
X101122291Y-105792800D01*
X101122291Y-105792800D02*
X101431139Y-105792800D01*
X101122291Y-105992800D02*
X100980870Y-106134221D01*
X101122291Y-105992800D02*
X101122291Y-105992800D01*
X101181070Y-100943000D02*
X101031070Y-100943000D01*
X101181070Y-101742999D02*
X101181070Y-100943000D01*
X101181070Y-106893001D02*
X101031070Y-106893001D01*
X101181070Y-107693000D02*
X101181070Y-106893001D01*
X101431070Y-100943000D02*
X101431070Y-101742999D01*
X101431070Y-101742999D02*
X101581069Y-101742999D01*
X101431070Y-106893001D02*
X101431070Y-107693000D01*
X101431070Y-107693000D02*
X101581069Y-107693000D01*
X101431139Y-102192931D02*
X100980870Y-102192931D01*
X101431139Y-102643200D02*
X101431139Y-102192931D01*
X101431139Y-102843200D02*
X101122291Y-102843200D01*
X101431139Y-103430600D02*
X101431139Y-102843200D01*
X101431139Y-103630600D02*
X101122291Y-103630600D01*
X101431139Y-104218000D02*
X101431139Y-103630600D01*
X101431139Y-104418000D02*
X101122291Y-104418000D01*
X101431139Y-105005400D02*
X101431139Y-104418000D01*
X101431139Y-105205400D02*
X101122291Y-105205400D01*
X101431139Y-105792800D02*
X101431139Y-105205400D01*
X101431139Y-105992800D02*
X101122291Y-105992800D01*
X101431139Y-106443069D02*
X101431139Y-105992800D01*
X101581069Y-100943000D02*
X101431070Y-100943000D01*
X101581069Y-101742999D02*
X101581069Y-100943000D01*
X101581069Y-106893001D02*
X101431070Y-106893001D01*
X101581069Y-107693000D02*
X101581069Y-106893001D01*
X101881071Y-102043001D02*
X101881071Y-102193000D01*
X101881071Y-102193000D02*
X102681070Y-102193000D01*
X101881071Y-102443000D02*
X101881071Y-102593000D01*
X101881071Y-102593000D02*
X102681070Y-102593000D01*
X101881071Y-102842999D02*
X101881071Y-102993001D01*
X101881071Y-102993001D02*
X102681070Y-102993001D01*
X101881071Y-103243001D02*
X101881071Y-103393001D01*
X101881071Y-103393001D02*
X102681070Y-103393001D01*
X101881071Y-103643000D02*
X101881071Y-103793000D01*
X101881071Y-103793000D02*
X102681070Y-103793000D01*
X101881071Y-104042999D02*
X101881071Y-104192999D01*
X101881071Y-104192999D02*
X102681070Y-104192999D01*
X101881071Y-104443001D02*
X101881071Y-104593001D01*
X101881071Y-104593001D02*
X102681070Y-104593001D01*
X101881071Y-104843000D02*
X101881071Y-104993000D01*
X101881071Y-104993000D02*
X102681070Y-104993000D01*
X101881071Y-105242999D02*
X101881071Y-105392999D01*
X101881071Y-105392999D02*
X102681070Y-105392999D01*
X101881071Y-105643001D02*
X101881071Y-105793001D01*
X101881071Y-105793001D02*
X102681070Y-105793001D01*
X101881071Y-106043000D02*
X101881071Y-106193000D01*
X101881071Y-106193000D02*
X102681070Y-106193000D01*
X101881071Y-106443000D02*
X101881071Y-106592999D01*
X101881071Y-106592999D02*
X102681070Y-106592999D01*
X102681070Y-102043001D02*
X101881071Y-102043001D01*
X102681070Y-102193000D02*
X102681070Y-102043001D01*
X102681070Y-102443000D02*
X101881071Y-102443000D01*
X102681070Y-102593000D02*
X102681070Y-102443000D01*
X102681070Y-102842999D02*
X101881071Y-102842999D01*
X102681070Y-102993001D02*
X102681070Y-102842999D01*
X102681070Y-103243001D02*
X101881071Y-103243001D01*
X102681070Y-103393001D02*
X102681070Y-103243001D01*
X102681070Y-103643000D02*
X101881071Y-103643000D01*
X102681070Y-103793000D02*
X102681070Y-103643000D01*
X102681070Y-104042999D02*
X101881071Y-104042999D01*
X102681070Y-104192999D02*
X102681070Y-104042999D01*
X102681070Y-104443001D02*
X101881071Y-104443001D01*
X102681070Y-104593001D02*
X102681070Y-104443001D01*
X102681070Y-104843000D02*
X101881071Y-104843000D01*
X102681070Y-104993000D02*
X102681070Y-104843000D01*
X102681070Y-105242999D02*
X101881071Y-105242999D01*
X102681070Y-105392999D02*
X102681070Y-105242999D01*
X102681070Y-105643001D02*
X101881071Y-105643001D01*
X102681070Y-105793001D02*
X102681070Y-105643001D01*
X102681070Y-106043000D02*
X101881071Y-106043000D01*
X102681070Y-106193000D02*
X102681070Y-106043000D01*
X102681070Y-106443000D02*
X101881071Y-106443000D01*
X102681070Y-106592999D02*
X102681070Y-106443000D01*
D11*
X114032070Y-100352500D03*
X113082070Y-100352500D03*
X112132070Y-100352500D03*
X112132070Y-102627500D03*
X114032070Y-102627500D03*
D12*
X85082070Y-108764000D03*
X85082070Y-112064000D03*
D13*
X87622070Y-112064000D03*
X87622070Y-108764000D03*
D12*
X85082070Y-99620000D03*
X85082070Y-102920000D03*
D13*
X87622070Y-102920000D03*
X87622070Y-99620000D03*
X98671070Y-114731000D03*
X98671070Y-111431000D03*
D12*
X98544070Y-93778000D03*
X98544070Y-97078000D03*
D14*
X113982070Y-104890000D03*
X112082070Y-104890000D03*
X108892070Y-110160000D03*
X106992070Y-110160000D03*
X117483333Y-112125000D03*
X115583333Y-112125000D03*
D15*
X121575000Y-88925000D03*
X124525000Y-88925000D03*
D16*
X118505000Y-120050000D03*
X118505000Y-121950000D03*
D15*
X115658333Y-115370000D03*
X118608333Y-115370000D03*
D16*
X122432000Y-120047000D03*
X122432000Y-121947000D03*
D17*
X106363270Y-114761600D03*
X106363270Y-113111600D03*
D18*
X121575000Y-86775000D03*
X123225000Y-86775000D03*
D19*
X116575000Y-119997000D03*
X116575000Y-121647000D03*
D18*
X115650000Y-118000000D03*
X117300000Y-118000000D03*
D19*
X120400000Y-119922000D03*
X120400000Y-121572000D03*
X108395270Y-113111600D03*
X108395270Y-114761600D03*
D16*
X105402070Y-94986000D03*
X105402070Y-96886000D03*
D20*
X106992070Y-98730000D03*
X108892070Y-98730000D03*
D21*
X87939070Y-104572000D03*
X86289070Y-104572000D03*
D22*
X94988070Y-115743000D03*
X94988070Y-111943000D03*
D23*
X91940070Y-97424000D03*
X91940070Y-92924000D03*
D21*
X84637070Y-106858000D03*
X82987070Y-106858000D03*
X87939070Y-106858000D03*
X86289070Y-106858000D03*
X84637070Y-104572000D03*
X82987070Y-104572000D03*
D24*
X98544070Y-118349000D03*
X98544070Y-116449000D03*
X103370070Y-113396000D03*
X103370070Y-111496000D03*
D14*
X91620070Y-103556000D03*
X89720070Y-103556000D03*
D20*
X89720070Y-106350000D03*
X91620070Y-106350000D03*
D25*
X102281070Y-106518001D03*
X102281070Y-106117999D03*
X102281070Y-105718000D03*
X102281070Y-105318001D03*
X102281070Y-104917999D03*
X102281070Y-104518000D03*
X102281070Y-104118000D03*
X102281070Y-103718001D03*
X102281070Y-103317999D03*
X102281070Y-102918000D03*
X102281070Y-102518001D03*
X102281070Y-102117999D03*
D26*
X101506071Y-101343000D03*
X101106069Y-101343000D03*
X100706070Y-101343000D03*
X100306071Y-101343000D03*
X99906069Y-101343000D03*
X99506070Y-101343000D03*
X99106070Y-101343000D03*
X98706071Y-101343000D03*
X98306069Y-101343000D03*
X97906070Y-101343000D03*
X97506071Y-101343000D03*
X97106069Y-101343000D03*
D25*
X96331070Y-102117999D03*
X96331070Y-102518001D03*
X96331070Y-102918000D03*
X96331070Y-103317999D03*
X96331070Y-103718001D03*
X96331070Y-104118000D03*
X96331070Y-104518000D03*
X96331070Y-104917999D03*
X96331070Y-105318001D03*
X96331070Y-105718000D03*
X96331070Y-106117999D03*
X96331070Y-106518001D03*
D26*
X97106069Y-107293000D03*
X97506071Y-107293000D03*
X97906070Y-107293000D03*
X98306069Y-107293000D03*
X98706071Y-107293000D03*
X99106070Y-107293000D03*
X99506070Y-107293000D03*
X99906069Y-107293000D03*
X100306071Y-107293000D03*
X100706070Y-107293000D03*
X101106069Y-107293000D03*
X101506071Y-107293000D03*
D27*
X99306070Y-104318000D03*
D14*
X108892070Y-107874000D03*
X106992070Y-107874000D03*
D24*
X96004070Y-97902000D03*
X96004070Y-96002000D03*
D14*
X108892070Y-101016000D03*
X106992070Y-101016000D03*
D20*
X80830070Y-102540000D03*
X82730070Y-102540000D03*
D24*
X100830070Y-96886000D03*
X100830070Y-94986000D03*
D20*
X106992070Y-105588000D03*
X108892070Y-105588000D03*
X89720070Y-101143000D03*
X91620070Y-101143000D03*
D24*
X103116070Y-96886000D03*
X103116070Y-94986000D03*
D20*
X89720070Y-108763000D03*
X91620070Y-108763000D03*
D14*
X82730070Y-108890000D03*
X80830070Y-108890000D03*
X108892070Y-103314700D03*
X106992070Y-103314700D03*
D24*
X101211070Y-113396000D03*
X101211070Y-111496000D03*
D20*
X112132070Y-97990000D03*
X114032070Y-97990000D03*
D16*
X114696000Y-120097000D03*
X114696000Y-121997000D03*
D19*
X112796000Y-119997000D03*
X112796000Y-121647000D03*
D16*
X86032070Y-93140000D03*
X86032070Y-95040000D03*
D24*
X90924070Y-113396000D03*
X90924070Y-111496000D03*
D18*
X85350000Y-88500000D03*
X87000000Y-88500000D03*
D21*
X87000000Y-86500063D03*
X85350000Y-86500063D03*
D28*
X80117800Y-90500441D03*
X80117800Y-90000315D03*
X80117800Y-89500189D03*
X80117800Y-89000063D03*
X80117800Y-88499937D03*
X80117800Y-87999811D03*
X80117800Y-87499685D03*
X80117800Y-86999559D03*
D29*
X77657800Y-86000000D03*
X77657800Y-91500000D03*
D17*
X82500000Y-89175000D03*
X82500000Y-90825000D03*
D30*
X126275000Y-112350000D03*
X126275000Y-91850000D03*
D31*
X123275000Y-110350000D03*
X123275000Y-109850000D03*
X123275000Y-109350000D03*
X123275000Y-108850000D03*
X123275000Y-108350000D03*
X123275000Y-107850000D03*
X123275000Y-107350000D03*
X123275000Y-106850000D03*
X123275000Y-106350000D03*
X123275000Y-105850000D03*
X123275000Y-105350000D03*
X123275000Y-104850000D03*
X123275000Y-104350000D03*
X123275000Y-103850000D03*
X123275000Y-103350000D03*
X123275000Y-102850000D03*
X123275000Y-102350000D03*
X123275000Y-101850000D03*
X123275000Y-101350000D03*
X123275000Y-100850000D03*
X123275000Y-100350000D03*
X123275000Y-99850000D03*
X123275000Y-99350000D03*
X123275000Y-98850000D03*
X123275000Y-98350000D03*
X123275000Y-97850000D03*
X123275000Y-97350000D03*
X123275000Y-96850000D03*
X123275000Y-96350000D03*
X123275000Y-95850000D03*
X123275000Y-95350000D03*
X123275000Y-94850000D03*
X123275000Y-94350000D03*
X123275000Y-93850000D03*
M02*
