G04 #@! TF.GenerationSoftware,KiCad,Pcbnew,8.0.8*
G04 #@! TF.CreationDate,2025-03-14T23:10:00+01:00*
G04 #@! TF.ProjectId,epdiy-v7-raw,65706469-792d-4763-972d-7261772e6b69,1.1*
G04 #@! TF.SameCoordinates,Original*
G04 #@! TF.FileFunction,Copper,L2,Inr*
G04 #@! TF.FilePolarity,Positive*
%FSLAX46Y46*%
G04 Gerber Fmt 4.6, Leading zero omitted, Abs format (unit mm)*
G04 Created by KiCad (PCBNEW 8.0.8) date 2025-03-14 23:10:00*
%MOMM*%
%LPD*%
G01*
G04 APERTURE LIST*
G04 #@! TA.AperFunction,ComponentPad*
%ADD10C,0.508000*%
G04 #@! TD*
G04 #@! TA.AperFunction,ComponentPad*
%ADD11R,1.700000X1.700000*%
G04 #@! TD*
G04 #@! TA.AperFunction,ComponentPad*
%ADD12O,1.700000X1.700000*%
G04 #@! TD*
G04 #@! TA.AperFunction,ViaPad*
%ADD13C,0.800000*%
G04 #@! TD*
G04 APERTURE END LIST*
D10*
X100880870Y-105892800D03*
X100880870Y-105105400D03*
X100880870Y-104318000D03*
X100880870Y-103530600D03*
X100880870Y-102743200D03*
X100093470Y-105892800D03*
X100093470Y-105105400D03*
X100093470Y-104318000D03*
X100093470Y-103530600D03*
X100093470Y-102743200D03*
X99306070Y-105892800D03*
X99306070Y-105105400D03*
X99306070Y-104318000D03*
X99306070Y-103530600D03*
X99306070Y-102743200D03*
X98518670Y-105892800D03*
X98518670Y-105105400D03*
X98518670Y-104318000D03*
X98518670Y-103530600D03*
X98518670Y-102743200D03*
X97731270Y-105892800D03*
X97731270Y-105105400D03*
X97731270Y-104318000D03*
X97731270Y-103530600D03*
X97731270Y-102743200D03*
D11*
X75940000Y-83500000D03*
D12*
X78480000Y-83500000D03*
X81020000Y-83500000D03*
X83560000Y-83500000D03*
X86100000Y-83500000D03*
X88640000Y-83500000D03*
X91180000Y-83500000D03*
X93720000Y-83500000D03*
X96260000Y-83500000D03*
X98800000Y-83500000D03*
X101340000Y-83500000D03*
X103880000Y-83500000D03*
X106420000Y-83500000D03*
X108960000Y-83500000D03*
X111500000Y-83500000D03*
X114040000Y-83500000D03*
X116580000Y-83500000D03*
X119120000Y-83500000D03*
X121660000Y-83500000D03*
X124200000Y-83500000D03*
D11*
X76000000Y-95000000D03*
D12*
X76000000Y-97540000D03*
X76000000Y-100080000D03*
X76000000Y-102620000D03*
X76000000Y-105160000D03*
D13*
X124500000Y-94500000D03*
X102941069Y-114590000D03*
X110282070Y-106840000D03*
X125000000Y-97500000D03*
X95482070Y-91490000D03*
X110528866Y-102093204D03*
X105275070Y-104112000D03*
X102113171Y-94025000D03*
X99782070Y-118340000D03*
X102354070Y-100254000D03*
X109509657Y-104545000D03*
X93082070Y-90090000D03*
X105656070Y-102492000D03*
X102837153Y-93990910D03*
X113082070Y-101190000D03*
X110282070Y-97840000D03*
X88682070Y-90090000D03*
X79682070Y-102590000D03*
X101532070Y-116590000D03*
X88678756Y-103694099D03*
X92082070Y-89490000D03*
X89532070Y-113090000D03*
X91082070Y-90090000D03*
X111444043Y-108001973D03*
X125500000Y-108359521D03*
X102733813Y-107621257D03*
X89720070Y-104902000D03*
X102226070Y-113396000D03*
X115043039Y-104259394D03*
X89749377Y-92700000D03*
X107282070Y-115130000D03*
X92778847Y-105184403D03*
X88682070Y-92490000D03*
X101032070Y-114590000D03*
X110266558Y-104870863D03*
X86532070Y-92090000D03*
X89532070Y-114090000D03*
X111500000Y-121500000D03*
X98649351Y-109674663D03*
X83532070Y-107590000D03*
X79782070Y-108840000D03*
X94882070Y-92690000D03*
X114500000Y-112000000D03*
X102032070Y-115590000D03*
X98282070Y-95840000D03*
X101886070Y-94986000D03*
X105875283Y-95228486D03*
X89882070Y-89490000D03*
X96297604Y-94855534D03*
X115082070Y-98190000D03*
X98136070Y-94986000D03*
X88082070Y-91290000D03*
X118000000Y-117500000D03*
X97032070Y-118340000D03*
X85282070Y-92090000D03*
X109390000Y-106735000D03*
X110282070Y-100090000D03*
X109995331Y-101484669D03*
X83532070Y-105340000D03*
X105582070Y-94090000D03*
X110351505Y-108718325D03*
X79000000Y-90500000D03*
X116000000Y-107000000D03*
X94734070Y-106731000D03*
X87782070Y-107753998D03*
X121500000Y-90500000D03*
X87282070Y-103930002D03*
X94558816Y-103427029D03*
X111186035Y-117186035D03*
X111085184Y-112832862D03*
X120800000Y-112550000D03*
X118000272Y-120877000D03*
X109282070Y-116190000D03*
X119500000Y-119000000D03*
X122158631Y-94495000D03*
X88282070Y-117340000D03*
X99406060Y-99111000D03*
X121500000Y-100000000D03*
X111500000Y-120500000D03*
X105975000Y-97090000D03*
X107000000Y-119500000D03*
X107373605Y-111480500D03*
X116495000Y-111140000D03*
X109730965Y-114340000D03*
X102532070Y-96090000D03*
X105275070Y-105588000D03*
X94608327Y-101649743D03*
X102822070Y-97541000D03*
X88500000Y-88000063D03*
X100109731Y-98317659D03*
X84000000Y-86500063D03*
X101077318Y-98282747D03*
X97268070Y-97900765D03*
X105500000Y-107500000D03*
X106056501Y-104597563D03*
X105500000Y-99000000D03*
X99058070Y-98048002D03*
X106775000Y-95769795D03*
X105670014Y-101016000D03*
X99782070Y-116340000D03*
X95032070Y-97090000D03*
X91282070Y-115090000D03*
X106473219Y-97937557D03*
X93782070Y-117340000D03*
X92532070Y-117090000D03*
X94782070Y-97840000D03*
X92532070Y-115090000D03*
X96532070Y-117340000D03*
X92532070Y-116090000D03*
X97282070Y-116590000D03*
X86282070Y-96090000D03*
X96032070Y-97090000D03*
X87282070Y-95590000D03*
X91282070Y-116090000D03*
X97282070Y-115340000D03*
X95032070Y-117340000D03*
X102227070Y-109423000D03*
X110703536Y-111918534D03*
X84000000Y-90500000D03*
X82000000Y-101000000D03*
X84000000Y-88000063D03*
X92883070Y-104191000D03*
X86911346Y-105137619D03*
X87032070Y-106090000D03*
X93596775Y-105686994D03*
G04 #@! TA.AperFunction,Conductor*
G36*
X126975910Y-80930060D02*
G01*
X127181929Y-80945213D01*
X127200187Y-80947913D01*
X127336080Y-80978316D01*
X127397325Y-80992018D01*
X127415003Y-80997359D01*
X127603594Y-81069811D01*
X127620279Y-81077668D01*
X127796261Y-81176910D01*
X127811626Y-81187128D01*
X127971206Y-81311019D01*
X127984913Y-81323371D01*
X128086041Y-81428932D01*
X128124667Y-81469251D01*
X128136431Y-81483486D01*
X128217975Y-81598372D01*
X128253365Y-81648231D01*
X128262920Y-81664032D01*
X128354513Y-81844085D01*
X128361657Y-81861113D01*
X128425950Y-82052620D01*
X128430529Y-82070509D01*
X128466143Y-82269370D01*
X128468057Y-82287736D01*
X128474371Y-82494519D01*
X128474315Y-82503743D01*
X128473662Y-82519006D01*
X128474559Y-82525508D01*
X128562142Y-120496218D01*
X128561933Y-120503772D01*
X128546475Y-120771511D01*
X128544805Y-120785928D01*
X128499262Y-121046672D01*
X128495945Y-121060802D01*
X128420718Y-121314578D01*
X128415798Y-121328233D01*
X128311886Y-121571672D01*
X128305429Y-121584670D01*
X128174213Y-121814543D01*
X128166304Y-121826713D01*
X128009521Y-122039973D01*
X128000265Y-122051153D01*
X127819992Y-122244974D01*
X127809511Y-122255015D01*
X127608144Y-122426818D01*
X127596578Y-122435586D01*
X127376805Y-122583083D01*
X127364308Y-122590464D01*
X127129013Y-122711717D01*
X127115750Y-122717611D01*
X126868081Y-122810998D01*
X126854237Y-122815325D01*
X126597470Y-122879611D01*
X126583211Y-122882319D01*
X126320744Y-122916651D01*
X126306268Y-122917701D01*
X126039118Y-122921658D01*
X126037252Y-122921672D01*
X126036499Y-122921672D01*
X126031123Y-122921557D01*
X126013959Y-122920823D01*
X126007725Y-122921672D01*
X75867388Y-122923947D01*
X75859769Y-122923717D01*
X75579005Y-122906722D01*
X75563902Y-122904887D01*
X75290989Y-122854864D01*
X75276216Y-122851223D01*
X75011301Y-122768663D01*
X74997076Y-122763267D01*
X74744064Y-122649390D01*
X74730592Y-122642320D01*
X74493133Y-122498767D01*
X74480612Y-122490124D01*
X74262193Y-122319003D01*
X74250805Y-122308914D01*
X74054603Y-122112715D01*
X74044514Y-122101327D01*
X74001037Y-122045835D01*
X73873389Y-121882909D01*
X73864747Y-121870389D01*
X73721193Y-121632934D01*
X73714124Y-121619466D01*
X73600235Y-121366436D01*
X73594843Y-121352217D01*
X73587368Y-121328233D01*
X73512285Y-121087315D01*
X73508644Y-121072547D01*
X73503901Y-121046672D01*
X73458614Y-120799616D01*
X73456780Y-120784520D01*
X73455992Y-120771511D01*
X73439829Y-120504538D01*
X73439692Y-120499999D01*
X110894318Y-120499999D01*
X110894318Y-120500000D01*
X110914955Y-120656760D01*
X110962487Y-120771511D01*
X110975464Y-120802841D01*
X111071718Y-120928282D01*
X111197159Y-121024536D01*
X111343238Y-121085044D01*
X111500000Y-121105682D01*
X111656762Y-121085044D01*
X111802841Y-121024536D01*
X111928282Y-120928282D01*
X111967633Y-120876999D01*
X117394590Y-120876999D01*
X117394590Y-120877000D01*
X117415227Y-121033760D01*
X117420576Y-121046672D01*
X117475736Y-121179841D01*
X117571990Y-121305282D01*
X117697431Y-121401536D01*
X117843510Y-121462044D01*
X118000272Y-121482682D01*
X118157034Y-121462044D01*
X118303113Y-121401536D01*
X118428554Y-121305282D01*
X118524808Y-121179841D01*
X118585316Y-121033762D01*
X118605954Y-120877000D01*
X118585316Y-120720238D01*
X118524808Y-120574159D01*
X118428554Y-120448718D01*
X118303113Y-120352464D01*
X118157034Y-120291956D01*
X118157032Y-120291955D01*
X118000272Y-120271318D01*
X117843511Y-120291955D01*
X117697432Y-120352463D01*
X117697429Y-120352465D01*
X117571990Y-120448718D01*
X117475737Y-120574157D01*
X117475735Y-120574160D01*
X117415227Y-120720239D01*
X117394590Y-120876999D01*
X111967633Y-120876999D01*
X112024536Y-120802841D01*
X112085044Y-120656762D01*
X112105682Y-120500000D01*
X112104591Y-120491716D01*
X112085044Y-120343239D01*
X112063802Y-120291955D01*
X112024536Y-120197159D01*
X111928282Y-120071718D01*
X111802841Y-119975464D01*
X111688932Y-119928281D01*
X111656760Y-119914955D01*
X111500000Y-119894318D01*
X111343239Y-119914955D01*
X111197160Y-119975463D01*
X111197157Y-119975465D01*
X111071718Y-120071718D01*
X110975465Y-120197157D01*
X110975463Y-120197160D01*
X110914955Y-120343239D01*
X110894318Y-120499999D01*
X73439692Y-120499999D01*
X73439599Y-120496924D01*
X73439601Y-119499999D01*
X106394318Y-119499999D01*
X106394318Y-119500000D01*
X106414955Y-119656760D01*
X106414956Y-119656762D01*
X106475464Y-119802841D01*
X106571718Y-119928282D01*
X106697159Y-120024536D01*
X106843238Y-120085044D01*
X107000000Y-120105682D01*
X107156762Y-120085044D01*
X107302841Y-120024536D01*
X107428282Y-119928282D01*
X107524536Y-119802841D01*
X107585044Y-119656762D01*
X107605682Y-119500000D01*
X107585044Y-119343238D01*
X107524536Y-119197159D01*
X107428282Y-119071718D01*
X107334816Y-118999999D01*
X118894318Y-118999999D01*
X118894318Y-119000000D01*
X118914955Y-119156760D01*
X118914956Y-119156762D01*
X118975464Y-119302841D01*
X119071718Y-119428282D01*
X119197159Y-119524536D01*
X119343238Y-119585044D01*
X119500000Y-119605682D01*
X119656762Y-119585044D01*
X119802841Y-119524536D01*
X119928282Y-119428282D01*
X120024536Y-119302841D01*
X120085044Y-119156762D01*
X120105682Y-119000000D01*
X120085044Y-118843238D01*
X120024536Y-118697159D01*
X119928282Y-118571718D01*
X119802841Y-118475464D01*
X119656762Y-118414956D01*
X119656760Y-118414955D01*
X119500000Y-118394318D01*
X119343239Y-118414955D01*
X119197160Y-118475463D01*
X119197157Y-118475465D01*
X119071718Y-118571718D01*
X118975465Y-118697157D01*
X118975463Y-118697160D01*
X118914955Y-118843239D01*
X118894318Y-118999999D01*
X107334816Y-118999999D01*
X107302841Y-118975464D01*
X107156762Y-118914956D01*
X107156760Y-118914955D01*
X107000000Y-118894318D01*
X106843239Y-118914955D01*
X106697160Y-118975463D01*
X106697157Y-118975465D01*
X106571718Y-119071718D01*
X106475465Y-119197157D01*
X106475463Y-119197160D01*
X106414955Y-119343239D01*
X106394318Y-119499999D01*
X73439601Y-119499999D01*
X73439604Y-118475463D01*
X73439607Y-117339999D01*
X87676388Y-117339999D01*
X87676388Y-117340000D01*
X87697025Y-117496760D01*
X87745810Y-117614536D01*
X87757534Y-117642841D01*
X87853788Y-117768282D01*
X87979229Y-117864536D01*
X88125308Y-117925044D01*
X88282070Y-117945682D01*
X88438832Y-117925044D01*
X88584911Y-117864536D01*
X88710352Y-117768282D01*
X88806606Y-117642841D01*
X88867114Y-117496762D01*
X88887752Y-117340000D01*
X88867114Y-117183238D01*
X88806606Y-117037159D01*
X88710352Y-116911718D01*
X88584911Y-116815464D01*
X88537154Y-116795682D01*
X88438830Y-116754955D01*
X88282070Y-116734318D01*
X88125309Y-116754955D01*
X87979230Y-116815463D01*
X87979227Y-116815465D01*
X87853788Y-116911718D01*
X87757535Y-117037157D01*
X87757533Y-117037160D01*
X87697025Y-117183239D01*
X87676388Y-117339999D01*
X73439607Y-117339999D01*
X73439613Y-115089999D01*
X90676388Y-115089999D01*
X90676388Y-115090000D01*
X90697025Y-115246760D01*
X90757533Y-115392839D01*
X90757538Y-115392846D01*
X90849962Y-115513297D01*
X90875562Y-115579517D01*
X90861297Y-115649066D01*
X90849962Y-115666703D01*
X90757538Y-115787153D01*
X90757533Y-115787160D01*
X90697025Y-115933239D01*
X90676388Y-116089999D01*
X90676388Y-116090000D01*
X90697025Y-116246760D01*
X90757264Y-116392188D01*
X90757534Y-116392841D01*
X90853788Y-116518282D01*
X90979229Y-116614536D01*
X91125308Y-116675044D01*
X91282070Y-116695682D01*
X91438832Y-116675044D01*
X91584911Y-116614536D01*
X91710352Y-116518282D01*
X91806606Y-116392841D01*
X91806606Y-116392838D01*
X91807107Y-116392187D01*
X91864445Y-116350320D01*
X91935316Y-116346098D01*
X91997219Y-116380862D01*
X92007033Y-116392188D01*
X92099962Y-116513297D01*
X92125562Y-116579517D01*
X92111297Y-116649066D01*
X92099962Y-116666703D01*
X92007538Y-116787153D01*
X92007533Y-116787160D01*
X91947025Y-116933239D01*
X91926388Y-117089999D01*
X91926388Y-117090000D01*
X91947025Y-117246760D01*
X91985647Y-117340000D01*
X92007534Y-117392841D01*
X92103788Y-117518282D01*
X92229229Y-117614536D01*
X92375308Y-117675044D01*
X92532070Y-117695682D01*
X92688832Y-117675044D01*
X92834911Y-117614536D01*
X92960352Y-117518282D01*
X92986989Y-117483567D01*
X93044324Y-117441701D01*
X93115195Y-117437477D01*
X93177099Y-117472240D01*
X93203359Y-117512051D01*
X93205940Y-117518282D01*
X93245718Y-117614316D01*
X93257534Y-117642841D01*
X93353788Y-117768282D01*
X93479229Y-117864536D01*
X93625308Y-117925044D01*
X93782070Y-117945682D01*
X93938832Y-117925044D01*
X94084911Y-117864536D01*
X94210352Y-117768282D01*
X94306606Y-117642841D01*
X94306606Y-117642838D01*
X94307107Y-117642187D01*
X94364445Y-117600320D01*
X94435316Y-117596098D01*
X94497219Y-117630862D01*
X94507033Y-117642187D01*
X94507533Y-117642838D01*
X94507534Y-117642841D01*
X94603788Y-117768282D01*
X94729229Y-117864536D01*
X94875308Y-117925044D01*
X95032070Y-117945682D01*
X95188832Y-117925044D01*
X95334911Y-117864536D01*
X95460352Y-117768282D01*
X95556606Y-117642841D01*
X95617114Y-117496762D01*
X95637752Y-117340000D01*
X95637752Y-117339999D01*
X95926388Y-117339999D01*
X95926388Y-117340000D01*
X95947025Y-117496760D01*
X95995810Y-117614536D01*
X96007534Y-117642841D01*
X96103788Y-117768282D01*
X96229229Y-117864536D01*
X96375308Y-117925044D01*
X96532070Y-117945682D01*
X96688832Y-117925044D01*
X96834911Y-117864536D01*
X96960352Y-117768282D01*
X97056606Y-117642841D01*
X97117114Y-117496762D01*
X97137752Y-117340000D01*
X97137305Y-117336607D01*
X97137752Y-117333741D01*
X97137752Y-117331742D01*
X97138064Y-117331742D01*
X97148240Y-117266460D01*
X97195365Y-117213359D01*
X97263718Y-117194165D01*
X97278669Y-117195234D01*
X97282070Y-117195682D01*
X97355354Y-117186034D01*
X110580353Y-117186034D01*
X110580353Y-117186035D01*
X110600990Y-117342795D01*
X110600991Y-117342797D01*
X110661499Y-117488876D01*
X110757753Y-117614317D01*
X110883194Y-117710571D01*
X111029273Y-117771079D01*
X111186035Y-117791717D01*
X111342797Y-117771079D01*
X111488876Y-117710571D01*
X111614317Y-117614317D01*
X111710571Y-117488876D01*
X111771079Y-117342797D01*
X111791717Y-117186035D01*
X111771079Y-117029273D01*
X111710571Y-116883194D01*
X111614317Y-116757753D01*
X111488876Y-116661499D01*
X111458861Y-116649066D01*
X111342795Y-116600990D01*
X111186035Y-116580353D01*
X111029274Y-116600990D01*
X110883195Y-116661498D01*
X110883192Y-116661500D01*
X110757753Y-116757753D01*
X110661500Y-116883192D01*
X110661498Y-116883195D01*
X110600990Y-117029274D01*
X110580353Y-117186034D01*
X97355354Y-117186034D01*
X97438832Y-117175044D01*
X97584911Y-117114536D01*
X97710352Y-117018282D01*
X97806606Y-116892841D01*
X97867114Y-116746762D01*
X97887752Y-116590000D01*
X97867114Y-116433238D01*
X97828493Y-116339999D01*
X99176388Y-116339999D01*
X99176388Y-116340000D01*
X99197025Y-116496760D01*
X99245810Y-116614536D01*
X99257534Y-116642841D01*
X99353788Y-116768282D01*
X99479229Y-116864536D01*
X99625308Y-116925044D01*
X99782070Y-116945682D01*
X99938832Y-116925044D01*
X100084911Y-116864536D01*
X100210352Y-116768282D01*
X100306606Y-116642841D01*
X100367114Y-116496762D01*
X100387752Y-116340000D01*
X100368004Y-116189999D01*
X108676388Y-116189999D01*
X108676388Y-116190000D01*
X108697025Y-116346760D01*
X108732846Y-116433238D01*
X108757534Y-116492841D01*
X108853788Y-116618282D01*
X108979229Y-116714536D01*
X109125308Y-116775044D01*
X109282070Y-116795682D01*
X109438832Y-116775044D01*
X109584911Y-116714536D01*
X109710352Y-116618282D01*
X109806606Y-116492841D01*
X109867114Y-116346762D01*
X109887752Y-116190000D01*
X109867114Y-116033238D01*
X109806606Y-115887159D01*
X109710352Y-115761718D01*
X109584911Y-115665464D01*
X109575868Y-115661718D01*
X109438830Y-115604955D01*
X109282070Y-115584318D01*
X109125309Y-115604955D01*
X108979230Y-115665463D01*
X108979227Y-115665465D01*
X108853788Y-115761718D01*
X108757535Y-115887157D01*
X108757533Y-115887160D01*
X108697025Y-116033239D01*
X108676388Y-116189999D01*
X100368004Y-116189999D01*
X100367114Y-116183238D01*
X100306606Y-116037159D01*
X100210352Y-115911718D01*
X100084911Y-115815464D01*
X100016580Y-115787160D01*
X99938830Y-115754955D01*
X99782070Y-115734318D01*
X99625309Y-115754955D01*
X99479230Y-115815463D01*
X99479227Y-115815465D01*
X99353788Y-115911718D01*
X99257535Y-116037157D01*
X99257533Y-116037160D01*
X99197025Y-116183239D01*
X99176388Y-116339999D01*
X97828493Y-116339999D01*
X97806606Y-116287159D01*
X97710352Y-116161718D01*
X97584911Y-116065464D01*
X97584908Y-116065463D01*
X97584257Y-116064963D01*
X97542390Y-116007625D01*
X97538168Y-115936754D01*
X97572932Y-115874851D01*
X97584257Y-115865037D01*
X97584908Y-115864536D01*
X97584911Y-115864536D01*
X97710352Y-115768282D01*
X97806606Y-115642841D01*
X97867114Y-115496762D01*
X97887752Y-115340000D01*
X97867114Y-115183238D01*
X97806606Y-115037159D01*
X97710352Y-114911718D01*
X97584911Y-114815464D01*
X97545495Y-114799137D01*
X97438830Y-114754955D01*
X97282070Y-114734318D01*
X97125309Y-114754955D01*
X96979230Y-114815463D01*
X96979227Y-114815465D01*
X96853788Y-114911718D01*
X96757535Y-115037157D01*
X96757533Y-115037160D01*
X96697025Y-115183239D01*
X96676388Y-115339999D01*
X96676388Y-115340000D01*
X96697025Y-115496760D01*
X96735647Y-115590000D01*
X96757534Y-115642841D01*
X96853787Y-115768281D01*
X96853790Y-115768284D01*
X96979882Y-115865038D01*
X97021749Y-115922376D01*
X97025971Y-115993247D01*
X96991207Y-116055149D01*
X96979882Y-116064962D01*
X96853790Y-116161715D01*
X96757535Y-116287157D01*
X96757533Y-116287160D01*
X96697025Y-116433239D01*
X96676388Y-116589999D01*
X96676388Y-116590003D01*
X96676835Y-116593399D01*
X96676388Y-116596265D01*
X96676388Y-116598258D01*
X96676077Y-116598258D01*
X96665895Y-116663547D01*
X96618766Y-116716645D01*
X96550412Y-116735834D01*
X96535469Y-116734765D01*
X96532073Y-116734318D01*
X96532070Y-116734318D01*
X96375309Y-116754955D01*
X96229230Y-116815463D01*
X96229227Y-116815465D01*
X96103788Y-116911718D01*
X96007535Y-117037157D01*
X96007533Y-117037160D01*
X95947025Y-117183239D01*
X95926388Y-117339999D01*
X95637752Y-117339999D01*
X95617114Y-117183238D01*
X95556606Y-117037159D01*
X95460352Y-116911718D01*
X95334911Y-116815464D01*
X95287154Y-116795682D01*
X95188830Y-116754955D01*
X95032070Y-116734318D01*
X94875309Y-116754955D01*
X94729230Y-116815463D01*
X94729227Y-116815465D01*
X94603785Y-116911720D01*
X94507032Y-117037812D01*
X94449694Y-117079679D01*
X94378823Y-117083901D01*
X94316921Y-117049137D01*
X94307108Y-117037812D01*
X94210354Y-116911720D01*
X94210352Y-116911719D01*
X94210352Y-116911718D01*
X94084911Y-116815464D01*
X94037154Y-116795682D01*
X93938830Y-116754955D01*
X93782070Y-116734318D01*
X93625309Y-116754955D01*
X93479230Y-116815463D01*
X93479227Y-116815465D01*
X93353787Y-116911718D01*
X93327150Y-116946433D01*
X93269812Y-116988300D01*
X93198941Y-116992521D01*
X93137038Y-116957756D01*
X93110781Y-116917949D01*
X93056606Y-116787159D01*
X93056602Y-116787154D01*
X93056601Y-116787152D01*
X92964178Y-116666704D01*
X92938577Y-116600484D01*
X92952842Y-116530935D01*
X92964178Y-116513296D01*
X92985415Y-116485618D01*
X93056606Y-116392841D01*
X93117114Y-116246762D01*
X93137752Y-116090000D01*
X93117114Y-115933238D01*
X93056606Y-115787159D01*
X93056602Y-115787154D01*
X93056601Y-115787152D01*
X92964178Y-115666704D01*
X92938577Y-115600484D01*
X92952842Y-115530935D01*
X92964178Y-115513296D01*
X93056601Y-115392847D01*
X93056602Y-115392846D01*
X93056606Y-115392841D01*
X93117114Y-115246762D01*
X93137752Y-115090000D01*
X93117114Y-114933238D01*
X93056606Y-114787159D01*
X92960352Y-114661718D01*
X92834911Y-114565464D01*
X92688832Y-114504956D01*
X92688830Y-114504955D01*
X92532070Y-114484318D01*
X92375309Y-114504955D01*
X92229230Y-114565463D01*
X92229227Y-114565465D01*
X92103785Y-114661720D01*
X92007032Y-114787812D01*
X91949694Y-114829679D01*
X91878823Y-114833901D01*
X91816921Y-114799137D01*
X91807108Y-114787812D01*
X91710354Y-114661720D01*
X91710352Y-114661719D01*
X91710352Y-114661718D01*
X91584911Y-114565464D01*
X91438832Y-114504956D01*
X91438830Y-114504955D01*
X91282070Y-114484318D01*
X91125309Y-114504955D01*
X90979230Y-114565463D01*
X90979227Y-114565465D01*
X90853788Y-114661718D01*
X90757535Y-114787157D01*
X90757533Y-114787160D01*
X90697025Y-114933239D01*
X90676388Y-115089999D01*
X73439613Y-115089999D01*
X73439615Y-114339999D01*
X109125283Y-114339999D01*
X109125283Y-114340000D01*
X109145920Y-114496760D01*
X109149315Y-114504955D01*
X109206429Y-114642841D01*
X109302683Y-114768282D01*
X109428124Y-114864536D01*
X109574203Y-114925044D01*
X109730965Y-114945682D01*
X109887727Y-114925044D01*
X110033806Y-114864536D01*
X110159247Y-114768282D01*
X110255501Y-114642841D01*
X110316009Y-114496762D01*
X110336647Y-114340000D01*
X110316009Y-114183238D01*
X110255501Y-114037159D01*
X110159247Y-113911718D01*
X110033806Y-113815464D01*
X109887727Y-113754956D01*
X109887725Y-113754955D01*
X109730965Y-113734318D01*
X109574204Y-113754955D01*
X109428125Y-113815463D01*
X109428122Y-113815465D01*
X109302683Y-113911718D01*
X109206430Y-114037157D01*
X109206428Y-114037160D01*
X109145920Y-114183239D01*
X109125283Y-114339999D01*
X73439615Y-114339999D01*
X73439622Y-111480499D01*
X106767923Y-111480499D01*
X106767923Y-111480500D01*
X106788560Y-111637260D01*
X106824922Y-111725044D01*
X106849069Y-111783341D01*
X106945323Y-111908782D01*
X107070764Y-112005036D01*
X107216843Y-112065544D01*
X107373605Y-112086182D01*
X107530367Y-112065544D01*
X107676446Y-112005036D01*
X107789179Y-111918533D01*
X110097854Y-111918533D01*
X110097854Y-111918534D01*
X110118491Y-112075294D01*
X110137721Y-112121718D01*
X110179000Y-112221375D01*
X110275254Y-112346816D01*
X110400695Y-112443070D01*
X110451558Y-112464138D01*
X110506837Y-112508686D01*
X110529258Y-112576049D01*
X110519747Y-112628763D01*
X110500140Y-112676099D01*
X110479502Y-112832861D01*
X110479502Y-112832862D01*
X110500139Y-112989622D01*
X110500140Y-112989624D01*
X110560648Y-113135703D01*
X110656902Y-113261144D01*
X110782343Y-113357398D01*
X110928422Y-113417906D01*
X111085184Y-113438544D01*
X111241946Y-113417906D01*
X111388025Y-113357398D01*
X111513466Y-113261144D01*
X111609720Y-113135703D01*
X111670228Y-112989624D01*
X111690866Y-112832862D01*
X111670228Y-112676100D01*
X111617995Y-112549999D01*
X120194318Y-112549999D01*
X120194318Y-112550000D01*
X120214955Y-112706760D01*
X120214956Y-112706762D01*
X120275464Y-112852841D01*
X120371718Y-112978282D01*
X120497159Y-113074536D01*
X120643238Y-113135044D01*
X120800000Y-113155682D01*
X120956762Y-113135044D01*
X121102841Y-113074536D01*
X121228282Y-112978282D01*
X121324536Y-112852841D01*
X121385044Y-112706762D01*
X121405682Y-112550000D01*
X121403051Y-112530019D01*
X121385044Y-112393239D01*
X121349873Y-112308327D01*
X121324536Y-112247159D01*
X121228282Y-112121718D01*
X121102841Y-112025464D01*
X120956762Y-111964956D01*
X120956760Y-111964955D01*
X120800000Y-111944318D01*
X120643239Y-111964955D01*
X120497160Y-112025463D01*
X120497157Y-112025465D01*
X120371718Y-112121718D01*
X120275465Y-112247157D01*
X120275463Y-112247160D01*
X120214955Y-112393239D01*
X120194318Y-112549999D01*
X111617995Y-112549999D01*
X111609720Y-112530021D01*
X111513466Y-112404580D01*
X111388025Y-112308326D01*
X111388022Y-112308325D01*
X111388021Y-112308324D01*
X111337161Y-112287257D01*
X111281881Y-112242708D01*
X111259461Y-112175345D01*
X111268972Y-112122632D01*
X111288580Y-112075296D01*
X111309218Y-111918534D01*
X111288580Y-111761772D01*
X111228072Y-111615693D01*
X111131818Y-111490252D01*
X111006377Y-111393998D01*
X110860298Y-111333490D01*
X110860296Y-111333489D01*
X110703536Y-111312852D01*
X110546775Y-111333489D01*
X110400696Y-111393997D01*
X110400693Y-111393999D01*
X110275254Y-111490252D01*
X110179001Y-111615691D01*
X110178999Y-111615694D01*
X110118491Y-111761773D01*
X110097854Y-111918533D01*
X107789179Y-111918533D01*
X107801887Y-111908782D01*
X107898141Y-111783341D01*
X107958649Y-111637262D01*
X107979287Y-111480500D01*
X107958649Y-111323738D01*
X107898141Y-111177659D01*
X107869244Y-111139999D01*
X115889318Y-111139999D01*
X115889318Y-111140000D01*
X115909955Y-111296760D01*
X115950233Y-111393998D01*
X115970464Y-111442841D01*
X116066718Y-111568282D01*
X116192159Y-111664536D01*
X116338238Y-111725044D01*
X116495000Y-111745682D01*
X116651762Y-111725044D01*
X116797841Y-111664536D01*
X116923282Y-111568282D01*
X117019536Y-111442841D01*
X117080044Y-111296762D01*
X117100682Y-111140000D01*
X117080044Y-110983238D01*
X117019536Y-110837159D01*
X116923282Y-110711718D01*
X116797841Y-110615464D01*
X116651762Y-110554956D01*
X116651760Y-110554955D01*
X116495000Y-110534318D01*
X116338239Y-110554955D01*
X116192160Y-110615463D01*
X116192157Y-110615465D01*
X116066718Y-110711718D01*
X115970465Y-110837157D01*
X115970463Y-110837160D01*
X115909955Y-110983239D01*
X115889318Y-111139999D01*
X107869244Y-111139999D01*
X107801887Y-111052218D01*
X107676446Y-110955964D01*
X107530367Y-110895456D01*
X107530365Y-110895455D01*
X107373605Y-110874818D01*
X107216844Y-110895455D01*
X107070765Y-110955963D01*
X107070762Y-110955965D01*
X106945323Y-111052218D01*
X106849070Y-111177657D01*
X106849068Y-111177660D01*
X106788560Y-111323739D01*
X106767923Y-111480499D01*
X73439622Y-111480499D01*
X73439627Y-109422999D01*
X101621388Y-109422999D01*
X101621388Y-109423000D01*
X101642025Y-109579760D01*
X101642026Y-109579762D01*
X101702534Y-109725841D01*
X101798788Y-109851282D01*
X101924229Y-109947536D01*
X102070308Y-110008044D01*
X102227070Y-110028682D01*
X102383832Y-110008044D01*
X102529911Y-109947536D01*
X102655352Y-109851282D01*
X102751606Y-109725841D01*
X102812114Y-109579762D01*
X102832752Y-109423000D01*
X102812114Y-109266238D01*
X102751606Y-109120159D01*
X102655352Y-108994718D01*
X102529911Y-108898464D01*
X102383832Y-108837956D01*
X102383830Y-108837955D01*
X102227070Y-108817318D01*
X102070309Y-108837955D01*
X101924230Y-108898463D01*
X101924227Y-108898465D01*
X101798788Y-108994718D01*
X101702535Y-109120157D01*
X101702533Y-109120160D01*
X101642025Y-109266239D01*
X101621388Y-109422999D01*
X73439627Y-109422999D01*
X73439631Y-107753997D01*
X87176388Y-107753997D01*
X87176388Y-107753998D01*
X87197025Y-107910758D01*
X87244154Y-108024536D01*
X87257534Y-108056839D01*
X87353788Y-108182280D01*
X87479229Y-108278534D01*
X87625308Y-108339042D01*
X87782070Y-108359680D01*
X87938832Y-108339042D01*
X88084911Y-108278534D01*
X88210352Y-108182280D01*
X88306606Y-108056839D01*
X88367114Y-107910760D01*
X88387752Y-107753998D01*
X88367114Y-107597236D01*
X88326837Y-107499999D01*
X104894318Y-107499999D01*
X104894318Y-107500000D01*
X104914955Y-107656760D01*
X104955233Y-107753998D01*
X104975464Y-107802841D01*
X105071718Y-107928282D01*
X105197159Y-108024536D01*
X105343238Y-108085044D01*
X105500000Y-108105682D01*
X105656762Y-108085044D01*
X105802841Y-108024536D01*
X105928282Y-107928282D01*
X106024536Y-107802841D01*
X106085044Y-107656762D01*
X106105682Y-107500000D01*
X106099251Y-107451155D01*
X106085044Y-107343239D01*
X106073780Y-107316044D01*
X106024536Y-107197159D01*
X105928282Y-107071718D01*
X105834816Y-106999999D01*
X115394318Y-106999999D01*
X115394318Y-107000000D01*
X115414955Y-107156760D01*
X115455870Y-107255536D01*
X115475464Y-107302841D01*
X115571718Y-107428282D01*
X115697159Y-107524536D01*
X115843238Y-107585044D01*
X116000000Y-107605682D01*
X116156762Y-107585044D01*
X116302841Y-107524536D01*
X116428282Y-107428282D01*
X116524536Y-107302841D01*
X116585044Y-107156762D01*
X116605682Y-107000000D01*
X116585044Y-106843238D01*
X116524536Y-106697159D01*
X116428282Y-106571718D01*
X116302841Y-106475464D01*
X116188640Y-106428160D01*
X116156760Y-106414955D01*
X116000000Y-106394318D01*
X115843239Y-106414955D01*
X115697160Y-106475463D01*
X115697157Y-106475465D01*
X115571718Y-106571718D01*
X115475465Y-106697157D01*
X115475463Y-106697160D01*
X115414955Y-106843239D01*
X115394318Y-106999999D01*
X105834816Y-106999999D01*
X105802841Y-106975464D01*
X105656762Y-106914956D01*
X105656760Y-106914955D01*
X105500000Y-106894318D01*
X105343239Y-106914955D01*
X105197160Y-106975463D01*
X105197157Y-106975465D01*
X105071718Y-107071718D01*
X104975465Y-107197157D01*
X104975463Y-107197160D01*
X104914955Y-107343239D01*
X104894318Y-107499999D01*
X88326837Y-107499999D01*
X88306606Y-107451157D01*
X88210352Y-107325716D01*
X88084911Y-107229462D01*
X88006928Y-107197160D01*
X87938830Y-107168953D01*
X87782070Y-107148316D01*
X87625309Y-107168953D01*
X87479230Y-107229461D01*
X87479227Y-107229463D01*
X87353788Y-107325716D01*
X87257535Y-107451155D01*
X87257533Y-107451158D01*
X87197025Y-107597237D01*
X87176388Y-107753997D01*
X73439631Y-107753997D01*
X73439634Y-106730999D01*
X94128388Y-106730999D01*
X94128388Y-106731000D01*
X94149025Y-106887760D01*
X94195517Y-107000000D01*
X94209534Y-107033841D01*
X94305788Y-107159282D01*
X94431229Y-107255536D01*
X94577308Y-107316044D01*
X94734070Y-107336682D01*
X94890832Y-107316044D01*
X95036911Y-107255536D01*
X95162352Y-107159282D01*
X95258606Y-107033841D01*
X95319114Y-106887762D01*
X95339752Y-106731000D01*
X95319114Y-106574238D01*
X95258606Y-106428159D01*
X95162352Y-106302718D01*
X95036911Y-106206464D01*
X95030951Y-106203995D01*
X94890830Y-106145955D01*
X94734070Y-106125318D01*
X94577309Y-106145955D01*
X94431230Y-106206463D01*
X94431227Y-106206465D01*
X94305788Y-106302718D01*
X94209535Y-106428157D01*
X94209533Y-106428160D01*
X94149025Y-106574239D01*
X94128388Y-106730999D01*
X73439634Y-106730999D01*
X73439638Y-105159996D01*
X74944417Y-105159996D01*
X74944417Y-105160003D01*
X74964698Y-105365927D01*
X74964699Y-105365933D01*
X74964700Y-105365934D01*
X74987306Y-105440458D01*
X75024768Y-105563954D01*
X75121412Y-105744762D01*
X75122315Y-105746450D01*
X75253590Y-105906410D01*
X75413550Y-106037685D01*
X75596046Y-106135232D01*
X75794066Y-106195300D01*
X75794070Y-106195300D01*
X75794072Y-106195301D01*
X75999997Y-106215583D01*
X76000000Y-106215583D01*
X76000003Y-106215583D01*
X76205927Y-106195301D01*
X76205928Y-106195300D01*
X76205934Y-106195300D01*
X76403954Y-106135232D01*
X76586450Y-106037685D01*
X76746410Y-105906410D01*
X76877685Y-105746450D01*
X76975232Y-105563954D01*
X77035300Y-105365934D01*
X77042348Y-105294381D01*
X77055583Y-105160003D01*
X77055583Y-105159996D01*
X77053379Y-105137618D01*
X86305664Y-105137618D01*
X86305664Y-105137619D01*
X86326301Y-105294379D01*
X86382991Y-105431239D01*
X86386810Y-105440460D01*
X86455695Y-105530232D01*
X86483065Y-105565902D01*
X86505361Y-105583010D01*
X86547229Y-105640347D01*
X86551451Y-105711218D01*
X86528622Y-105759675D01*
X86507538Y-105787153D01*
X86507533Y-105787160D01*
X86447025Y-105933239D01*
X86426388Y-106089999D01*
X86426388Y-106090000D01*
X86447025Y-106246760D01*
X86447026Y-106246762D01*
X86507534Y-106392841D01*
X86603788Y-106518282D01*
X86729229Y-106614536D01*
X86875308Y-106675044D01*
X87032070Y-106695682D01*
X87188832Y-106675044D01*
X87334911Y-106614536D01*
X87460352Y-106518282D01*
X87556606Y-106392841D01*
X87617114Y-106246762D01*
X87637752Y-106090000D01*
X87617114Y-105933238D01*
X87556606Y-105787159D01*
X87479746Y-105686993D01*
X92991093Y-105686993D01*
X92991093Y-105686994D01*
X93011730Y-105843754D01*
X93011731Y-105843756D01*
X93072239Y-105989835D01*
X93168493Y-106115276D01*
X93293934Y-106211530D01*
X93440013Y-106272038D01*
X93596775Y-106292676D01*
X93753537Y-106272038D01*
X93899616Y-106211530D01*
X94025057Y-106115276D01*
X94121311Y-105989835D01*
X94181819Y-105843756D01*
X94202457Y-105686994D01*
X94181819Y-105530232D01*
X94121311Y-105384153D01*
X94025057Y-105258712D01*
X93899616Y-105162458D01*
X93893690Y-105160003D01*
X93753535Y-105101949D01*
X93596775Y-105081312D01*
X93440014Y-105101949D01*
X93293935Y-105162457D01*
X93293932Y-105162459D01*
X93168493Y-105258712D01*
X93072240Y-105384151D01*
X93072238Y-105384154D01*
X93011730Y-105530233D01*
X92991093Y-105686993D01*
X87479746Y-105686993D01*
X87460352Y-105661718D01*
X87438052Y-105644606D01*
X87396186Y-105587270D01*
X87391964Y-105516399D01*
X87414793Y-105467943D01*
X87435882Y-105440460D01*
X87496390Y-105294381D01*
X87517028Y-105137619D01*
X87496390Y-104980857D01*
X87435882Y-104834778D01*
X87346177Y-104717872D01*
X87320578Y-104651654D01*
X87334843Y-104582105D01*
X87384444Y-104531309D01*
X87429695Y-104516248D01*
X87438832Y-104515046D01*
X87584911Y-104454538D01*
X87710352Y-104358284D01*
X87806606Y-104232843D01*
X87823938Y-104190999D01*
X92277388Y-104190999D01*
X92277388Y-104191000D01*
X92298025Y-104347760D01*
X92339283Y-104447364D01*
X92358534Y-104493841D01*
X92454788Y-104619282D01*
X92580229Y-104715536D01*
X92726308Y-104776044D01*
X92883070Y-104796682D01*
X93039832Y-104776044D01*
X93185911Y-104715536D01*
X93311352Y-104619282D01*
X93407606Y-104493841D01*
X93468114Y-104347762D01*
X93488752Y-104191000D01*
X93480023Y-104124700D01*
X93473221Y-104073027D01*
X93468114Y-104034238D01*
X93407606Y-103888159D01*
X93311352Y-103762718D01*
X93185911Y-103666464D01*
X93158962Y-103655301D01*
X93039830Y-103605955D01*
X92883070Y-103585318D01*
X92726309Y-103605955D01*
X92580230Y-103666463D01*
X92580227Y-103666465D01*
X92454788Y-103762718D01*
X92358535Y-103888157D01*
X92358533Y-103888160D01*
X92298025Y-104034239D01*
X92277388Y-104190999D01*
X87823938Y-104190999D01*
X87867114Y-104086764D01*
X87887752Y-103930002D01*
X87867114Y-103773240D01*
X87806606Y-103627161D01*
X87710352Y-103501720D01*
X87613011Y-103427028D01*
X93953134Y-103427028D01*
X93953134Y-103427029D01*
X93973771Y-103583789D01*
X94011794Y-103675583D01*
X94034280Y-103729870D01*
X94130534Y-103855311D01*
X94255975Y-103951565D01*
X94402054Y-104012073D01*
X94558816Y-104032711D01*
X94715578Y-104012073D01*
X94861657Y-103951565D01*
X94987098Y-103855311D01*
X95083352Y-103729870D01*
X95143860Y-103583791D01*
X95164498Y-103427029D01*
X95143860Y-103270267D01*
X95083352Y-103124188D01*
X94987098Y-102998747D01*
X94861657Y-102902493D01*
X94789403Y-102872564D01*
X94715576Y-102841984D01*
X94558816Y-102821347D01*
X94402055Y-102841984D01*
X94255976Y-102902492D01*
X94255973Y-102902494D01*
X94130534Y-102998747D01*
X94034281Y-103124186D01*
X94034279Y-103124189D01*
X93973771Y-103270268D01*
X93953134Y-103427028D01*
X87613011Y-103427028D01*
X87584911Y-103405466D01*
X87574714Y-103401242D01*
X87438830Y-103344957D01*
X87282070Y-103324320D01*
X87125309Y-103344957D01*
X86979230Y-103405465D01*
X86979227Y-103405467D01*
X86853788Y-103501720D01*
X86757535Y-103627159D01*
X86757533Y-103627162D01*
X86697025Y-103773241D01*
X86676388Y-103930001D01*
X86676388Y-103930002D01*
X86697025Y-104086762D01*
X86740202Y-104190999D01*
X86757534Y-104232843D01*
X86845714Y-104347762D01*
X86847237Y-104349746D01*
X86872837Y-104415967D01*
X86858572Y-104485515D01*
X86808971Y-104536311D01*
X86763722Y-104551371D01*
X86754584Y-104552575D01*
X86703946Y-104573550D01*
X86608506Y-104613082D01*
X86608503Y-104613084D01*
X86483064Y-104709337D01*
X86386811Y-104834776D01*
X86386809Y-104834779D01*
X86326301Y-104980858D01*
X86305664Y-105137618D01*
X77053379Y-105137618D01*
X77035301Y-104954072D01*
X77035300Y-104954070D01*
X77035300Y-104954066D01*
X76975232Y-104756046D01*
X76877685Y-104573550D01*
X76746410Y-104413590D01*
X76586450Y-104282315D01*
X76586448Y-104282314D01*
X76586447Y-104282313D01*
X76403954Y-104184768D01*
X76205934Y-104124700D01*
X76205933Y-104124699D01*
X76205927Y-104124698D01*
X76000003Y-104104417D01*
X75999997Y-104104417D01*
X75794072Y-104124698D01*
X75596045Y-104184768D01*
X75413552Y-104282313D01*
X75253590Y-104413590D01*
X75122313Y-104573552D01*
X75024768Y-104756045D01*
X74964698Y-104954072D01*
X74944417Y-105159996D01*
X73439638Y-105159996D01*
X73439645Y-102619996D01*
X74944417Y-102619996D01*
X74944417Y-102620003D01*
X74964698Y-102825927D01*
X75024768Y-103023954D01*
X75113117Y-103189243D01*
X75122315Y-103206450D01*
X75253590Y-103366410D01*
X75413550Y-103497685D01*
X75596046Y-103595232D01*
X75794066Y-103655300D01*
X75794070Y-103655300D01*
X75794072Y-103655301D01*
X75999997Y-103675583D01*
X76000000Y-103675583D01*
X76000003Y-103675583D01*
X76205927Y-103655301D01*
X76205928Y-103655300D01*
X76205934Y-103655300D01*
X76403954Y-103595232D01*
X76586450Y-103497685D01*
X76746410Y-103366410D01*
X76877685Y-103206450D01*
X76975232Y-103023954D01*
X77035300Y-102825934D01*
X77043449Y-102743203D01*
X77043450Y-102743196D01*
X97272096Y-102743196D01*
X97272096Y-102743203D01*
X97290694Y-102872557D01*
X97290696Y-102872564D01*
X97344988Y-102991448D01*
X97344989Y-102991449D01*
X97399525Y-103054388D01*
X97429018Y-103118969D01*
X97418913Y-103189243D01*
X97399525Y-103219412D01*
X97344989Y-103282350D01*
X97290696Y-103401235D01*
X97290694Y-103401242D01*
X97272096Y-103530596D01*
X97272096Y-103530603D01*
X97290694Y-103659957D01*
X97290696Y-103659964D01*
X97344988Y-103778848D01*
X97344989Y-103778849D01*
X97399525Y-103841788D01*
X97429018Y-103906369D01*
X97418913Y-103976643D01*
X97399525Y-104006812D01*
X97344989Y-104069750D01*
X97290696Y-104188635D01*
X97290694Y-104188642D01*
X97272096Y-104317996D01*
X97272096Y-104318003D01*
X97290694Y-104447357D01*
X97290696Y-104447364D01*
X97344988Y-104566248D01*
X97344989Y-104566249D01*
X97399525Y-104629188D01*
X97429018Y-104693769D01*
X97418913Y-104764043D01*
X97399525Y-104794212D01*
X97344989Y-104857150D01*
X97290696Y-104976035D01*
X97290694Y-104976042D01*
X97272096Y-105105396D01*
X97272096Y-105105403D01*
X97290694Y-105234757D01*
X97290696Y-105234764D01*
X97344988Y-105353648D01*
X97344989Y-105353649D01*
X97399525Y-105416588D01*
X97429018Y-105481169D01*
X97418913Y-105551443D01*
X97399525Y-105581612D01*
X97344989Y-105644550D01*
X97344988Y-105644551D01*
X97344988Y-105644552D01*
X97337876Y-105660126D01*
X97290696Y-105763435D01*
X97290694Y-105763442D01*
X97272096Y-105892796D01*
X97272096Y-105892803D01*
X97290694Y-106022157D01*
X97290696Y-106022164D01*
X97342331Y-106135231D01*
X97344990Y-106141052D01*
X97430572Y-106239819D01*
X97430576Y-106239822D01*
X97480706Y-106272038D01*
X97540520Y-106310478D01*
X97540519Y-106310478D01*
X97665919Y-106347299D01*
X97665920Y-106347299D01*
X97665923Y-106347300D01*
X97665926Y-106347300D01*
X97796614Y-106347300D01*
X97796617Y-106347300D01*
X97922018Y-106310479D01*
X98031965Y-106239821D01*
X98031967Y-106239818D01*
X98038774Y-106233921D01*
X98040254Y-106235629D01*
X98089461Y-106204001D01*
X98160458Y-106203995D01*
X98209687Y-106235626D01*
X98211166Y-106233921D01*
X98217976Y-106239822D01*
X98268106Y-106272038D01*
X98327920Y-106310478D01*
X98327919Y-106310478D01*
X98453319Y-106347299D01*
X98453320Y-106347299D01*
X98453323Y-106347300D01*
X98453326Y-106347300D01*
X98584014Y-106347300D01*
X98584017Y-106347300D01*
X98709418Y-106310479D01*
X98819365Y-106239821D01*
X98819367Y-106239818D01*
X98826174Y-106233921D01*
X98827654Y-106235629D01*
X98876861Y-106204001D01*
X98947858Y-106203995D01*
X98997087Y-106235626D01*
X98998566Y-106233921D01*
X99005376Y-106239822D01*
X99055506Y-106272038D01*
X99115320Y-106310478D01*
X99115319Y-106310478D01*
X99240719Y-106347299D01*
X99240720Y-106347299D01*
X99240723Y-106347300D01*
X99240726Y-106347300D01*
X99371414Y-106347300D01*
X99371417Y-106347300D01*
X99496818Y-106310479D01*
X99606765Y-106239821D01*
X99606767Y-106239818D01*
X99613574Y-106233921D01*
X99615054Y-106235629D01*
X99664261Y-106204001D01*
X99735258Y-106203995D01*
X99784487Y-106235626D01*
X99785966Y-106233921D01*
X99792776Y-106239822D01*
X99842906Y-106272038D01*
X99902720Y-106310478D01*
X99902719Y-106310478D01*
X100028119Y-106347299D01*
X100028120Y-106347299D01*
X100028123Y-106347300D01*
X100028126Y-106347300D01*
X100158814Y-106347300D01*
X100158817Y-106347300D01*
X100284218Y-106310479D01*
X100394165Y-106239821D01*
X100394167Y-106239818D01*
X100400974Y-106233921D01*
X100402454Y-106235629D01*
X100451661Y-106204001D01*
X100522658Y-106203995D01*
X100571887Y-106235626D01*
X100573366Y-106233921D01*
X100580176Y-106239822D01*
X100630306Y-106272038D01*
X100690120Y-106310478D01*
X100690119Y-106310478D01*
X100815519Y-106347299D01*
X100815520Y-106347299D01*
X100815523Y-106347300D01*
X100815526Y-106347300D01*
X100946214Y-106347300D01*
X100946217Y-106347300D01*
X101071618Y-106310479D01*
X101181565Y-106239821D01*
X101181567Y-106239819D01*
X101267149Y-106141052D01*
X101267149Y-106141050D01*
X101267152Y-106141048D01*
X101321444Y-106022164D01*
X101334230Y-105933238D01*
X101340044Y-105892803D01*
X101340044Y-105892796D01*
X101321445Y-105763442D01*
X101321444Y-105763441D01*
X101321444Y-105763436D01*
X101267152Y-105644552D01*
X101218148Y-105587999D01*
X104669388Y-105587999D01*
X104669388Y-105588000D01*
X104690025Y-105744760D01*
X104707587Y-105787157D01*
X104750534Y-105890841D01*
X104846788Y-106016282D01*
X104972229Y-106112536D01*
X105118308Y-106173044D01*
X105275070Y-106193682D01*
X105431832Y-106173044D01*
X105577911Y-106112536D01*
X105703352Y-106016282D01*
X105799606Y-105890841D01*
X105860114Y-105744762D01*
X105880752Y-105588000D01*
X105860114Y-105431238D01*
X105832416Y-105364370D01*
X105824828Y-105293785D01*
X105856607Y-105230298D01*
X105917665Y-105194070D01*
X105965269Y-105191234D01*
X106056501Y-105203245D01*
X106213263Y-105182607D01*
X106359342Y-105122099D01*
X106484783Y-105025845D01*
X106581037Y-104900404D01*
X106641545Y-104754325D01*
X106662183Y-104597563D01*
X106658060Y-104566249D01*
X106647432Y-104485515D01*
X106641545Y-104440801D01*
X106581037Y-104294722D01*
X106484783Y-104169281D01*
X106359342Y-104073027D01*
X106351436Y-104069752D01*
X106213261Y-104012518D01*
X106056501Y-103991881D01*
X105899740Y-104012518D01*
X105753661Y-104073026D01*
X105753658Y-104073028D01*
X105628219Y-104169281D01*
X105531966Y-104294720D01*
X105531964Y-104294723D01*
X105471456Y-104440802D01*
X105450819Y-104597562D01*
X105450819Y-104597563D01*
X105471456Y-104754323D01*
X105499153Y-104821188D01*
X105506742Y-104891778D01*
X105474963Y-104955265D01*
X105413905Y-104991492D01*
X105366298Y-104994328D01*
X105275070Y-104982318D01*
X105118309Y-105002955D01*
X104972230Y-105063463D01*
X104972227Y-105063465D01*
X104846788Y-105159718D01*
X104750535Y-105285157D01*
X104750533Y-105285160D01*
X104690025Y-105431239D01*
X104669388Y-105587999D01*
X101218148Y-105587999D01*
X101212614Y-105581612D01*
X101183122Y-105517032D01*
X101193225Y-105446758D01*
X101212615Y-105416587D01*
X101240719Y-105384153D01*
X101267152Y-105353648D01*
X101321444Y-105234764D01*
X101331840Y-105162458D01*
X101340044Y-105105403D01*
X101340044Y-105105396D01*
X101321445Y-104976042D01*
X101321444Y-104976041D01*
X101321444Y-104976036D01*
X101267152Y-104857152D01*
X101212614Y-104794212D01*
X101183122Y-104729632D01*
X101193225Y-104659358D01*
X101212615Y-104629187D01*
X101221198Y-104619282D01*
X101267152Y-104566248D01*
X101321444Y-104447364D01*
X101321719Y-104445447D01*
X101340044Y-104318003D01*
X101340044Y-104317996D01*
X101321445Y-104188642D01*
X101321444Y-104188641D01*
X101321444Y-104188636D01*
X101267152Y-104069752D01*
X101212614Y-104006812D01*
X101183122Y-103942232D01*
X101193225Y-103871958D01*
X101212615Y-103841787D01*
X101267152Y-103778848D01*
X101321444Y-103659964D01*
X101326160Y-103627162D01*
X101340044Y-103530603D01*
X101340044Y-103530596D01*
X101321445Y-103401242D01*
X101321444Y-103401241D01*
X101321444Y-103401236D01*
X101267152Y-103282352D01*
X101212614Y-103219412D01*
X101183122Y-103154832D01*
X101193225Y-103084558D01*
X101212615Y-103054387D01*
X101238985Y-103023954D01*
X101267152Y-102991448D01*
X101321444Y-102872564D01*
X101325841Y-102841984D01*
X101340044Y-102743203D01*
X101340044Y-102743196D01*
X101321445Y-102613840D01*
X101321444Y-102613838D01*
X101321444Y-102613836D01*
X101267152Y-102494952D01*
X101267150Y-102494950D01*
X101267149Y-102494947D01*
X101181567Y-102396180D01*
X101181563Y-102396177D01*
X101071618Y-102325521D01*
X101071620Y-102325521D01*
X100946220Y-102288700D01*
X100946217Y-102288700D01*
X100815523Y-102288700D01*
X100815519Y-102288700D01*
X100690120Y-102325521D01*
X100580176Y-102396177D01*
X100573366Y-102402079D01*
X100571886Y-102400371D01*
X100522665Y-102432002D01*
X100451668Y-102432000D01*
X100402453Y-102400371D01*
X100400974Y-102402079D01*
X100394163Y-102396177D01*
X100284218Y-102325521D01*
X100284220Y-102325521D01*
X100158820Y-102288700D01*
X100158817Y-102288700D01*
X100028123Y-102288700D01*
X100028119Y-102288700D01*
X99902720Y-102325521D01*
X99792776Y-102396177D01*
X99785966Y-102402079D01*
X99784486Y-102400371D01*
X99735265Y-102432002D01*
X99664268Y-102432000D01*
X99615053Y-102400371D01*
X99613574Y-102402079D01*
X99606763Y-102396177D01*
X99496818Y-102325521D01*
X99496820Y-102325521D01*
X99371420Y-102288700D01*
X99371417Y-102288700D01*
X99240723Y-102288700D01*
X99240719Y-102288700D01*
X99115320Y-102325521D01*
X99005376Y-102396177D01*
X98998566Y-102402079D01*
X98997086Y-102400371D01*
X98947865Y-102432002D01*
X98876868Y-102432000D01*
X98827653Y-102400371D01*
X98826174Y-102402079D01*
X98819363Y-102396177D01*
X98709418Y-102325521D01*
X98709420Y-102325521D01*
X98584020Y-102288700D01*
X98584017Y-102288700D01*
X98453323Y-102288700D01*
X98453319Y-102288700D01*
X98327920Y-102325521D01*
X98217976Y-102396177D01*
X98211166Y-102402079D01*
X98209686Y-102400371D01*
X98160465Y-102432002D01*
X98089468Y-102432000D01*
X98040253Y-102400371D01*
X98038774Y-102402079D01*
X98031963Y-102396177D01*
X97922018Y-102325521D01*
X97922020Y-102325521D01*
X97796620Y-102288700D01*
X97796617Y-102288700D01*
X97665923Y-102288700D01*
X97665919Y-102288700D01*
X97540520Y-102325521D01*
X97430576Y-102396177D01*
X97430572Y-102396180D01*
X97344990Y-102494947D01*
X97290696Y-102613835D01*
X97290695Y-102613840D01*
X97272096Y-102743196D01*
X77043450Y-102743196D01*
X77055583Y-102620003D01*
X77055583Y-102619996D01*
X77035301Y-102414072D01*
X77035300Y-102414070D01*
X77035300Y-102414066D01*
X76975232Y-102216046D01*
X76877685Y-102033550D01*
X76746410Y-101873590D01*
X76586450Y-101742315D01*
X76586448Y-101742314D01*
X76586447Y-101742313D01*
X76413260Y-101649742D01*
X94002645Y-101649742D01*
X94002645Y-101649743D01*
X94023282Y-101806503D01*
X94051071Y-101873590D01*
X94083791Y-101952584D01*
X94180045Y-102078025D01*
X94305486Y-102174279D01*
X94451565Y-102234787D01*
X94608327Y-102255425D01*
X94765089Y-102234787D01*
X94911168Y-102174279D01*
X95036609Y-102078025D01*
X95132863Y-101952584D01*
X95193371Y-101806505D01*
X95214009Y-101649743D01*
X95193371Y-101492981D01*
X95132863Y-101346902D01*
X95036609Y-101221461D01*
X94911168Y-101125207D01*
X94887251Y-101115300D01*
X94765087Y-101064698D01*
X94608327Y-101044061D01*
X94451566Y-101064698D01*
X94305487Y-101125206D01*
X94305484Y-101125208D01*
X94180045Y-101221461D01*
X94083792Y-101346900D01*
X94083790Y-101346903D01*
X94023282Y-101492982D01*
X94002645Y-101649742D01*
X76413260Y-101649742D01*
X76403954Y-101644768D01*
X76275103Y-101605682D01*
X76205934Y-101584700D01*
X76205933Y-101584699D01*
X76205927Y-101584698D01*
X76000003Y-101564417D01*
X75999997Y-101564417D01*
X75794072Y-101584698D01*
X75596045Y-101644768D01*
X75413552Y-101742313D01*
X75253590Y-101873590D01*
X75122313Y-102033552D01*
X75024768Y-102216045D01*
X74964698Y-102414072D01*
X74944417Y-102619996D01*
X73439645Y-102619996D01*
X73439652Y-100079996D01*
X74944417Y-100079996D01*
X74944417Y-100080003D01*
X74964698Y-100285927D01*
X75024768Y-100483954D01*
X75089833Y-100605682D01*
X75122315Y-100666450D01*
X75253590Y-100826410D01*
X75413550Y-100957685D01*
X75596046Y-101055232D01*
X75794066Y-101115300D01*
X75794070Y-101115300D01*
X75794072Y-101115301D01*
X75999997Y-101135583D01*
X76000000Y-101135583D01*
X76000003Y-101135583D01*
X76205927Y-101115301D01*
X76205928Y-101115300D01*
X76205934Y-101115300D01*
X76403954Y-101055232D01*
X76507287Y-100999999D01*
X81394318Y-100999999D01*
X81394318Y-101000000D01*
X81414955Y-101156760D01*
X81421583Y-101172760D01*
X81475464Y-101302841D01*
X81571718Y-101428282D01*
X81697159Y-101524536D01*
X81843238Y-101585044D01*
X82000000Y-101605682D01*
X82156762Y-101585044D01*
X82302841Y-101524536D01*
X82428282Y-101428282D01*
X82524536Y-101302841D01*
X82585044Y-101156762D01*
X82603576Y-101015999D01*
X105064332Y-101015999D01*
X105064332Y-101016000D01*
X105084969Y-101172760D01*
X105138851Y-101302841D01*
X105145478Y-101318841D01*
X105241732Y-101444282D01*
X105367173Y-101540536D01*
X105513252Y-101601044D01*
X105670014Y-101621682D01*
X105826776Y-101601044D01*
X105972855Y-101540536D01*
X106098296Y-101444282D01*
X106194550Y-101318841D01*
X106255058Y-101172762D01*
X106275696Y-101016000D01*
X106273589Y-100999999D01*
X106255058Y-100859239D01*
X106248431Y-100843238D01*
X106194550Y-100713159D01*
X106098296Y-100587718D01*
X105972855Y-100491464D01*
X105954725Y-100483954D01*
X105826774Y-100430955D01*
X105670014Y-100410318D01*
X105513253Y-100430955D01*
X105367174Y-100491463D01*
X105367171Y-100491465D01*
X105241732Y-100587718D01*
X105145479Y-100713157D01*
X105145477Y-100713160D01*
X105084969Y-100859239D01*
X105064332Y-101015999D01*
X82603576Y-101015999D01*
X82605682Y-101000000D01*
X82585044Y-100843238D01*
X82524536Y-100697159D01*
X82428282Y-100571718D01*
X82302841Y-100475464D01*
X82195390Y-100430956D01*
X82156760Y-100414955D01*
X82000000Y-100394318D01*
X81843239Y-100414955D01*
X81697160Y-100475463D01*
X81697157Y-100475465D01*
X81571718Y-100571718D01*
X81475465Y-100697157D01*
X81475463Y-100697160D01*
X81414955Y-100843239D01*
X81394318Y-100999999D01*
X76507287Y-100999999D01*
X76586450Y-100957685D01*
X76746410Y-100826410D01*
X76877685Y-100666450D01*
X76975232Y-100483954D01*
X77035300Y-100285934D01*
X77055583Y-100080000D01*
X77047704Y-100000000D01*
X77047704Y-99999999D01*
X120894318Y-99999999D01*
X120894318Y-100000000D01*
X120914955Y-100156760D01*
X120914956Y-100156762D01*
X120975464Y-100302841D01*
X121071718Y-100428282D01*
X121197159Y-100524536D01*
X121343238Y-100585044D01*
X121500000Y-100605682D01*
X121656762Y-100585044D01*
X121802841Y-100524536D01*
X121928282Y-100428282D01*
X122024536Y-100302841D01*
X122085044Y-100156762D01*
X122105682Y-100000000D01*
X122085044Y-99843238D01*
X122024536Y-99697159D01*
X121928282Y-99571718D01*
X121802841Y-99475464D01*
X121688932Y-99428281D01*
X121656760Y-99414955D01*
X121500000Y-99394318D01*
X121343239Y-99414955D01*
X121197160Y-99475463D01*
X121197157Y-99475465D01*
X121071718Y-99571718D01*
X120975465Y-99697157D01*
X120975463Y-99697160D01*
X120914955Y-99843239D01*
X120894318Y-99999999D01*
X77047704Y-99999999D01*
X77035301Y-99874072D01*
X77035300Y-99874070D01*
X77035300Y-99874066D01*
X76975232Y-99676046D01*
X76877685Y-99493550D01*
X76746410Y-99333590D01*
X76586450Y-99202315D01*
X76586448Y-99202314D01*
X76586447Y-99202313D01*
X76403954Y-99104768D01*
X76205927Y-99044698D01*
X76000003Y-99024417D01*
X75999997Y-99024417D01*
X75794072Y-99044698D01*
X75596045Y-99104768D01*
X75413552Y-99202313D01*
X75253590Y-99333590D01*
X75122313Y-99493552D01*
X75024768Y-99676045D01*
X74964698Y-99874072D01*
X74944417Y-100079996D01*
X73439652Y-100079996D01*
X73439659Y-97539996D01*
X74944417Y-97539996D01*
X74944417Y-97540003D01*
X74964698Y-97745927D01*
X74964699Y-97745933D01*
X74964700Y-97745934D01*
X74979016Y-97793127D01*
X75024768Y-97943954D01*
X75089755Y-98065536D01*
X75122315Y-98126450D01*
X75253590Y-98286410D01*
X75413550Y-98417685D01*
X75596046Y-98515232D01*
X75794066Y-98575300D01*
X75794070Y-98575300D01*
X75794072Y-98575301D01*
X75999997Y-98595583D01*
X76000000Y-98595583D01*
X76000003Y-98595583D01*
X76205927Y-98575301D01*
X76205928Y-98575300D01*
X76205934Y-98575300D01*
X76403954Y-98515232D01*
X76586450Y-98417685D01*
X76746410Y-98286410D01*
X76877685Y-98126450D01*
X76975232Y-97943954D01*
X77006766Y-97839999D01*
X94176388Y-97839999D01*
X94176388Y-97840000D01*
X94197025Y-97996760D01*
X94250745Y-98126450D01*
X94257534Y-98142841D01*
X94353788Y-98268282D01*
X94479229Y-98364536D01*
X94625308Y-98425044D01*
X94782070Y-98445682D01*
X94938832Y-98425044D01*
X95084911Y-98364536D01*
X95210352Y-98268282D01*
X95306606Y-98142841D01*
X95367114Y-97996762D01*
X95379752Y-97900764D01*
X96662388Y-97900764D01*
X96662388Y-97900765D01*
X96683025Y-98057525D01*
X96711574Y-98126447D01*
X96743534Y-98203606D01*
X96839788Y-98329047D01*
X96965229Y-98425301D01*
X97111308Y-98485809D01*
X97268070Y-98506447D01*
X97424832Y-98485809D01*
X97570911Y-98425301D01*
X97696352Y-98329047D01*
X97792606Y-98203606D01*
X97853114Y-98057527D01*
X97854368Y-98048001D01*
X98452388Y-98048001D01*
X98452388Y-98048002D01*
X98473025Y-98204762D01*
X98506845Y-98286409D01*
X98533534Y-98350843D01*
X98629788Y-98476284D01*
X98755229Y-98572538D01*
X98836551Y-98606222D01*
X98891831Y-98650769D01*
X98914252Y-98718132D01*
X98896694Y-98786923D01*
X98888298Y-98799329D01*
X98881529Y-98808150D01*
X98881523Y-98808160D01*
X98821015Y-98954239D01*
X98800378Y-99110999D01*
X98800378Y-99111000D01*
X98821015Y-99267760D01*
X98835547Y-99302842D01*
X98881524Y-99413841D01*
X98977778Y-99539282D01*
X99103219Y-99635536D01*
X99249298Y-99696044D01*
X99406060Y-99716682D01*
X99562822Y-99696044D01*
X99708901Y-99635536D01*
X99834342Y-99539282D01*
X99930596Y-99413841D01*
X99991104Y-99267762D01*
X100011742Y-99111000D01*
X100005572Y-99064138D01*
X100015574Y-98999999D01*
X104894318Y-98999999D01*
X104894318Y-99000000D01*
X104914955Y-99156760D01*
X104914956Y-99156762D01*
X104975464Y-99302841D01*
X105071718Y-99428282D01*
X105197159Y-99524536D01*
X105343238Y-99585044D01*
X105500000Y-99605682D01*
X105656762Y-99585044D01*
X105802841Y-99524536D01*
X105928282Y-99428282D01*
X106024536Y-99302841D01*
X106085044Y-99156762D01*
X106105682Y-99000000D01*
X106099657Y-98954239D01*
X106085044Y-98843239D01*
X106084610Y-98842190D01*
X106024536Y-98697159D01*
X105975341Y-98633046D01*
X105959697Y-98612658D01*
X105934097Y-98546438D01*
X105939587Y-98519666D01*
X105906065Y-98527378D01*
X105839254Y-98503360D01*
X105836892Y-98501592D01*
X105802841Y-98475464D01*
X105770554Y-98462090D01*
X105656760Y-98414955D01*
X105500000Y-98394318D01*
X105343239Y-98414955D01*
X105197160Y-98475463D01*
X105197157Y-98475465D01*
X105071718Y-98571718D01*
X104975465Y-98697157D01*
X104975463Y-98697160D01*
X104914955Y-98843239D01*
X104894318Y-98999999D01*
X100015574Y-98999999D01*
X100016511Y-98993993D01*
X100063638Y-98940894D01*
X100114045Y-98922773D01*
X100266493Y-98902703D01*
X100412572Y-98842195D01*
X100538013Y-98745941D01*
X100538013Y-98745940D01*
X100539569Y-98744747D01*
X100605789Y-98719146D01*
X100675338Y-98733411D01*
X100692976Y-98744746D01*
X100746181Y-98785571D01*
X100774477Y-98807283D01*
X100920556Y-98867791D01*
X101077318Y-98888429D01*
X101234080Y-98867791D01*
X101380159Y-98807283D01*
X101505600Y-98711029D01*
X101601854Y-98585588D01*
X101662362Y-98439509D01*
X101683000Y-98282747D01*
X101677425Y-98240404D01*
X101662362Y-98125986D01*
X101649245Y-98094317D01*
X101601854Y-97979906D01*
X101505600Y-97854465D01*
X101380159Y-97758211D01*
X101345861Y-97744004D01*
X101234078Y-97697702D01*
X101077318Y-97677065D01*
X100920557Y-97697702D01*
X100774478Y-97758210D01*
X100774470Y-97758215D01*
X100647478Y-97855659D01*
X100581258Y-97881259D01*
X100511709Y-97866994D01*
X100494072Y-97855659D01*
X100412578Y-97793127D01*
X100412570Y-97793122D01*
X100266491Y-97732614D01*
X100109731Y-97711977D01*
X99952970Y-97732614D01*
X99806891Y-97793122D01*
X99806880Y-97793129D01*
X99782044Y-97812186D01*
X99715824Y-97837785D01*
X99646275Y-97823519D01*
X99595480Y-97773916D01*
X99588934Y-97760439D01*
X99582607Y-97745164D01*
X99582606Y-97745162D01*
X99582606Y-97745161D01*
X99486352Y-97619720D01*
X99383761Y-97540999D01*
X102216388Y-97540999D01*
X102216388Y-97541000D01*
X102237025Y-97697760D01*
X102295943Y-97839999D01*
X102297534Y-97843841D01*
X102393788Y-97969282D01*
X102519229Y-98065536D01*
X102665308Y-98126044D01*
X102822070Y-98146682D01*
X102978832Y-98126044D01*
X103124911Y-98065536D01*
X103250352Y-97969282D01*
X103346606Y-97843841D01*
X103407114Y-97697762D01*
X103427752Y-97541000D01*
X103427246Y-97537160D01*
X103408247Y-97392842D01*
X103407114Y-97384238D01*
X103346606Y-97238159D01*
X103250352Y-97112718D01*
X103220744Y-97089999D01*
X105369318Y-97089999D01*
X105369318Y-97090000D01*
X105389955Y-97246760D01*
X105446901Y-97384238D01*
X105450464Y-97392841D01*
X105546718Y-97518282D01*
X105672159Y-97614536D01*
X105808440Y-97670985D01*
X105863718Y-97715531D01*
X105886139Y-97782894D01*
X105885141Y-97803838D01*
X105867537Y-97937556D01*
X105867537Y-97937557D01*
X105888174Y-98094317D01*
X105948682Y-98240396D01*
X105948687Y-98240404D01*
X106013521Y-98324898D01*
X106039121Y-98391118D01*
X106033629Y-98417889D01*
X106067153Y-98410178D01*
X106133964Y-98434196D01*
X106136313Y-98435954D01*
X106170378Y-98462093D01*
X106316457Y-98522601D01*
X106473219Y-98543239D01*
X106629981Y-98522601D01*
X106776060Y-98462093D01*
X106901501Y-98365839D01*
X106997755Y-98240398D01*
X107058263Y-98094319D01*
X107078901Y-97937557D01*
X107058263Y-97780795D01*
X106997755Y-97634716D01*
X106901501Y-97509275D01*
X106776060Y-97413021D01*
X106772914Y-97411718D01*
X106749249Y-97401915D01*
X106639779Y-97356571D01*
X106584500Y-97312025D01*
X106562079Y-97244661D01*
X106563076Y-97223727D01*
X106580682Y-97090000D01*
X106560044Y-96933238D01*
X106499536Y-96787159D01*
X106403282Y-96661718D01*
X106277841Y-96565464D01*
X106163932Y-96518281D01*
X106131760Y-96504955D01*
X105975000Y-96484318D01*
X105818239Y-96504955D01*
X105672160Y-96565463D01*
X105672157Y-96565465D01*
X105546718Y-96661718D01*
X105450465Y-96787157D01*
X105450463Y-96787160D01*
X105389955Y-96933239D01*
X105369318Y-97089999D01*
X103220744Y-97089999D01*
X103124911Y-97016464D01*
X102978832Y-96955956D01*
X102978830Y-96955955D01*
X102822070Y-96935318D01*
X102665309Y-96955955D01*
X102519230Y-97016463D01*
X102519227Y-97016465D01*
X102393788Y-97112718D01*
X102297535Y-97238157D01*
X102297533Y-97238160D01*
X102237025Y-97384239D01*
X102216388Y-97540999D01*
X99383761Y-97540999D01*
X99360911Y-97523466D01*
X99357631Y-97522107D01*
X99214830Y-97462957D01*
X99058070Y-97442320D01*
X98901309Y-97462957D01*
X98755230Y-97523465D01*
X98755227Y-97523467D01*
X98629788Y-97619720D01*
X98533535Y-97745159D01*
X98533533Y-97745162D01*
X98473025Y-97891241D01*
X98452388Y-98048001D01*
X97854368Y-98048001D01*
X97873752Y-97900765D01*
X97853114Y-97744003D01*
X97792606Y-97597924D01*
X97696352Y-97472483D01*
X97570911Y-97376229D01*
X97523458Y-97356573D01*
X97424830Y-97315720D01*
X97268070Y-97295083D01*
X97111309Y-97315720D01*
X96965230Y-97376228D01*
X96965227Y-97376230D01*
X96839788Y-97472483D01*
X96743535Y-97597922D01*
X96743533Y-97597925D01*
X96683025Y-97744004D01*
X96662388Y-97900764D01*
X95379752Y-97900764D01*
X95387752Y-97840000D01*
X95387460Y-97837785D01*
X95366036Y-97675050D01*
X95368438Y-97674733D01*
X95369828Y-97616115D01*
X95409615Y-97557315D01*
X95413146Y-97554504D01*
X95432054Y-97539996D01*
X95455367Y-97522106D01*
X95521587Y-97496507D01*
X95591136Y-97510772D01*
X95608774Y-97522108D01*
X95726386Y-97612355D01*
X95729229Y-97614536D01*
X95875308Y-97675044D01*
X96032070Y-97695682D01*
X96188832Y-97675044D01*
X96334911Y-97614536D01*
X96460352Y-97518282D01*
X96556606Y-97392841D01*
X96617114Y-97246762D01*
X96637752Y-97090000D01*
X96617114Y-96933238D01*
X96556606Y-96787159D01*
X96460352Y-96661718D01*
X96334911Y-96565464D01*
X96221002Y-96518281D01*
X96188830Y-96504955D01*
X96032070Y-96484318D01*
X95875309Y-96504955D01*
X95729230Y-96565463D01*
X95729223Y-96565468D01*
X95608773Y-96657892D01*
X95542553Y-96683492D01*
X95473004Y-96669227D01*
X95455367Y-96657892D01*
X95334916Y-96565468D01*
X95334912Y-96565465D01*
X95334911Y-96565464D01*
X95221002Y-96518281D01*
X95188830Y-96504955D01*
X95032070Y-96484318D01*
X94875309Y-96504955D01*
X94729230Y-96565463D01*
X94729227Y-96565465D01*
X94603788Y-96661718D01*
X94507535Y-96787157D01*
X94507533Y-96787160D01*
X94447025Y-96933239D01*
X94426388Y-97089999D01*
X94426388Y-97090000D01*
X94448104Y-97254950D01*
X94445703Y-97255266D01*
X94444305Y-97313904D01*
X94404508Y-97372697D01*
X94400995Y-97375494D01*
X94353788Y-97411717D01*
X94257535Y-97537157D01*
X94257533Y-97537160D01*
X94197025Y-97683239D01*
X94176388Y-97839999D01*
X77006766Y-97839999D01*
X77035300Y-97745934D01*
X77035377Y-97745159D01*
X77055583Y-97540003D01*
X77055583Y-97539996D01*
X77035301Y-97334072D01*
X77035300Y-97334070D01*
X77035300Y-97334066D01*
X76975232Y-97136046D01*
X76877685Y-96953550D01*
X76746410Y-96793590D01*
X76586450Y-96662315D01*
X76586448Y-96662314D01*
X76586447Y-96662313D01*
X76403954Y-96564768D01*
X76206778Y-96504956D01*
X76205934Y-96504700D01*
X76205933Y-96504699D01*
X76205927Y-96504698D01*
X76000003Y-96484417D01*
X75999997Y-96484417D01*
X75794072Y-96504698D01*
X75596045Y-96564768D01*
X75413552Y-96662313D01*
X75253590Y-96793590D01*
X75122313Y-96953552D01*
X75024768Y-97136045D01*
X74964698Y-97334072D01*
X74944417Y-97539996D01*
X73439659Y-97539996D01*
X73439663Y-96089999D01*
X85676388Y-96089999D01*
X85676388Y-96090000D01*
X85697025Y-96246760D01*
X85750342Y-96375477D01*
X85757534Y-96392841D01*
X85853788Y-96518282D01*
X85979229Y-96614536D01*
X86125308Y-96675044D01*
X86282070Y-96695682D01*
X86438832Y-96675044D01*
X86584911Y-96614536D01*
X86710352Y-96518282D01*
X86806606Y-96392841D01*
X86867114Y-96246762D01*
X86867986Y-96240137D01*
X86896708Y-96175211D01*
X86955972Y-96136118D01*
X87026964Y-96135273D01*
X87041116Y-96140170D01*
X87125308Y-96175044D01*
X87282070Y-96195682D01*
X87438832Y-96175044D01*
X87584911Y-96114536D01*
X87616888Y-96089999D01*
X101926388Y-96089999D01*
X101926388Y-96090000D01*
X101947025Y-96246760D01*
X102000342Y-96375477D01*
X102007534Y-96392841D01*
X102103788Y-96518282D01*
X102229229Y-96614536D01*
X102375308Y-96675044D01*
X102532070Y-96695682D01*
X102688832Y-96675044D01*
X102834911Y-96614536D01*
X102960352Y-96518282D01*
X103056606Y-96392841D01*
X103117114Y-96246762D01*
X103137752Y-96090000D01*
X103117114Y-95933238D01*
X103056606Y-95787159D01*
X103043281Y-95769794D01*
X106169318Y-95769794D01*
X106169318Y-95769795D01*
X106189955Y-95926555D01*
X106241295Y-96050499D01*
X106250464Y-96072636D01*
X106346718Y-96198077D01*
X106472159Y-96294331D01*
X106618238Y-96354839D01*
X106775000Y-96375477D01*
X106931762Y-96354839D01*
X107077841Y-96294331D01*
X107203282Y-96198077D01*
X107299536Y-96072636D01*
X107360044Y-95926557D01*
X107380682Y-95769795D01*
X107360044Y-95613033D01*
X107299536Y-95466954D01*
X107203282Y-95341513D01*
X107077841Y-95245259D01*
X106931762Y-95184751D01*
X106931760Y-95184750D01*
X106775000Y-95164113D01*
X106618239Y-95184750D01*
X106472160Y-95245258D01*
X106472157Y-95245260D01*
X106346718Y-95341513D01*
X106250465Y-95466952D01*
X106250463Y-95466955D01*
X106189955Y-95613034D01*
X106169318Y-95769794D01*
X103043281Y-95769794D01*
X102960352Y-95661718D01*
X102834911Y-95565464D01*
X102784841Y-95544724D01*
X102688830Y-95504955D01*
X102532070Y-95484318D01*
X102375309Y-95504955D01*
X102229230Y-95565463D01*
X102229227Y-95565465D01*
X102103788Y-95661718D01*
X102007535Y-95787157D01*
X102007533Y-95787160D01*
X101947025Y-95933239D01*
X101926388Y-96089999D01*
X87616888Y-96089999D01*
X87710352Y-96018282D01*
X87806606Y-95892841D01*
X87867114Y-95746762D01*
X87887752Y-95590000D01*
X87867114Y-95433238D01*
X87806606Y-95287159D01*
X87710352Y-95161718D01*
X87584911Y-95065464D01*
X87474032Y-95019536D01*
X87438830Y-95004955D01*
X87282070Y-94984318D01*
X87125309Y-95004955D01*
X86979230Y-95065463D01*
X86979227Y-95065465D01*
X86853788Y-95161718D01*
X86757535Y-95287157D01*
X86757533Y-95287160D01*
X86697025Y-95433241D01*
X86696152Y-95439870D01*
X86667425Y-95504796D01*
X86608158Y-95543883D01*
X86537166Y-95544724D01*
X86523013Y-95539825D01*
X86438830Y-95504955D01*
X86282070Y-95484318D01*
X86125309Y-95504955D01*
X85979230Y-95565463D01*
X85979227Y-95565465D01*
X85853788Y-95661718D01*
X85757535Y-95787157D01*
X85757533Y-95787160D01*
X85697025Y-95933239D01*
X85676388Y-96089999D01*
X73439663Y-96089999D01*
X73439668Y-94130249D01*
X74949500Y-94130249D01*
X74949500Y-95869750D01*
X74960799Y-95926555D01*
X74961133Y-95928231D01*
X75005448Y-95994552D01*
X75071769Y-96038867D01*
X75130252Y-96050500D01*
X75130253Y-96050500D01*
X76869747Y-96050500D01*
X76869748Y-96050500D01*
X76928231Y-96038867D01*
X76994552Y-95994552D01*
X77038867Y-95928231D01*
X77050500Y-95869748D01*
X77050500Y-94494999D01*
X121552949Y-94494999D01*
X121552949Y-94495000D01*
X121573586Y-94651760D01*
X121573587Y-94651762D01*
X121634095Y-94797841D01*
X121730349Y-94923282D01*
X121855790Y-95019536D01*
X122001869Y-95080044D01*
X122158631Y-95100682D01*
X122315393Y-95080044D01*
X122461472Y-95019536D01*
X122586913Y-94923282D01*
X122683167Y-94797841D01*
X122743675Y-94651762D01*
X122764313Y-94495000D01*
X122743675Y-94338238D01*
X122683167Y-94192159D01*
X122586913Y-94066718D01*
X122461472Y-93970464D01*
X122315393Y-93909956D01*
X122315391Y-93909955D01*
X122158631Y-93889318D01*
X122001870Y-93909955D01*
X121855791Y-93970463D01*
X121855788Y-93970465D01*
X121730349Y-94066718D01*
X121634096Y-94192157D01*
X121634094Y-94192160D01*
X121573586Y-94338239D01*
X121552949Y-94494999D01*
X77050500Y-94494999D01*
X77050500Y-94130252D01*
X77038867Y-94071769D01*
X76994552Y-94005448D01*
X76928231Y-93961133D01*
X76928228Y-93961132D01*
X76869750Y-93949500D01*
X76869748Y-93949500D01*
X75130252Y-93949500D01*
X75130249Y-93949500D01*
X75071771Y-93961132D01*
X75071768Y-93961133D01*
X75005448Y-94005448D01*
X74961133Y-94071768D01*
X74961132Y-94071771D01*
X74949500Y-94130249D01*
X73439668Y-94130249D01*
X73439678Y-90499999D01*
X83394318Y-90499999D01*
X83394318Y-90500000D01*
X83414955Y-90656760D01*
X83414956Y-90656762D01*
X83475464Y-90802841D01*
X83571718Y-90928282D01*
X83697159Y-91024536D01*
X83843238Y-91085044D01*
X84000000Y-91105682D01*
X84156762Y-91085044D01*
X84302841Y-91024536D01*
X84428282Y-90928282D01*
X84524536Y-90802841D01*
X84585044Y-90656762D01*
X84605682Y-90500000D01*
X84605682Y-90499999D01*
X120894318Y-90499999D01*
X120894318Y-90500000D01*
X120914955Y-90656760D01*
X120914956Y-90656762D01*
X120975464Y-90802841D01*
X121071718Y-90928282D01*
X121197159Y-91024536D01*
X121343238Y-91085044D01*
X121500000Y-91105682D01*
X121656762Y-91085044D01*
X121802841Y-91024536D01*
X121928282Y-90928282D01*
X122024536Y-90802841D01*
X122085044Y-90656762D01*
X122105682Y-90500000D01*
X122085044Y-90343238D01*
X122024536Y-90197159D01*
X121928282Y-90071718D01*
X121802841Y-89975464D01*
X121656762Y-89914956D01*
X121656760Y-89914955D01*
X121500000Y-89894318D01*
X121343239Y-89914955D01*
X121197160Y-89975463D01*
X121197157Y-89975465D01*
X121071718Y-90071718D01*
X120975465Y-90197157D01*
X120975463Y-90197160D01*
X120914955Y-90343239D01*
X120894318Y-90499999D01*
X84605682Y-90499999D01*
X84585044Y-90343238D01*
X84524536Y-90197159D01*
X84428282Y-90071718D01*
X84302841Y-89975464D01*
X84156762Y-89914956D01*
X84156760Y-89914955D01*
X84000000Y-89894318D01*
X83843239Y-89914955D01*
X83697160Y-89975463D01*
X83697157Y-89975465D01*
X83571718Y-90071718D01*
X83475465Y-90197157D01*
X83475463Y-90197160D01*
X83414955Y-90343239D01*
X83394318Y-90499999D01*
X73439678Y-90499999D01*
X73439685Y-88000062D01*
X83394318Y-88000062D01*
X83394318Y-88000063D01*
X83414955Y-88156823D01*
X83414956Y-88156825D01*
X83475464Y-88302904D01*
X83571718Y-88428345D01*
X83697159Y-88524599D01*
X83843238Y-88585107D01*
X84000000Y-88605745D01*
X84156762Y-88585107D01*
X84302841Y-88524599D01*
X84428282Y-88428345D01*
X84524536Y-88302904D01*
X84585044Y-88156825D01*
X84605682Y-88000063D01*
X84605682Y-88000062D01*
X87894318Y-88000062D01*
X87894318Y-88000063D01*
X87914955Y-88156823D01*
X87914956Y-88156825D01*
X87975464Y-88302904D01*
X88071718Y-88428345D01*
X88197159Y-88524599D01*
X88343238Y-88585107D01*
X88500000Y-88605745D01*
X88656762Y-88585107D01*
X88802841Y-88524599D01*
X88928282Y-88428345D01*
X89024536Y-88302904D01*
X89085044Y-88156825D01*
X89105682Y-88000063D01*
X89085044Y-87843301D01*
X89024536Y-87697222D01*
X88928282Y-87571781D01*
X88802841Y-87475527D01*
X88656762Y-87415019D01*
X88656760Y-87415018D01*
X88500000Y-87394381D01*
X88343239Y-87415018D01*
X88197160Y-87475526D01*
X88197157Y-87475528D01*
X88071718Y-87571781D01*
X87975465Y-87697220D01*
X87975463Y-87697223D01*
X87914955Y-87843302D01*
X87894318Y-88000062D01*
X84605682Y-88000062D01*
X84585044Y-87843301D01*
X84524536Y-87697222D01*
X84428282Y-87571781D01*
X84302841Y-87475527D01*
X84156762Y-87415019D01*
X84156760Y-87415018D01*
X84000000Y-87394381D01*
X83843239Y-87415018D01*
X83697160Y-87475526D01*
X83697157Y-87475528D01*
X83571718Y-87571781D01*
X83475465Y-87697220D01*
X83475463Y-87697223D01*
X83414955Y-87843302D01*
X83394318Y-88000062D01*
X73439685Y-88000062D01*
X73439689Y-86500062D01*
X83394318Y-86500062D01*
X83394318Y-86500063D01*
X83414955Y-86656823D01*
X83414956Y-86656825D01*
X83475464Y-86802904D01*
X83571718Y-86928345D01*
X83697159Y-87024599D01*
X83843238Y-87085107D01*
X84000000Y-87105745D01*
X84156762Y-87085107D01*
X84302841Y-87024599D01*
X84428282Y-86928345D01*
X84524536Y-86802904D01*
X84585044Y-86656825D01*
X84605682Y-86500063D01*
X84585044Y-86343301D01*
X84524536Y-86197222D01*
X84428282Y-86071781D01*
X84302841Y-85975527D01*
X84156762Y-85915019D01*
X84156760Y-85915018D01*
X84000000Y-85894381D01*
X83843239Y-85915018D01*
X83697160Y-85975526D01*
X83697157Y-85975528D01*
X83571718Y-86071781D01*
X83475465Y-86197220D01*
X83475463Y-86197223D01*
X83414955Y-86343302D01*
X83394318Y-86500062D01*
X73439689Y-86500062D01*
X73439698Y-83004090D01*
X73439966Y-82995911D01*
X73456051Y-82750503D01*
X73458199Y-82734191D01*
X73478874Y-82630249D01*
X74889500Y-82630249D01*
X74889500Y-84369750D01*
X74891078Y-84377685D01*
X74901133Y-84428231D01*
X74945448Y-84494552D01*
X75011769Y-84538867D01*
X75070252Y-84550500D01*
X75070253Y-84550500D01*
X76809747Y-84550500D01*
X76809748Y-84550500D01*
X76868231Y-84538867D01*
X76934552Y-84494552D01*
X76978867Y-84428231D01*
X76990500Y-84369748D01*
X76990500Y-83499996D01*
X77424417Y-83499996D01*
X77424417Y-83500003D01*
X77444698Y-83705927D01*
X77444699Y-83705933D01*
X77444700Y-83705934D01*
X77504768Y-83903954D01*
X77602315Y-84086450D01*
X77733590Y-84246410D01*
X77893550Y-84377685D01*
X78076046Y-84475232D01*
X78274066Y-84535300D01*
X78274070Y-84535300D01*
X78274072Y-84535301D01*
X78479997Y-84555583D01*
X78480000Y-84555583D01*
X78480003Y-84555583D01*
X78685927Y-84535301D01*
X78685928Y-84535300D01*
X78685934Y-84535300D01*
X78883954Y-84475232D01*
X79066450Y-84377685D01*
X79226410Y-84246410D01*
X79357685Y-84086450D01*
X79455232Y-83903954D01*
X79515300Y-83705934D01*
X79535583Y-83500000D01*
X79535583Y-83499996D01*
X79964417Y-83499996D01*
X79964417Y-83500003D01*
X79984698Y-83705927D01*
X79984699Y-83705933D01*
X79984700Y-83705934D01*
X80044768Y-83903954D01*
X80142315Y-84086450D01*
X80273590Y-84246410D01*
X80433550Y-84377685D01*
X80616046Y-84475232D01*
X80814066Y-84535300D01*
X80814070Y-84535300D01*
X80814072Y-84535301D01*
X81019997Y-84555583D01*
X81020000Y-84555583D01*
X81020003Y-84555583D01*
X81225927Y-84535301D01*
X81225928Y-84535300D01*
X81225934Y-84535300D01*
X81423954Y-84475232D01*
X81606450Y-84377685D01*
X81766410Y-84246410D01*
X81897685Y-84086450D01*
X81995232Y-83903954D01*
X82055300Y-83705934D01*
X82075583Y-83500000D01*
X82075583Y-83499996D01*
X82504417Y-83499996D01*
X82504417Y-83500003D01*
X82524698Y-83705927D01*
X82524699Y-83705933D01*
X82524700Y-83705934D01*
X82584768Y-83903954D01*
X82682315Y-84086450D01*
X82813590Y-84246410D01*
X82973550Y-84377685D01*
X83156046Y-84475232D01*
X83354066Y-84535300D01*
X83354070Y-84535300D01*
X83354072Y-84535301D01*
X83559997Y-84555583D01*
X83560000Y-84555583D01*
X83560003Y-84555583D01*
X83765927Y-84535301D01*
X83765928Y-84535300D01*
X83765934Y-84535300D01*
X83963954Y-84475232D01*
X84146450Y-84377685D01*
X84306410Y-84246410D01*
X84437685Y-84086450D01*
X84535232Y-83903954D01*
X84595300Y-83705934D01*
X84615583Y-83500000D01*
X84615583Y-83499996D01*
X85044417Y-83499996D01*
X85044417Y-83500003D01*
X85064698Y-83705927D01*
X85064699Y-83705933D01*
X85064700Y-83705934D01*
X85124768Y-83903954D01*
X85222315Y-84086450D01*
X85353590Y-84246410D01*
X85513550Y-84377685D01*
X85696046Y-84475232D01*
X85894066Y-84535300D01*
X85894070Y-84535300D01*
X85894072Y-84535301D01*
X86099997Y-84555583D01*
X86100000Y-84555583D01*
X86100003Y-84555583D01*
X86305927Y-84535301D01*
X86305928Y-84535300D01*
X86305934Y-84535300D01*
X86503954Y-84475232D01*
X86686450Y-84377685D01*
X86846410Y-84246410D01*
X86977685Y-84086450D01*
X87075232Y-83903954D01*
X87135300Y-83705934D01*
X87155583Y-83500000D01*
X87155583Y-83499996D01*
X87584417Y-83499996D01*
X87584417Y-83500003D01*
X87604698Y-83705927D01*
X87604699Y-83705933D01*
X87604700Y-83705934D01*
X87664768Y-83903954D01*
X87762315Y-84086450D01*
X87893590Y-84246410D01*
X88053550Y-84377685D01*
X88236046Y-84475232D01*
X88434066Y-84535300D01*
X88434070Y-84535300D01*
X88434072Y-84535301D01*
X88639997Y-84555583D01*
X88640000Y-84555583D01*
X88640003Y-84555583D01*
X88845927Y-84535301D01*
X88845928Y-84535300D01*
X88845934Y-84535300D01*
X89043954Y-84475232D01*
X89226450Y-84377685D01*
X89386410Y-84246410D01*
X89517685Y-84086450D01*
X89615232Y-83903954D01*
X89675300Y-83705934D01*
X89695583Y-83500000D01*
X89695583Y-83499996D01*
X90124417Y-83499996D01*
X90124417Y-83500003D01*
X90144698Y-83705927D01*
X90144699Y-83705933D01*
X90144700Y-83705934D01*
X90204768Y-83903954D01*
X90302315Y-84086450D01*
X90433590Y-84246410D01*
X90593550Y-84377685D01*
X90776046Y-84475232D01*
X90974066Y-84535300D01*
X90974070Y-84535300D01*
X90974072Y-84535301D01*
X91179997Y-84555583D01*
X91180000Y-84555583D01*
X91180003Y-84555583D01*
X91385927Y-84535301D01*
X91385928Y-84535300D01*
X91385934Y-84535300D01*
X91583954Y-84475232D01*
X91766450Y-84377685D01*
X91926410Y-84246410D01*
X92057685Y-84086450D01*
X92155232Y-83903954D01*
X92215300Y-83705934D01*
X92235583Y-83500000D01*
X92235583Y-83499996D01*
X92664417Y-83499996D01*
X92664417Y-83500003D01*
X92684698Y-83705927D01*
X92684699Y-83705933D01*
X92684700Y-83705934D01*
X92744768Y-83903954D01*
X92842315Y-84086450D01*
X92973590Y-84246410D01*
X93133550Y-84377685D01*
X93316046Y-84475232D01*
X93514066Y-84535300D01*
X93514070Y-84535300D01*
X93514072Y-84535301D01*
X93719997Y-84555583D01*
X93720000Y-84555583D01*
X93720003Y-84555583D01*
X93925927Y-84535301D01*
X93925928Y-84535300D01*
X93925934Y-84535300D01*
X94123954Y-84475232D01*
X94306450Y-84377685D01*
X94466410Y-84246410D01*
X94597685Y-84086450D01*
X94695232Y-83903954D01*
X94755300Y-83705934D01*
X94775583Y-83500000D01*
X94775583Y-83499996D01*
X95204417Y-83499996D01*
X95204417Y-83500003D01*
X95224698Y-83705927D01*
X95224699Y-83705933D01*
X95224700Y-83705934D01*
X95284768Y-83903954D01*
X95382315Y-84086450D01*
X95513590Y-84246410D01*
X95673550Y-84377685D01*
X95856046Y-84475232D01*
X96054066Y-84535300D01*
X96054070Y-84535300D01*
X96054072Y-84535301D01*
X96259997Y-84555583D01*
X96260000Y-84555583D01*
X96260003Y-84555583D01*
X96465927Y-84535301D01*
X96465928Y-84535300D01*
X96465934Y-84535300D01*
X96663954Y-84475232D01*
X96846450Y-84377685D01*
X97006410Y-84246410D01*
X97137685Y-84086450D01*
X97235232Y-83903954D01*
X97295300Y-83705934D01*
X97315583Y-83500000D01*
X97315583Y-83499996D01*
X97744417Y-83499996D01*
X97744417Y-83500003D01*
X97764698Y-83705927D01*
X97764699Y-83705933D01*
X97764700Y-83705934D01*
X97824768Y-83903954D01*
X97922315Y-84086450D01*
X98053590Y-84246410D01*
X98213550Y-84377685D01*
X98396046Y-84475232D01*
X98594066Y-84535300D01*
X98594070Y-84535300D01*
X98594072Y-84535301D01*
X98799997Y-84555583D01*
X98800000Y-84555583D01*
X98800003Y-84555583D01*
X99005927Y-84535301D01*
X99005928Y-84535300D01*
X99005934Y-84535300D01*
X99203954Y-84475232D01*
X99386450Y-84377685D01*
X99546410Y-84246410D01*
X99677685Y-84086450D01*
X99775232Y-83903954D01*
X99835300Y-83705934D01*
X99855583Y-83500000D01*
X99855583Y-83499996D01*
X100284417Y-83499996D01*
X100284417Y-83500003D01*
X100304698Y-83705927D01*
X100304699Y-83705933D01*
X100304700Y-83705934D01*
X100364768Y-83903954D01*
X100462315Y-84086450D01*
X100593590Y-84246410D01*
X100753550Y-84377685D01*
X100936046Y-84475232D01*
X101134066Y-84535300D01*
X101134070Y-84535300D01*
X101134072Y-84535301D01*
X101339997Y-84555583D01*
X101340000Y-84555583D01*
X101340003Y-84555583D01*
X101545927Y-84535301D01*
X101545928Y-84535300D01*
X101545934Y-84535300D01*
X101743954Y-84475232D01*
X101926450Y-84377685D01*
X102086410Y-84246410D01*
X102217685Y-84086450D01*
X102315232Y-83903954D01*
X102375300Y-83705934D01*
X102395583Y-83500000D01*
X102395583Y-83499996D01*
X102824417Y-83499996D01*
X102824417Y-83500003D01*
X102844698Y-83705927D01*
X102844699Y-83705933D01*
X102844700Y-83705934D01*
X102904768Y-83903954D01*
X103002315Y-84086450D01*
X103133590Y-84246410D01*
X103293550Y-84377685D01*
X103476046Y-84475232D01*
X103674066Y-84535300D01*
X103674070Y-84535300D01*
X103674072Y-84535301D01*
X103879997Y-84555583D01*
X103880000Y-84555583D01*
X103880003Y-84555583D01*
X104085927Y-84535301D01*
X104085928Y-84535300D01*
X104085934Y-84535300D01*
X104283954Y-84475232D01*
X104466450Y-84377685D01*
X104626410Y-84246410D01*
X104757685Y-84086450D01*
X104855232Y-83903954D01*
X104915300Y-83705934D01*
X104935583Y-83500000D01*
X104935583Y-83499996D01*
X105364417Y-83499996D01*
X105364417Y-83500003D01*
X105384698Y-83705927D01*
X105384699Y-83705933D01*
X105384700Y-83705934D01*
X105444768Y-83903954D01*
X105542315Y-84086450D01*
X105673590Y-84246410D01*
X105833550Y-84377685D01*
X106016046Y-84475232D01*
X106214066Y-84535300D01*
X106214070Y-84535300D01*
X106214072Y-84535301D01*
X106419997Y-84555583D01*
X106420000Y-84555583D01*
X106420003Y-84555583D01*
X106625927Y-84535301D01*
X106625928Y-84535300D01*
X106625934Y-84535300D01*
X106823954Y-84475232D01*
X107006450Y-84377685D01*
X107166410Y-84246410D01*
X107297685Y-84086450D01*
X107395232Y-83903954D01*
X107455300Y-83705934D01*
X107475583Y-83500000D01*
X107475583Y-83499996D01*
X107904417Y-83499996D01*
X107904417Y-83500003D01*
X107924698Y-83705927D01*
X107924699Y-83705933D01*
X107924700Y-83705934D01*
X107984768Y-83903954D01*
X108082315Y-84086450D01*
X108213590Y-84246410D01*
X108373550Y-84377685D01*
X108556046Y-84475232D01*
X108754066Y-84535300D01*
X108754070Y-84535300D01*
X108754072Y-84535301D01*
X108959997Y-84555583D01*
X108960000Y-84555583D01*
X108960003Y-84555583D01*
X109165927Y-84535301D01*
X109165928Y-84535300D01*
X109165934Y-84535300D01*
X109363954Y-84475232D01*
X109546450Y-84377685D01*
X109706410Y-84246410D01*
X109837685Y-84086450D01*
X109935232Y-83903954D01*
X109995300Y-83705934D01*
X110015583Y-83500000D01*
X110015583Y-83499996D01*
X110444417Y-83499996D01*
X110444417Y-83500003D01*
X110464698Y-83705927D01*
X110464699Y-83705933D01*
X110464700Y-83705934D01*
X110524768Y-83903954D01*
X110622315Y-84086450D01*
X110753590Y-84246410D01*
X110913550Y-84377685D01*
X111096046Y-84475232D01*
X111294066Y-84535300D01*
X111294070Y-84535300D01*
X111294072Y-84535301D01*
X111499997Y-84555583D01*
X111500000Y-84555583D01*
X111500003Y-84555583D01*
X111705927Y-84535301D01*
X111705928Y-84535300D01*
X111705934Y-84535300D01*
X111903954Y-84475232D01*
X112086450Y-84377685D01*
X112246410Y-84246410D01*
X112377685Y-84086450D01*
X112475232Y-83903954D01*
X112535300Y-83705934D01*
X112555583Y-83500000D01*
X112555583Y-83499996D01*
X112984417Y-83499996D01*
X112984417Y-83500003D01*
X113004698Y-83705927D01*
X113004699Y-83705933D01*
X113004700Y-83705934D01*
X113064768Y-83903954D01*
X113162315Y-84086450D01*
X113293590Y-84246410D01*
X113453550Y-84377685D01*
X113636046Y-84475232D01*
X113834066Y-84535300D01*
X113834070Y-84535300D01*
X113834072Y-84535301D01*
X114039997Y-84555583D01*
X114040000Y-84555583D01*
X114040003Y-84555583D01*
X114245927Y-84535301D01*
X114245928Y-84535300D01*
X114245934Y-84535300D01*
X114443954Y-84475232D01*
X114626450Y-84377685D01*
X114786410Y-84246410D01*
X114917685Y-84086450D01*
X115015232Y-83903954D01*
X115075300Y-83705934D01*
X115095583Y-83500000D01*
X115095583Y-83499996D01*
X115524417Y-83499996D01*
X115524417Y-83500003D01*
X115544698Y-83705927D01*
X115544699Y-83705933D01*
X115544700Y-83705934D01*
X115604768Y-83903954D01*
X115702315Y-84086450D01*
X115833590Y-84246410D01*
X115993550Y-84377685D01*
X116176046Y-84475232D01*
X116374066Y-84535300D01*
X116374070Y-84535300D01*
X116374072Y-84535301D01*
X116579997Y-84555583D01*
X116580000Y-84555583D01*
X116580003Y-84555583D01*
X116785927Y-84535301D01*
X116785928Y-84535300D01*
X116785934Y-84535300D01*
X116983954Y-84475232D01*
X117166450Y-84377685D01*
X117326410Y-84246410D01*
X117457685Y-84086450D01*
X117555232Y-83903954D01*
X117615300Y-83705934D01*
X117635583Y-83500000D01*
X117635583Y-83499996D01*
X118064417Y-83499996D01*
X118064417Y-83500003D01*
X118084698Y-83705927D01*
X118084699Y-83705933D01*
X118084700Y-83705934D01*
X118144768Y-83903954D01*
X118242315Y-84086450D01*
X118373590Y-84246410D01*
X118533550Y-84377685D01*
X118716046Y-84475232D01*
X118914066Y-84535300D01*
X118914070Y-84535300D01*
X118914072Y-84535301D01*
X119119997Y-84555583D01*
X119120000Y-84555583D01*
X119120003Y-84555583D01*
X119325927Y-84535301D01*
X119325928Y-84535300D01*
X119325934Y-84535300D01*
X119523954Y-84475232D01*
X119706450Y-84377685D01*
X119866410Y-84246410D01*
X119997685Y-84086450D01*
X120095232Y-83903954D01*
X120155300Y-83705934D01*
X120175583Y-83500000D01*
X120175583Y-83499996D01*
X120604417Y-83499996D01*
X120604417Y-83500003D01*
X120624698Y-83705927D01*
X120624699Y-83705933D01*
X120624700Y-83705934D01*
X120684768Y-83903954D01*
X120782315Y-84086450D01*
X120913590Y-84246410D01*
X121073550Y-84377685D01*
X121256046Y-84475232D01*
X121454066Y-84535300D01*
X121454070Y-84535300D01*
X121454072Y-84535301D01*
X121659997Y-84555583D01*
X121660000Y-84555583D01*
X121660003Y-84555583D01*
X121865927Y-84535301D01*
X121865928Y-84535300D01*
X121865934Y-84535300D01*
X122063954Y-84475232D01*
X122246450Y-84377685D01*
X122406410Y-84246410D01*
X122537685Y-84086450D01*
X122635232Y-83903954D01*
X122695300Y-83705934D01*
X122715583Y-83500000D01*
X122715583Y-83499996D01*
X123144417Y-83499996D01*
X123144417Y-83500003D01*
X123164698Y-83705927D01*
X123164699Y-83705933D01*
X123164700Y-83705934D01*
X123224768Y-83903954D01*
X123322315Y-84086450D01*
X123453590Y-84246410D01*
X123613550Y-84377685D01*
X123796046Y-84475232D01*
X123994066Y-84535300D01*
X123994070Y-84535300D01*
X123994072Y-84535301D01*
X124199997Y-84555583D01*
X124200000Y-84555583D01*
X124200003Y-84555583D01*
X124405927Y-84535301D01*
X124405928Y-84535300D01*
X124405934Y-84535300D01*
X124603954Y-84475232D01*
X124786450Y-84377685D01*
X124946410Y-84246410D01*
X125077685Y-84086450D01*
X125175232Y-83903954D01*
X125235300Y-83705934D01*
X125255583Y-83500000D01*
X125235300Y-83294066D01*
X125175232Y-83096046D01*
X125077685Y-82913550D01*
X124946410Y-82753590D01*
X124786450Y-82622315D01*
X124786448Y-82622314D01*
X124786447Y-82622313D01*
X124603954Y-82524768D01*
X124485916Y-82488962D01*
X124405934Y-82464700D01*
X124405933Y-82464699D01*
X124405927Y-82464698D01*
X124200003Y-82444417D01*
X124199997Y-82444417D01*
X123994072Y-82464698D01*
X123796045Y-82524768D01*
X123613552Y-82622313D01*
X123453590Y-82753590D01*
X123322313Y-82913552D01*
X123224768Y-83096045D01*
X123164698Y-83294072D01*
X123144417Y-83499996D01*
X122715583Y-83499996D01*
X122695300Y-83294066D01*
X122635232Y-83096046D01*
X122537685Y-82913550D01*
X122406410Y-82753590D01*
X122246450Y-82622315D01*
X122246448Y-82622314D01*
X122246447Y-82622313D01*
X122063954Y-82524768D01*
X121945916Y-82488962D01*
X121865934Y-82464700D01*
X121865933Y-82464699D01*
X121865927Y-82464698D01*
X121660003Y-82444417D01*
X121659997Y-82444417D01*
X121454072Y-82464698D01*
X121256045Y-82524768D01*
X121073552Y-82622313D01*
X120913590Y-82753590D01*
X120782313Y-82913552D01*
X120684768Y-83096045D01*
X120624698Y-83294072D01*
X120604417Y-83499996D01*
X120175583Y-83499996D01*
X120155300Y-83294066D01*
X120095232Y-83096046D01*
X119997685Y-82913550D01*
X119866410Y-82753590D01*
X119706450Y-82622315D01*
X119706448Y-82622314D01*
X119706447Y-82622313D01*
X119523954Y-82524768D01*
X119405916Y-82488962D01*
X119325934Y-82464700D01*
X119325933Y-82464699D01*
X119325927Y-82464698D01*
X119120003Y-82444417D01*
X119119997Y-82444417D01*
X118914072Y-82464698D01*
X118716045Y-82524768D01*
X118533552Y-82622313D01*
X118373590Y-82753590D01*
X118242313Y-82913552D01*
X118144768Y-83096045D01*
X118084698Y-83294072D01*
X118064417Y-83499996D01*
X117635583Y-83499996D01*
X117615300Y-83294066D01*
X117555232Y-83096046D01*
X117457685Y-82913550D01*
X117326410Y-82753590D01*
X117166450Y-82622315D01*
X117166448Y-82622314D01*
X117166447Y-82622313D01*
X116983954Y-82524768D01*
X116865916Y-82488962D01*
X116785934Y-82464700D01*
X116785933Y-82464699D01*
X116785927Y-82464698D01*
X116580003Y-82444417D01*
X116579997Y-82444417D01*
X116374072Y-82464698D01*
X116176045Y-82524768D01*
X115993552Y-82622313D01*
X115833590Y-82753590D01*
X115702313Y-82913552D01*
X115604768Y-83096045D01*
X115544698Y-83294072D01*
X115524417Y-83499996D01*
X115095583Y-83499996D01*
X115075300Y-83294066D01*
X115015232Y-83096046D01*
X114917685Y-82913550D01*
X114786410Y-82753590D01*
X114626450Y-82622315D01*
X114626448Y-82622314D01*
X114626447Y-82622313D01*
X114443954Y-82524768D01*
X114325916Y-82488962D01*
X114245934Y-82464700D01*
X114245933Y-82464699D01*
X114245927Y-82464698D01*
X114040003Y-82444417D01*
X114039997Y-82444417D01*
X113834072Y-82464698D01*
X113636045Y-82524768D01*
X113453552Y-82622313D01*
X113293590Y-82753590D01*
X113162313Y-82913552D01*
X113064768Y-83096045D01*
X113004698Y-83294072D01*
X112984417Y-83499996D01*
X112555583Y-83499996D01*
X112535300Y-83294066D01*
X112475232Y-83096046D01*
X112377685Y-82913550D01*
X112246410Y-82753590D01*
X112086450Y-82622315D01*
X112086448Y-82622314D01*
X112086447Y-82622313D01*
X111903954Y-82524768D01*
X111785916Y-82488962D01*
X111705934Y-82464700D01*
X111705933Y-82464699D01*
X111705927Y-82464698D01*
X111500003Y-82444417D01*
X111499997Y-82444417D01*
X111294072Y-82464698D01*
X111096045Y-82524768D01*
X110913552Y-82622313D01*
X110753590Y-82753590D01*
X110622313Y-82913552D01*
X110524768Y-83096045D01*
X110464698Y-83294072D01*
X110444417Y-83499996D01*
X110015583Y-83499996D01*
X109995300Y-83294066D01*
X109935232Y-83096046D01*
X109837685Y-82913550D01*
X109706410Y-82753590D01*
X109546450Y-82622315D01*
X109546448Y-82622314D01*
X109546447Y-82622313D01*
X109363954Y-82524768D01*
X109245916Y-82488962D01*
X109165934Y-82464700D01*
X109165933Y-82464699D01*
X109165927Y-82464698D01*
X108960003Y-82444417D01*
X108959997Y-82444417D01*
X108754072Y-82464698D01*
X108556045Y-82524768D01*
X108373552Y-82622313D01*
X108213590Y-82753590D01*
X108082313Y-82913552D01*
X107984768Y-83096045D01*
X107924698Y-83294072D01*
X107904417Y-83499996D01*
X107475583Y-83499996D01*
X107455300Y-83294066D01*
X107395232Y-83096046D01*
X107297685Y-82913550D01*
X107166410Y-82753590D01*
X107006450Y-82622315D01*
X107006448Y-82622314D01*
X107006447Y-82622313D01*
X106823954Y-82524768D01*
X106705916Y-82488962D01*
X106625934Y-82464700D01*
X106625933Y-82464699D01*
X106625927Y-82464698D01*
X106420003Y-82444417D01*
X106419997Y-82444417D01*
X106214072Y-82464698D01*
X106016045Y-82524768D01*
X105833552Y-82622313D01*
X105673590Y-82753590D01*
X105542313Y-82913552D01*
X105444768Y-83096045D01*
X105384698Y-83294072D01*
X105364417Y-83499996D01*
X104935583Y-83499996D01*
X104915300Y-83294066D01*
X104855232Y-83096046D01*
X104757685Y-82913550D01*
X104626410Y-82753590D01*
X104466450Y-82622315D01*
X104466448Y-82622314D01*
X104466447Y-82622313D01*
X104283954Y-82524768D01*
X104165916Y-82488962D01*
X104085934Y-82464700D01*
X104085933Y-82464699D01*
X104085927Y-82464698D01*
X103880003Y-82444417D01*
X103879997Y-82444417D01*
X103674072Y-82464698D01*
X103476045Y-82524768D01*
X103293552Y-82622313D01*
X103133590Y-82753590D01*
X103002313Y-82913552D01*
X102904768Y-83096045D01*
X102844698Y-83294072D01*
X102824417Y-83499996D01*
X102395583Y-83499996D01*
X102375300Y-83294066D01*
X102315232Y-83096046D01*
X102217685Y-82913550D01*
X102086410Y-82753590D01*
X101926450Y-82622315D01*
X101926448Y-82622314D01*
X101926447Y-82622313D01*
X101743954Y-82524768D01*
X101625916Y-82488962D01*
X101545934Y-82464700D01*
X101545933Y-82464699D01*
X101545927Y-82464698D01*
X101340003Y-82444417D01*
X101339997Y-82444417D01*
X101134072Y-82464698D01*
X100936045Y-82524768D01*
X100753552Y-82622313D01*
X100593590Y-82753590D01*
X100462313Y-82913552D01*
X100364768Y-83096045D01*
X100304698Y-83294072D01*
X100284417Y-83499996D01*
X99855583Y-83499996D01*
X99835300Y-83294066D01*
X99775232Y-83096046D01*
X99677685Y-82913550D01*
X99546410Y-82753590D01*
X99386450Y-82622315D01*
X99386448Y-82622314D01*
X99386447Y-82622313D01*
X99203954Y-82524768D01*
X99085916Y-82488962D01*
X99005934Y-82464700D01*
X99005933Y-82464699D01*
X99005927Y-82464698D01*
X98800003Y-82444417D01*
X98799997Y-82444417D01*
X98594072Y-82464698D01*
X98396045Y-82524768D01*
X98213552Y-82622313D01*
X98053590Y-82753590D01*
X97922313Y-82913552D01*
X97824768Y-83096045D01*
X97764698Y-83294072D01*
X97744417Y-83499996D01*
X97315583Y-83499996D01*
X97295300Y-83294066D01*
X97235232Y-83096046D01*
X97137685Y-82913550D01*
X97006410Y-82753590D01*
X96846450Y-82622315D01*
X96846448Y-82622314D01*
X96846447Y-82622313D01*
X96663954Y-82524768D01*
X96545916Y-82488962D01*
X96465934Y-82464700D01*
X96465933Y-82464699D01*
X96465927Y-82464698D01*
X96260003Y-82444417D01*
X96259997Y-82444417D01*
X96054072Y-82464698D01*
X95856045Y-82524768D01*
X95673552Y-82622313D01*
X95513590Y-82753590D01*
X95382313Y-82913552D01*
X95284768Y-83096045D01*
X95224698Y-83294072D01*
X95204417Y-83499996D01*
X94775583Y-83499996D01*
X94755300Y-83294066D01*
X94695232Y-83096046D01*
X94597685Y-82913550D01*
X94466410Y-82753590D01*
X94306450Y-82622315D01*
X94306448Y-82622314D01*
X94306447Y-82622313D01*
X94123954Y-82524768D01*
X94005916Y-82488962D01*
X93925934Y-82464700D01*
X93925933Y-82464699D01*
X93925927Y-82464698D01*
X93720003Y-82444417D01*
X93719997Y-82444417D01*
X93514072Y-82464698D01*
X93316045Y-82524768D01*
X93133552Y-82622313D01*
X92973590Y-82753590D01*
X92842313Y-82913552D01*
X92744768Y-83096045D01*
X92684698Y-83294072D01*
X92664417Y-83499996D01*
X92235583Y-83499996D01*
X92215300Y-83294066D01*
X92155232Y-83096046D01*
X92057685Y-82913550D01*
X91926410Y-82753590D01*
X91766450Y-82622315D01*
X91766448Y-82622314D01*
X91766447Y-82622313D01*
X91583954Y-82524768D01*
X91465916Y-82488962D01*
X91385934Y-82464700D01*
X91385933Y-82464699D01*
X91385927Y-82464698D01*
X91180003Y-82444417D01*
X91179997Y-82444417D01*
X90974072Y-82464698D01*
X90776045Y-82524768D01*
X90593552Y-82622313D01*
X90433590Y-82753590D01*
X90302313Y-82913552D01*
X90204768Y-83096045D01*
X90144698Y-83294072D01*
X90124417Y-83499996D01*
X89695583Y-83499996D01*
X89675300Y-83294066D01*
X89615232Y-83096046D01*
X89517685Y-82913550D01*
X89386410Y-82753590D01*
X89226450Y-82622315D01*
X89226448Y-82622314D01*
X89226447Y-82622313D01*
X89043954Y-82524768D01*
X88925916Y-82488962D01*
X88845934Y-82464700D01*
X88845933Y-82464699D01*
X88845927Y-82464698D01*
X88640003Y-82444417D01*
X88639997Y-82444417D01*
X88434072Y-82464698D01*
X88236045Y-82524768D01*
X88053552Y-82622313D01*
X87893590Y-82753590D01*
X87762313Y-82913552D01*
X87664768Y-83096045D01*
X87604698Y-83294072D01*
X87584417Y-83499996D01*
X87155583Y-83499996D01*
X87135300Y-83294066D01*
X87075232Y-83096046D01*
X86977685Y-82913550D01*
X86846410Y-82753590D01*
X86686450Y-82622315D01*
X86686448Y-82622314D01*
X86686447Y-82622313D01*
X86503954Y-82524768D01*
X86385916Y-82488962D01*
X86305934Y-82464700D01*
X86305933Y-82464699D01*
X86305927Y-82464698D01*
X86100003Y-82444417D01*
X86099997Y-82444417D01*
X85894072Y-82464698D01*
X85696045Y-82524768D01*
X85513552Y-82622313D01*
X85353590Y-82753590D01*
X85222313Y-82913552D01*
X85124768Y-83096045D01*
X85064698Y-83294072D01*
X85044417Y-83499996D01*
X84615583Y-83499996D01*
X84595300Y-83294066D01*
X84535232Y-83096046D01*
X84437685Y-82913550D01*
X84306410Y-82753590D01*
X84146450Y-82622315D01*
X84146448Y-82622314D01*
X84146447Y-82622313D01*
X83963954Y-82524768D01*
X83845916Y-82488962D01*
X83765934Y-82464700D01*
X83765933Y-82464699D01*
X83765927Y-82464698D01*
X83560003Y-82444417D01*
X83559997Y-82444417D01*
X83354072Y-82464698D01*
X83156045Y-82524768D01*
X82973552Y-82622313D01*
X82813590Y-82753590D01*
X82682313Y-82913552D01*
X82584768Y-83096045D01*
X82524698Y-83294072D01*
X82504417Y-83499996D01*
X82075583Y-83499996D01*
X82055300Y-83294066D01*
X81995232Y-83096046D01*
X81897685Y-82913550D01*
X81766410Y-82753590D01*
X81606450Y-82622315D01*
X81606448Y-82622314D01*
X81606447Y-82622313D01*
X81423954Y-82524768D01*
X81305916Y-82488962D01*
X81225934Y-82464700D01*
X81225933Y-82464699D01*
X81225927Y-82464698D01*
X81020003Y-82444417D01*
X81019997Y-82444417D01*
X80814072Y-82464698D01*
X80616045Y-82524768D01*
X80433552Y-82622313D01*
X80273590Y-82753590D01*
X80142313Y-82913552D01*
X80044768Y-83096045D01*
X79984698Y-83294072D01*
X79964417Y-83499996D01*
X79535583Y-83499996D01*
X79515300Y-83294066D01*
X79455232Y-83096046D01*
X79357685Y-82913550D01*
X79226410Y-82753590D01*
X79066450Y-82622315D01*
X79066448Y-82622314D01*
X79066447Y-82622313D01*
X78883954Y-82524768D01*
X78765916Y-82488962D01*
X78685934Y-82464700D01*
X78685933Y-82464699D01*
X78685927Y-82464698D01*
X78480003Y-82444417D01*
X78479997Y-82444417D01*
X78274072Y-82464698D01*
X78076045Y-82524768D01*
X77893552Y-82622313D01*
X77733590Y-82753590D01*
X77602313Y-82913552D01*
X77504768Y-83096045D01*
X77444698Y-83294072D01*
X77424417Y-83499996D01*
X76990500Y-83499996D01*
X76990500Y-82630252D01*
X76978867Y-82571769D01*
X76934552Y-82505448D01*
X76868231Y-82461133D01*
X76868228Y-82461132D01*
X76809750Y-82449500D01*
X76809748Y-82449500D01*
X75070252Y-82449500D01*
X75070249Y-82449500D01*
X75011771Y-82461132D01*
X75011768Y-82461133D01*
X74945448Y-82505448D01*
X74901133Y-82571768D01*
X74901132Y-82571771D01*
X74889500Y-82630249D01*
X73478874Y-82630249D01*
X73505369Y-82497050D01*
X73509629Y-82481149D01*
X73587348Y-82252199D01*
X73593644Y-82236998D01*
X73700586Y-82020142D01*
X73708810Y-82005898D01*
X73843142Y-81804855D01*
X73853155Y-81791805D01*
X74012577Y-81610019D01*
X74024226Y-81598372D01*
X74163832Y-81475940D01*
X74205995Y-81438963D01*
X74219054Y-81428942D01*
X74420097Y-81294610D01*
X74434341Y-81286386D01*
X74651199Y-81179443D01*
X74666395Y-81173149D01*
X74895349Y-81095430D01*
X74911244Y-81091171D01*
X75148389Y-81043999D01*
X75164707Y-81041851D01*
X75410057Y-81025770D01*
X75418298Y-81025500D01*
X75442532Y-81025500D01*
X75442853Y-81025447D01*
X126966464Y-80929722D01*
X126975910Y-80930060D01*
G37*
G04 #@! TD.AperFunction*
M02*
